<svg xmlns="http://www.w3.org/2000/svg" width="59" height="50" fill="currentColor" viewBox="0 0 59 50">
  <g clip-path="url(#a)">
    <path d="M58.325 11.652c-.66-1.152-1.687-1.7-2.996-1.63-.613.033-.795-.162-.727-.746.034-.4.034-.803 0-1.203-.073-1.403-.708-2.578-2.023-2.983-1.105-.342-1.208-.937-1.099-1.832a1.07 1.07 0 0 0 0-.172C51.39 1.573 50.355.34 48.885.071a8.308 8.308 0 0 0-1.6-.055 3.16 3.16 0 0 0-3.033 2.344c-.182.64-.102 1.292-.102 1.937 0 .328-.097.424-.422.417a113.643 113.643 0 0 0-3.441 0c-.295 0-.434-.075-.52-.377A42.668 42.668 0 0 0 39 1.941C38.598.77 37.928.283 36.69.28a5986.18 5986.18 0 0 0-14.68 0c-1.227 0-1.894.496-2.3 1.686-.272.792-.534 1.59-.767 2.394-.08.275-.198.362-.475.359a142.525 142.525 0 0 0-3.498 0c-.291 0-.414-.07-.396-.383a15 15 0 0 0 0-1.26A3.185 3.185 0 0 0 12.262.13c-.623-.18-1.254-.117-1.881-.109a3.156 3.156 0 0 0-3.066 2.583 6.898 6.898 0 0 0-.063 1.656.977.977 0 0 1 0 .136.379.379 0 0 1-.24.342c-.067.03-.137.054-.209.07-1.407.348-2.27 1.26-2.623 2.659-.122.487-.067.988-.07 1.483 0 1.015 0 1.015-1.029 1.055A3.184 3.184 0 0 0 .015 12.86a3.095 3.095 0 0 0 2.494 3.347c.471.095.532.293.53.712-.014 6.213-.017 12.426-.008 18.64v6.332l.029-.012v6.226h-.028v1.719h5.426c15.185-.02 30.372-.024 45.559-.011l1.686.008c.01-7.552.014-25.315 0-32.866 0-.497.143-.667.621-.76.955-.183 1.64-.775 2.08-1.64.127-.248.225-.511.337-.766v-1.148a7.45 7.45 0 0 0-.416-.989ZM45.837 4.336c.025-.399 0-.8.017-1.2.005-.152.032-.303.081-.447.307-.849 1.239-1.183 2.606-.947.703.12 1.188.724 1.227 1.513.06 1.453.06 1.453-1.363 1.453h-.63c-.515 0-1.03-.015-1.544 0-.29.017-.414-.061-.394-.372ZM21.35 2.416c.102-.306.307-.433.646-.432 4.905.01 9.814.01 14.727 0 .341 0 .542.123.642.434.237.742.472 1.484.719 2.263h-17.46l.727-2.264ZM8.934 4.36c.021-.398-.01-.801.012-1.2.05-.839.64-1.38 1.48-1.44 2.549-.177 2.48.956 2.444 2.71 0 .295-.174.281-.374.28h-1.66c-.515 0-1.03-.014-1.543 0-.264.014-.367-.07-.352-.35h-.007Zm-3.14 5.074c.048-.434 0-.878.02-1.317a1.755 1.755 0 0 1 1.687-1.686c.171-.01.344-.009.516-.009H50.68c.542 0 1.073.014 1.52.377a1.858 1.858 0 0 1 .698 1.614c-.019.514.173 1.185-.081 1.498-.255.313-.968.103-1.477.103-7.34.006-14.68.006-22.02 0-7.645 0-15.29.003-22.937.01-.46-.004-.628-.1-.58-.59h-.009Zm51.2 3.923a1.436 1.436 0 0 1-1.317 1.226c-.19.016-.382 0-.573 0h-1.015v2.973c-.01 3.372-.03 8.961-.052 14.716-.02 5.805-.038 11.78-.038 15.816H4.752v-.613a1.555 1.555 0 0 1 0-.293v-6.824c0-5.059.01-10.128-.01-15.191h-.016c0-2.541-.004-5.08-.012-7.618v-2.958h-1.33c-.896 0-1.486-.403-1.647-1.116a1.447 1.447 0 0 1 1.241-1.74c.21-.018.42-.023.63-.015h51.496c.306 0 .613-.028.906.078a1.434 1.434 0 0 1 .987 1.559h-.003Z"/>
    <path d="M34.819 27.717c-.629-.041-1.26 0-1.892 0V27.7c-.613 0-1.226-.018-1.84 0-.354.014-.46-.049-.357-.433.28-1.03.517-2.071.767-3.11.194-.816.397-1.63.562-2.453.105-.515.023-1.008-.493-1.291-.517-.284-.957-.041-1.335.32a5.176 5.176 0 0 0-.534.596 3085.577 3085.577 0 0 0-6.478 8.456 4.116 4.116 0 0 0-.391.596l-.038.077c-.017.034-.032.069-.048.103-.339.79.07 1.514.92 1.654.321.045.646.066.97.063.994.007 1.993.023 2.98 0 .43-.013.46.142.371.492a365.15 365.15 0 0 0-1.073 4.385c-.1.408-.222.813-.208 1.239.027.906.821 1.354 1.608.901.441-.254.74-.656 1.042-1.05 1.383-1.802 2.762-3.607 4.139-5.412.786-1.032 1.603-2.045 2.332-3.117a1.658 1.658 0 0 0 .128-.215c.488-.928.002-1.71-1.133-1.784Zm-.874 1.702-4.826 6.308-.09-.03c.205-.867.404-1.736.613-2.607.486-1.965.05-2.526-1.967-2.528h-2.912l4.735-6.179c.087.702-.154 1.303-.282 1.925-.102.505-.253 1-.353 1.504-.178.898.282 1.512 1.202 1.544 1.073.038 2.146.017 3.211.021h.695l-.026.042Zm14.707-4.186a.767.767 0 0 1-.1.327l-.025.041a.814.814 0 0 1-.45.32 1.935 1.935 0 0 1-.508.065c-.46.015-.65.02-.723.192v.014c-.045.187-.062.38-.05.571v.229a1.16 1.16 0 0 1-.134.447.804.804 0 0 1-.745.417c-.475-.01-.8-.368-.825-.91-.043-.897-.043-.897-.946-.963-.58-.043-.946-.38-.94-.869a.88.88 0 0 1 .067-.339.327.327 0 0 1 .024-.046c.14-.273.442-.437.865-.46.518-.021.739-.03.838-.202.07-.129.077-.343.09-.716a1.25 1.25 0 0 1 .123-.529.777.777 0 0 1 .702-.443c.485-.01.843.37.882.935.061.892.061.892 1.008.966.535.04.871.374.847.953Zm-34.267-.12a.867.867 0 0 1-.105.441c-.143.253-.426.407-.823.424-.514.02-1.03 0-1.543 0-.513 0-1.03.018-1.543 0-.567-.027-.943-.4-.93-.879a.843.843 0 0 1 .074-.328c0-.014.014-.026.022-.04.153-.276.46-.449.877-.46 1.008-.01 2.018-.01 3.027 0 .606.013.94.327.944.842Z"/>
  </g>
  <defs>
    <clipPath id="a">
      <path d="M0 0h59v50H0z"/>
    </clipPath>
  </defs>
</svg>
