<svg xmlns="http://www.w3.org/2000/svg" width="61" height="47" fill="currentColor" viewBox="0 0 61 47">
  <g clip-path="url(#a)">
    <path d="M47.484 3.841c-.085.515-.158 1.032-.26 1.542-.074.36.09.566.367.76.568.398 1.13.806 1.68 1.232.876.682.82 1.461-.155 1.945-1.02.508-2.057.98-3.095 1.453-.605.274-1.18.24-1.476-.446-.296-.686.054-1.114.668-1.397.523-.247 1.047-.5 1.683-.807-.478-.356-.868-.668-1.269-.942a1.19 1.19 0 0 1-.512-1.306c.163-.891.29-1.798.459-2.86-.913.559-1.71 1.007-2.462 1.517-.64.432-1.172.37-1.721-.14-.446-.413-.931-.778-1.46-1.215-.284.943-.54 1.783-.793 2.64-.196.646-.597 1.043-1.296.845-.7-.199-.824-.762-.637-1.406.392-1.337.773-2.674 1.202-3.993.314-.969.998-1.15 1.793-.51.585.47 1.17.942 1.716 1.457.347.328.626.332 1.017.078C43.982 1.608 45.06.971 46.12.305c.423-.265.844-.445 1.32-.16.521.318.504.815.428 1.337-.062.445-.11.88-.163 1.32-.191.324.105.745-.22 1.04Zm5.219 24.644a1.764 1.764 0 0 0-1.325-.624h-2.976c-1.033 0-1.873.954-1.873 2.133a2.282 2.282 0 0 0 .548 1.508 1.767 1.767 0 0 0 1.336.624h2.98c1.036 0 1.873-.954 1.873-2.132a2.283 2.283 0 0 0-.563-1.509Zm-1.926 2.78h-1.78c-.617 0-1.114-.57-1.114-1.271 0-.327.115-.643.327-.892a1.054 1.054 0 0 1 .79-.372h1.782c.616 0 1.113.57 1.113 1.273 0 .701-.501 1.263-1.118 1.263Zm-18.019-2.78a1.758 1.758 0 0 0-1.322-.624h-2.983c-1.033 0-1.873.954-1.873 2.133-.006.553.19 1.089.55 1.508a1.76 1.76 0 0 0 1.323.624h2.983c1.033 0 1.87-.954 1.87-2.132a2.283 2.283 0 0 0-.548-1.509Zm-1.926 2.78h-1.78c-.617 0-1.114-.57-1.114-1.271 0-.327.116-.643.328-.892a1.056 1.056 0 0 1 .79-.372h1.78c.62 0 1.114.57 1.114 1.273 0 .701-.499 1.263-1.117 1.263ZM12.54 17.27a1.769 1.769 0 0 0-1.325-.624H8.234c-1.035 0-1.873.953-1.873 2.132a2.283 2.283 0 0 0 .548 1.508 1.763 1.763 0 0 0 1.325.624h2.99c1.033 0 1.872-.953 1.872-2.132a2.283 2.283 0 0 0-.556-1.508Zm-1.926 2.78H8.833c-.617 0-1.113-.57-1.113-1.272a1.357 1.357 0 0 1 .327-.891 1.055 1.055 0 0 1 .79-.372h1.781c.617 0 1.113.568 1.113 1.272 0 .704-.507 1.263-1.117 1.263Z"/>
    <path d="M59.394 35.11a1.17 1.17 0 0 0-.501-.513c-1.182-.463-1.412-1.36-1.322-2.544.164-2.18-.63-4.042-2.205-5.548-.327-.314-.367-.649-.367-1.045v-7.183c-.013-3.828-2.571-6.368-6.407-6.368-4.034 0-8.066-.02-12.1.015-.71 0-.89-.207-.868-.89.053-1.418.026-2.84.013-4.259C35.599 3.186 33.05.597 29.474.581a2121.01 2121.01 0 0 0-18.19 0C7.604.595 5.05 3.188 5.05 6.865v7.265c0 .325.053.655-.243.925-1.926 1.751-2.53 3.988-2.34 6.503.045.598-.062 1.034-.7 1.317a2.133 2.133 0 0 0-1.112 1.039c-.134.403-.354.768-.506 1.165-.65 2.197.89 4.38 3.278 4.538.616.043.805.223.774.827-.04.891-.08 1.769.13 2.64.075.236.182.461.318.669a2.923 2.923 0 0 0 2.182 1.029c1.36.02 2.725.031 4.085 0 1.516-.038 2.578-1.145 2.618-2.674.016-.64.02-1.279 0-1.918 0-.397.145-.546.536-.544h7.505c.379 0 .506.156.412.51-.242.892-.176 1.828-.151 2.741.016.61-.13.98-.71 1.317-1.352.786-1.92 2.05-1.744 3.603.165 1.459 1.292 2.658 2.71 3.074.479.14 1.178-.222 1.407.372.18.46.047 1.043.051 1.56a2.478 2.478 0 0 0 0 .5c.154.68-.142.819-.781.817-4.422-.027-8.84-.014-13.262-.014-1.114 0-1.61.292-1.635.979-.024.686.475 1.027 1.66 1.027h47.872c.585-.047.941-.384.961-.956.023-.626-.358-.974-.973-1.032a8.347 8.347 0 0 0-1.082 0c-.343.014-.496-.078-.465-.472a12.1 12.1 0 0 0 .011-1.836c-.044-.622.127-.858.808-.891 1.392-.047 2.407-.789 3.03-2.026.664-1.32.412-2.59-.3-3.81Zm-3.807-3.536c.049 2.065.049 2.063-2.004 2.063h-28.13c-1.636 0-1.611 0-1.638-1.682-.022-1.308.307-2.487 1.138-3.492a4.924 4.924 0 0 1 3.925-1.891c7.23 0 14.47-.018 21.695 0a5.034 5.034 0 0 1 5.014 5v.002ZM39.72 13.912h8.927c2.652 0 4.34 1.666 4.357 4.313.014 2.006 0 4.01 0 6.016 0 .537-.089.787-.701.566a5.982 5.982 0 0 0-2.06-.247H29.217a6.93 6.93 0 0 0-2.226.274c-.457.151-.595.01-.592-.446.015-2.199-.054-4.4.033-6.595.091-2.286 1.806-3.857 4.099-3.872 3.067-.022 6.127-.01 9.19-.01ZM11.537 31.917c-.031.577-.263.875-.855.873H7.024c-.545 0-.808-.29-.832-.82v-.082c-.165-2.244-.165-2.244 2.066-2.244h1.164c2.246-.002 2.246-.004 2.115 2.273Zm-7.4-4.28c-.608 0-1.243.05-1.657-.546-.111-.669-.427-1.337-.167-2.032.41-.724 1.114-.74 1.813-.74h17.013c.332.013.665-.008.993-.064a.873.873 0 0 0 .71-.912.892.892 0 0 0-.739-.969 4.611 4.611 0 0 0-.913-.056H5.844c-1.387 0-1.373 0-1.391-1.428 0-.927.042-1.84.467-2.674.982-1.942 2.565-2.96 4.74-2.972 3.865-.02 7.73 0 11.593 0 .25.014.501.006.75-.024a.988.988 0 0 0 0-1.959c-.25-.028-.5-.034-.75-.02H10.495c-.975 0-1.95-.027-2.894.285-.396.134-.561.014-.557-.414.014-2.228-.053-4.456.04-6.684.094-2.228 1.74-3.801 3.965-3.817 6.198-.038 12.399-.013 18.6-.01 1.177 0 2.125.538 2.976 1.298l.572.815c.808 2.213.314 4.51.445 6.765.022.392-.223.445-.534.445H30.69c-3.662 0-6.247 2.572-6.274 6.239-.018 2.45 0 4.902 0 7.352 0 .938-1.173 2.14-2.086 2.14l-18.193-.018Zm26.731 15.852c-.011.424-.314.633-.73.635H26.31c-.508 0-.715-.33-.766-.809-.24-2.335-.245-2.332 2.057-2.332h.668c.223 0 .445-.016.668 0 .628.05 1.534-.301 1.821.149.398.635.136 1.553.11 2.357Zm15.005.649c-2.057-.02-4.114 0-6.17 0h-6.17c-.488 0-.701-.105-.65-.653a14.29 14.29 0 0 0 0-1.919c-.016-.423.131-.597.57-.597 4.167.01 8.336.01 12.505 0 .46 0 .568.2.557.606a15.705 15.705 0 0 0 0 1.916c.064.555-.159.653-.642.647Zm8-2.491c-.034.55 0 1.114-.016 1.662-.016.548-.298.817-.84.817h-3.655c-.59 0-.817-.307-.848-.89-.125-2.269-.136-2.267 2.126-2.267h.581c.668 0 1.336.023 2.004 0 .505-.026.679.176.648.678Zm4.183-4.218a1.63 1.63 0 0 1-1.42 1.51 6.14 6.14 0 0 1-.835.027H23.675a6.954 6.954 0 0 1-.915-.026 1.63 1.63 0 0 1-1.407-1.527 1.608 1.608 0 0 1 1.218-1.675c.353-.07.713-.1 1.073-.09H55.87c.304-.01.608.012.908.067a1.608 1.608 0 0 1 1.278 1.714Z"/>
  </g>
  <defs>
    <clipPath id="a">
      <path d="M0 0h61v47H0z"/>
    </clipPath>
  </defs>
</svg>
