<svg xmlns="http://www.w3.org/2000/svg" width="66" height="66" fill="currentColor" viewBox="0 0 66 66">
  <g clip-path="url(#a)">
    <path d="M66 0H0v66h66V0Z"/>
    <path d="M54.818 19.063c-.095-.117-.19-.235-.284-.357l.235-.124c.095-.05.184-.097.272-.141 2.586-1.26 4.213-4.125 3.936-6.932-.307-3.061-2.434-5.563-5.347-6.275-1.075-.263-2.163-.243-3.251-.223-.518.01-1.036.019-1.552-.002-.234-.012-.238.112-.244.263l-.002.054v.006c-.046.783-.068 1.174.117 1.37.185.197.578.197 1.365.197h.278c.16 0 .32-.002.48-.004.764-.008 1.53-.016 2.278.162a5.21 5.21 0 0 1 3.942 5.734c-.291 2.243-2.172 4.172-4.426 4.443-.818.097-1.636.087-2.455.078-.437-.005-.874-.01-1.311 0-.76.02-1.18.337-1.185.935-.006.598.413.95 1.17.955.26.002.52 0 .779-.003.499-.005.998-.01 1.494.018a3.297 3.297 0 0 1 2.9 2.025c.29.697.332 1.471.118 2.195-.448 1.492-1.702 2.366-3.4 2.396a51.35 51.35 0 0 1-1 .004c-.884-.002-1.768-.004-2.651.115-4.11.549-7.7 4.41-7.912 8.557-.032.77-.032.77.71.77.24-.015.48-.015.72 0 .37.047.446-.11.46-.458.148-3.771 3.41-6.978 7.178-7.093.4-.013.8-.012 1.2-.01.726 0 1.451.002 2.178-.073 3.55-.365 5.68-4.485 3.919-7.595-.2-.354-.452-.667-.71-.987Z"/>
    <path fill-rule="evenodd" d="M38.154 48.401a.979.979 0 0 0-.218-.515.738.738 0 0 0-.068-.068c-.191-.17-.48-.246-.884-.246H24.236c-.415 0-.704.075-.893.25-.207.191-.294.501-.294.963a225.365 225.365 0 0 0 0 3.259c0 .327.045.575.148.758a.71.71 0 0 0 .15.187c.193.175.492.248.926.248h12.744c.842 0 1.16-.328 1.165-1.178V48.73a2.31 2.31 0 0 0-.028-.33Zm-2.914 2.967.025.002.055.005-.053-.005-.027-.002Zm1.093-.565c.002.19-.03.356-.152.465-.112.1-.29.128-.495.128l.535-1.835c.01.01.02.022.027.035a.37.37 0 0 1 .045.193.957.957 0 0 1-.007.117 1.118 1.118 0 0 0-.007.088c-.006.132.008.274.023.416l.004.034m0 0c.013.124.026.246.027.36l-.027-.36Zm-10.887.91c-.208 0-.351-.02-.428-.112-.052-.07-.07-.18-.052-.348a3.15 3.15 0 0 0-.01-.526c-.023-.32-.046-.63.102-.807.162-.196.526-.158.887-.12.15.015.3.031.435.03.948-.008 1.896-.005 2.845-.003l1.425.003c.578 0 1.156 0 1.735.002 1.158.002 2.316.004 3.475-.002.18 0 .312.017.389.09l-10.803 1.794Z" clip-rule="evenodd"/>
    <path fill-rule="evenodd" d="M55.222 34.756c.052 1.828-1.45 3.307-3.45 3.36-.789.02-1.579.014-2.368.008-.3-.002-.6-.005-.9-.005-.065.194.036.318.128.43l.058.074c1.32 1.835 2 3.856 2.223 6.13.197 1.995.475 3.983.752 5.971.23 1.65.461 3.3.646 4.954.14 1.266.093 2.557.045 3.844l-.021.584c-.03.873-.683 1.327-1.425 1.65h-4.658c-1.087-.278-1.586-.903-1.612-2.056a65.27 65.27 0 0 1-.003-1.328v-.002l.003-.663c0-.366-.146-.553-.526-.54h-26.5c-1.023 0-1.023 0-1.023 1.038 0 .166 0 .332.002.499.002.332.004.664-.002.996-.027 1.153-.526 1.786-1.613 2.056H10.32c-1.094-.41-1.45-1.207-1.494-2.358-.104-2.666.256-5.284.617-7.903.09-.651.18-1.303.263-1.955.168-1.328.347-2.655.526-3.982.142-1.05.283-2.1.42-3.151.05-.514.214-1.01.48-1.453.395-.634.776-1.275 1.173-1.941l.001-.003.474-.793.042-.07h-.084a24.131 24.131 0 0 1-.185-.009h-.001a7.242 7.242 0 0 0-.374-.013 26.893 26.893 0 0 0-1.178.001c-.679.01-1.357.022-2.034-.056-1.742-.201-3.033-1.67-2.964-3.353a3.311 3.311 0 0 1 3.19-3.207 29.4 29.4 0 0 1 1.455-.013c.329.002.658.005.986 0 .387-.006.65.197.938.552l.098.128c-.005-.036-.012-.072-.018-.106l-.005-.03-.005-.027c-.362-2.074-.698-4-1.038-5.925-.54-3.081 1.223-6.253 4.162-7.328 1.393-.51 2.8-.972 4.204-1.434.816-.268 1.632-.536 2.446-.813.26-.094.359-.05.43.202.094.375.216.743.365 1.1.157.347.009.427-.287.527a514.5 514.5 0 0 0-4.2 1.392h-.002l-1.728.578c-2.668.888-3.94 2.962-3.466 5.717a1195.29 1195.29 0 0 0 1.695 9.621l.16.895a1.943 1.943 0 0 1-.271 1.48 65.54 65.54 0 0 0-1.164 1.925c-.173.294-.347.59-.526.89l-.042.07h34.407c-.1-.306-.273-.572-.444-.837-.072-.112-.145-.224-.211-.338a93.277 93.277 0 0 0-1.166-1.943 1.105 1.105 0 0 1 0-1.247 1188.2 1188.2 0 0 0 2.675-4.457 1.129 1.129 0 0 1 1.096-.593c.43.01.862.007 1.293.003.216-.002.431-.003.647-.003 2.023.01 3.49 1.36 3.545 3.26Zm-5.295-1.132c-.444.762-.895 1.52-1.36 2.27-.168.267-.113.346.197.336.34-.006.685-.004 1.03-.002l.518.002v-.018c.175 0 .35.003.526.007.396.008.792.016 1.186-.017a1.427 1.427 0 0 0 1.307-1.451 1.468 1.468 0 0 0-1.413-1.36c-.268-.01-.538-.008-.81-.006a20.12 20.12 0 0 1-.737-.003.43.43 0 0 0-.444.242Zm-37.461 2.61c-.356-.01-.712-.007-1.068-.004-.179.002-.357.004-.535.004-.166 0-.332.002-.498.004-.332.005-.664.009-.995-.004-.871-.04-1.512-.69-1.482-1.468.03-.78.69-1.274 1.518-1.387 1.26-.172 2.14.178 2.597 1.432.117.31.309.593.496.871.05.073.1.146.147.219.16.233.15.342-.18.333Zm6.546 12.865-6.99-2.546-.001-.002-.11.754c-.047.315-.09.615-.133.918-.02.144-.055.299-.09.454-.088.377-.175.757-.03.998.158.264.54.288.924.313.177.012.354.023.51.058.008.001.015.004.022.006a906.012 906.012 0 0 0 5.694 1.044c.026.005.056.014.088.022.14.038.317.086.33-.103.038-.484.023-.972.008-1.462l-.008-.306c-.003-.09-.083-.112-.159-.132a.72.72 0 0 1-.055-.016Zm-4.861 10.78c.26.007.403-.03.39-.35l-.007-.002a27.581 27.581 0 0 1 .01-2.156c.01-.317-.131-.355-.395-.355-.996.013-1.99.016-2.987 0-.296-.004-.43.056-.418.39.023.699.02 1.399 0 2.099-.007.284.07.388.367.374.329-.013.654-.009.984-.005a38.435 38.435 0 0 0 1.019 0c.345-.003.692-.007 1.037.005Zm-2.682-4.736c6.372-.007 12.746-.01 19.122-.01h19.067l.128-.003c.087-.002.173-.004.26.003.24.017.315-.056.275-.316a62.504 62.504 0 0 1-.384-2.851c-.034-.305-.16-.304-.396-.26-1.091.2-2.182.4-3.272.598l-.003.001c-1.577.287-3.153.575-4.73.867-1.011.186-1.47-.174-1.47-1.21v-3.047c0-.901.154-1.12 1-1.426l6.775-2.444c1.09-.398 1.09-.402.998-1.498l-.005-.065c-.042-.507-.21-.655-.734-.655-11.421.009-22.842.014-34.262.014-1.34 0-1.34 0-1.495 1.32l-.003.03c-.044.368.077.502.41.622 2.3.821 4.594 1.659 6.888 2.496l.64.234c.724.267.89.496.89 1.27l.001 1.054c.001.705.003 1.41-.001 2.103-.006 1.039-.458 1.394-1.47 1.206-1.325-.245-2.65-.487-3.975-.728-1.344-.245-2.687-.49-4.03-.738-.24-.045-.356-.031-.387.265l-.01.099c-.09.829-.178 1.661-.344 2.477-.105.514.025.592.517.592Zm30.87-4.03c2.32-.431 4.643-.856 6.968-1.274l-.01-.001c.246-.051.379-.125.316-.313-.036-.256-.074-.505-.11-.748v-.002c-.088-.58-.172-1.132-.217-1.687-.037-.451-.131-.54-.575-.37-1.34.51-2.694 1-4.046 1.49h-.004c-.43.156-.859.31-1.287.467h-.002c-.73.266-1.096.398-1.272.658-.175.26-.163.646-.138 1.416v.023c.01.292.066.4.378.342Zm7.81 8.765c.262.009.343-.068.343-.336l-.007-.001a33.44 33.44 0 0 1 .009-2.148c.007-.297-.095-.367-.38-.367a83.86 83.86 0 0 1-1.586.002l-.793-.002c-.511 0-.767 0-.896.128-.13.129-.13.388-.13.908.001.17-.016.36-.033.549-.042.46-.085.926.126 1.157.223.245.653.193 1.06.143a2.82 2.82 0 0 1 .57-.033c.224 0 .435-.002.638-.005.38-.003.73-.007 1.079.005Z" clip-rule="evenodd"/>
    <path d="M31.552 30.502c.016-.475.01-.992.003-1.535-.01-.848-.021-1.76.05-2.672.173-2.204 2.047-4.074 4.27-4.21 1.118-.07 2.117-.335 2.777-1.334.37-.558.483-1.184.483-1.844v-4.154c.013-3.008 1.988-4.99 4.994-5.008.687-.004 1.374-.003 2.062-.002.957.002 1.914.003 2.872-.008.39 0 .492.108.49.493v.04c-.003.68-.005 1.02-.176 1.192-.174.175-.522.175-1.223.175h-3.991c-1.99 0-3.113 1.139-3.138 3.11-.008.56 0 1.119.007 1.679.016 1.157.032 2.314-.09 3.468-.205 1.96-2.074 3.788-4.035 3.964-.102.009-.205.016-.307.023-.54.04-1.084.078-1.58.349-.907.493-1.502 1.232-1.525 2.273-.034 1.51-.038 3.017-.041 4.522-.002.73-.004 1.46-.01 2.19l.003.204c.002.135.004.271-.002.407-.01.155.01.329.03.501.04.355.08.703-.13.872-.206.164-.54.134-.881.102a3.411 3.411 0 0 0-.52-.021c-.313.02-.406-.081-.403-.398.015-1.033.013-2.065.012-3.218l-.001-1.16Zm-6.987 3.833c-.216-.008-.44-.008-.67-.008-.745 0-1.557-.001-2.357-.26-1.851-.591-3.212-2.435-3.231-4.442-.02-1.982 1.334-3.864 3.187-4.476a7.272 7.272 0 0 1 1.737-.296 2.785 2.785 0 0 0 2.613-2.61c.094-1.582.593-2.946 1.893-3.946a4.616 4.616 0 0 1 2.713-.973 37.24 37.24 0 0 1 1.471-.014c.398.001.794.003 1.189-.006.267 0 .336.08.348.343v.023c.038.761.056 1.143-.126 1.334-.182.193-.567.193-1.34.193l-.46-.003a29.13 29.13 0 0 0-.925.003c-1.508.047-2.636 1.036-2.791 2.54-.126 1.213-.34 2.37-1.174 3.323a4.653 4.653 0 0 1-3.261 1.665c-.627.05-1.245.108-1.806.444a2.827 2.827 0 0 0-1.3 3.046c.284 1.214 1.25 2.104 2.48 2.168 1.186.062 2.372.049 3.546.035.387 0 .593.057.53.504-.023.163-.003.346.018.526.034.312.068.615-.124.797-.187.18-.508.143-.832.107a3.148 3.148 0 0 0-.455-.03c-.179.016-.361.015-.612.014l-.261-.001Zm7.698 5.675h-.002c-2.265-.001-4.53-.003-6.794.014-.445 0-.586-.13-.534-.554a2.374 2.374 0 0 0-.02-.506c-.034-.31-.067-.614.116-.76.206-.164.552-.134.893-.105.133.011.264.023.387.023 5.652 0 11.304 0 16.956-.013.483 0 .615.107.602.592l-.003.08c-.018.6-.027.907-.185 1.063-.164.162-.488.162-1.147.162l-8.145.006c-.708 0-1.416 0-2.124-.002Zm-12.555 0c-.216 0-.431 0-.646-.002a46.362 46.362 0 0 0-1.292.003c-.296.01-.415-.06-.425-.39l-.001-.029c-.05-1.478-.05-1.478 1.458-1.478l.778.001c.7.002 1.4.004 2.1-.008.297 0 .437.053.41.386a6.534 6.534 0 0 0 0 1.105c.034.366-.123.427-.445.415a44.88 44.88 0 0 0-1.322-.005l-.615.003Z"/>
  </g>
  <defs>
    <clipPath id="a">
      <path d="M0 0h66v66H0z"/>
    </clipPath>
  </defs>
</svg>
