<svg xmlns="http://www.w3.org/2000/svg" width="60" height="52" fill="currentColor" viewBox="0 0 60 52">
  <g clip-path="url(#a)">
    <path d="M34.926 29.838c-.099-2.778-2.368-4.961-5.075-4.88-2.769.081-4.973 2.354-4.904 5.055.07 2.781 2.373 4.997 5.106 4.915 2.733-.083 4.966-2.402 4.873-5.09Zm0 0c-.099-2.778-2.368-4.961-5.075-4.88-2.769.081-4.973 2.354-4.904 5.055.07 2.781 2.373 4.997 5.106 4.915 2.733-.083 4.966-2.402 4.873-5.09Zm0 0c-.099-2.778-2.368-4.961-5.075-4.88-2.769.081-4.973 2.354-4.904 5.055.07 2.781 2.373 4.997 5.106 4.915 2.733-.083 4.966-2.402 4.873-5.09Zm0 0c-.099-2.778-2.368-4.961-5.075-4.88-2.769.081-4.973 2.354-4.904 5.055.07 2.781 2.373 4.997 5.106 4.915 2.733-.083 4.966-2.402 4.873-5.09Zm0 0c-.099-2.778-2.368-4.961-5.075-4.88-2.769.081-4.973 2.354-4.904 5.055.07 2.781 2.373 4.997 5.106 4.915 2.733-.083 4.966-2.402 4.873-5.09Zm0 0c-.099-2.778-2.368-4.961-5.075-4.88-2.769.081-4.973 2.354-4.904 5.055.07 2.781 2.373 4.997 5.106 4.915 2.733-.083 4.966-2.402 4.873-5.09Zm0 0c-.099-2.778-2.368-4.961-5.075-4.88-2.769.081-4.973 2.354-4.904 5.055.07 2.781 2.373 4.997 5.106 4.915 2.733-.083 4.966-2.402 4.873-5.09Zm0 0c-.099-2.778-2.368-4.961-5.075-4.88-2.769.081-4.973 2.354-4.904 5.055.07 2.781 2.373 4.997 5.106 4.915 2.733-.083 4.966-2.402 4.873-5.09Zm-5.012-17.823a17.93 17.93 0 0 0-17.935 17.92c-.03 9.789 8.069 17.94 17.882 17.959 9.011.016 17.987-6.98 17.984-17.762.002-10.2-7.825-18.115-17.931-18.117Zm3.531 9.504c.156-2.326.312-4.652.46-7.027 3.97 1.093 7.074 3.31 9.348 6.687.172.255.122.339-.143.444A870.98 870.98 0 0 0 37 24.04c-.258.105-.42.048-.605-.156a8.165 8.165 0 0 0-2.669-1.921.393.393 0 0 1-.281-.444Zm-7.483-6.991c.07.97.14 1.933.205 2.895.086 1.32.156 2.64.256 3.957a.534.534 0 0 1-.36.625 8.49 8.49 0 0 0-2.571 1.874c-.157.166-.296.292-.549.19-2.156-.863-4.316-1.72-6.48-2.575 1.709-3.148 5.667-6.048 9.5-6.966Zm-8.547 25.288c-2.03-2.477-3.265-5.824-3.418-9.356-.062-1.45-.059-1.462 1.315-1.114 1.787.453 3.566.937 5.353 1.386.264.067.376.165.41.452a8.176 8.176 0 0 0 1.028 3.124.468.468 0 0 1-.056.624 449.645 449.645 0 0 0-4.05 4.9c-.247.3-.348.27-.582-.016Zm17.892 5.153c-1.763.61-3.614.927-5.48.937a16.463 16.463 0 0 1-5.267-.946c-.355-.127-.456-.219-.22-.58a318.813 318.813 0 0 0 3.35-5.258c.173-.278.348-.36.659-.3 1.053.21 2.136.21 3.19 0 .32-.064.482.047.65.313 1.094 1.744 2.2 3.479 3.322 5.206.231.347.195.484-.204.622v.006Zm5.032-2.95a24.75 24.75 0 0 1-2.365 1.702c-.312.197-.442.122-.624-.164a616.02 616.02 0 0 0-3.532-5.56c-.68-1.063-1.388-1.372-2.616-1.14a6.773 6.773 0 0 1-2.499.007c-1.282-.236-1.964.05-2.664 1.146-1.162 1.818-2.33 3.631-3.469 5.466-.242.389-.414.412-.792.173a26.359 26.359 0 0 1-2.308-1.677c-.356-.286-.312-.468-.04-.78 1.383-1.636 2.739-3.291 4.104-4.94.854-1.034.926-1.738.286-2.933a7.027 7.027 0 0 1-.792-2.54c-.114-.992-.65-1.647-1.626-1.903-2.235-.585-4.47-1.17-6.716-1.736-.33-.083-.437-.156-.348-.533.24-.98.543-1.943.909-2.884.156-.425.336-.419.709-.267 2.06.823 4.122 1.63 6.178 2.436 1.195.468 1.887.312 2.777-.625a6.695 6.695 0 0 1 2.112-1.53c1.007-.456 1.463-1.226 1.39-2.324-.147-2.233-.277-4.468-.448-6.698-.038-.468.075-.65.556-.673a31.896 31.896 0 0 1 2.917 0c.406.02.51.181.469.578-.107 1.182-.169 2.368-.25 3.553h.01l-.213 3.262c-.071 1.086.382 1.848 1.36 2.285a6.994 6.994 0 0 1 2.2 1.605c.797.85 1.56 1.025 2.634.601 2.094-.821 4.192-1.64 6.27-2.498.424-.174.553-.072.699.303.362.92.661 1.865.896 2.826.092.392 0 .49-.36.58-2.221.559-4.436 1.143-6.652 1.717-.976.257-1.553.889-1.662 1.874a7.318 7.318 0 0 1-.858 2.702c-.557 1.046-.473 1.807.292 2.744 1.375 1.665 2.743 3.339 4.142 4.982.319.37.294.557-.076.857v.006Zm1.838-1.846c-1.487-1.796-2.922-3.534-4.365-5.264a.424.424 0 0 1-.053-.567 8.306 8.306 0 0 0 1.045-3.183.42.42 0 0 1 .38-.418 918.204 918.204 0 0 0 6.246-1.623c.313-.084.43-.021.44.327.124 4.008-1.147 7.54-3.693 10.722v.006ZM29.851 24.964c-2.769.082-4.973 2.354-4.904 5.055.07 2.782 2.373 4.998 5.106 4.915 2.733-.083 4.966-2.402 4.873-5.09-.099-2.784-2.368-4.967-5.075-4.886v.006Zm5.075 4.88c-.099-2.778-2.368-4.96-5.075-4.88-2.769.082-4.973 2.354-4.904 5.055.07 2.782 2.373 4.998 5.106 4.915 2.733-.083 4.966-2.408 4.873-5.096v.006Zm0 0c-.099-2.778-2.368-4.96-5.075-4.88-2.769.082-4.973 2.354-4.904 5.055.07 2.782 2.373 4.998 5.106 4.915 2.733-.083 4.966-2.408 4.873-5.096v.006Zm0 0c-.099-2.778-2.368-4.96-5.075-4.88-2.769.082-4.973 2.354-4.904 5.055.07 2.782 2.373 4.998 5.106 4.915 2.733-.083 4.966-2.408 4.873-5.096v.006Zm0 0c-.099-2.778-2.368-4.96-5.075-4.88-2.769.082-4.973 2.354-4.904 5.055.07 2.782 2.373 4.998 5.106 4.915 2.733-.083 4.966-2.408 4.873-5.096v.006Zm0 0c-.099-2.778-2.368-4.96-5.075-4.88-2.769.082-4.973 2.354-4.904 5.055.07 2.782 2.373 4.998 5.106 4.915 2.733-.083 4.966-2.408 4.873-5.096v.006Zm0 0c-.099-2.778-2.368-4.96-5.075-4.88-2.769.082-4.973 2.354-4.904 5.055.07 2.782 2.373 4.998 5.106 4.915 2.733-.083 4.966-2.408 4.873-5.096v.006Zm0 0c-.099-2.778-2.368-4.96-5.075-4.88-2.769.082-4.973 2.354-4.904 5.055.07 2.782 2.373 4.998 5.106 4.915 2.733-.083 4.966-2.408 4.873-5.096v.006Zm0 0c-.099-2.778-2.368-4.96-5.075-4.88-2.769.082-4.973 2.354-4.904 5.055.07 2.782 2.373 4.998 5.106 4.915 2.733-.083 4.966-2.408 4.873-5.096v.006Zm0 0c-.099-2.778-2.368-4.96-5.075-4.88-2.769.082-4.973 2.354-4.904 5.055.07 2.782 2.373 4.998 5.106 4.915 2.733-.083 4.966-2.408 4.873-5.096v.006Zm0 0c-.099-2.778-2.368-4.96-5.075-4.88-2.769.082-4.973 2.354-4.904 5.055.07 2.782 2.373 4.998 5.106 4.915 2.733-.083 4.966-2.408 4.873-5.096v.006Zm0 0c-.099-2.778-2.368-4.96-5.075-4.88-2.769.082-4.973 2.354-4.904 5.055.07 2.782 2.373 4.998 5.106 4.915 2.733-.083 4.966-2.408 4.873-5.096v.006Zm0 0c-.099-2.778-2.368-4.96-5.075-4.88-2.769.082-4.973 2.354-4.904 5.055.07 2.782 2.373 4.998 5.106 4.915 2.733-.083 4.966-2.408 4.873-5.096v.006Zm-5.012-17.829a17.93 17.93 0 0 0-17.935 17.92c-.03 9.789 8.069 17.94 17.882 17.959 9.011.016 17.987-6.98 17.984-17.762.002-10.2-7.825-18.115-17.931-18.117Zm3.531 9.504c.156-2.326.312-4.652.46-7.027 3.97 1.093 7.074 3.31 9.348 6.687.172.255.122.339-.143.444A870.98 870.98 0 0 0 37 24.04c-.258.105-.42.048-.605-.156a8.165 8.165 0 0 0-2.669-1.921.393.393 0 0 1-.281-.444Zm-7.483-6.991c.07.97.14 1.933.205 2.895.086 1.32.156 2.64.256 3.957a.534.534 0 0 1-.36.625 8.49 8.49 0 0 0-2.571 1.874c-.157.166-.296.292-.549.19-2.156-.863-4.316-1.72-6.48-2.575 1.709-3.148 5.667-6.048 9.5-6.966Zm-8.547 25.288c-2.03-2.477-3.265-5.824-3.418-9.356-.062-1.45-.059-1.462 1.315-1.114 1.787.453 3.566.937 5.353 1.386.264.067.376.165.41.452a8.176 8.176 0 0 0 1.028 3.124.468.468 0 0 1-.056.624 449.645 449.645 0 0 0-4.05 4.9c-.247.3-.348.27-.582-.016Zm17.892 5.153c-1.763.61-3.614.927-5.48.937a16.463 16.463 0 0 1-5.267-.946c-.355-.127-.456-.219-.22-.58a318.813 318.813 0 0 0 3.35-5.258c.173-.278.348-.36.659-.3 1.053.21 2.136.21 3.19 0 .32-.064.482.047.65.313 1.094 1.744 2.2 3.479 3.322 5.206.231.347.195.484-.204.622v.006Zm5.032-2.95a24.75 24.75 0 0 1-2.365 1.702c-.312.197-.442.122-.624-.164a616.02 616.02 0 0 0-3.532-5.56c-.68-1.063-1.388-1.372-2.616-1.14a6.773 6.773 0 0 1-2.499.007c-1.282-.236-1.964.05-2.664 1.146-1.162 1.818-2.33 3.631-3.469 5.466-.242.389-.414.412-.792.173a26.359 26.359 0 0 1-2.308-1.677c-.356-.286-.312-.468-.04-.78 1.383-1.636 2.739-3.291 4.104-4.94.854-1.034.926-1.738.286-2.933a7.027 7.027 0 0 1-.792-2.54c-.114-.992-.65-1.647-1.626-1.903-2.235-.585-4.47-1.17-6.716-1.736-.33-.083-.437-.156-.348-.533.24-.98.543-1.943.909-2.884.156-.425.336-.419.709-.267 2.06.823 4.122 1.63 6.178 2.436 1.195.468 1.887.312 2.777-.625a6.695 6.695 0 0 1 2.112-1.53c1.007-.456 1.463-1.226 1.39-2.324-.147-2.233-.277-4.468-.448-6.698-.038-.468.075-.65.556-.673a31.896 31.896 0 0 1 2.917 0c.406.02.51.181.469.578-.107 1.182-.169 2.368-.25 3.553h.01l-.213 3.262c-.071 1.086.382 1.848 1.36 2.285a6.994 6.994 0 0 1 2.2 1.605c.797.85 1.56 1.025 2.634.601 2.094-.821 4.192-1.64 6.27-2.498.424-.174.553-.072.699.303.362.92.661 1.865.896 2.826.092.392 0 .49-.36.58-2.221.559-4.436 1.143-6.652 1.717-.976.257-1.553.889-1.662 1.874a7.318 7.318 0 0 1-.858 2.702c-.557 1.046-.473 1.807.292 2.744 1.375 1.665 2.743 3.339 4.142 4.982.319.37.294.557-.076.857v.006Zm1.838-1.846c-1.487-1.796-2.922-3.534-4.365-5.264a.424.424 0 0 1-.053-.567 8.306 8.306 0 0 0 1.045-3.183.42.42 0 0 1 .38-.418 918.204 918.204 0 0 0 6.246-1.623c.313-.084.43-.021.44.327.124 4.008-1.147 7.54-3.693 10.722v.006ZM29.851 24.964c-2.769.082-4.973 2.354-4.904 5.055.07 2.782 2.373 4.998 5.106 4.915 2.733-.083 4.966-2.402 4.873-5.09-.099-2.784-2.368-4.967-5.075-4.886v.006Zm5.075 4.88c-.099-2.778-2.368-4.96-5.075-4.88-2.769.082-4.973 2.354-4.904 5.055.07 2.782 2.373 4.998 5.106 4.915 2.733-.083 4.966-2.408 4.873-5.096v.006Zm0 0c-.099-2.778-2.368-4.96-5.075-4.88-2.769.082-4.973 2.354-4.904 5.055.07 2.782 2.373 4.998 5.106 4.915 2.733-.083 4.966-2.408 4.873-5.096v.006Zm0 0c-.099-2.778-2.368-4.96-5.075-4.88-2.769.082-4.973 2.354-4.904 5.055.07 2.782 2.373 4.998 5.106 4.915 2.733-.083 4.966-2.408 4.873-5.096v.006Zm0 0c-.099-2.778-2.368-4.96-5.075-4.88-2.769.082-4.973 2.354-4.904 5.055.07 2.782 2.373 4.998 5.106 4.915 2.733-.083 4.966-2.408 4.873-5.096v.006Zm0 0c-.099-2.778-2.368-4.96-5.075-4.88-2.769.082-4.973 2.354-4.904 5.055.07 2.782 2.373 4.998 5.106 4.915 2.733-.083 4.966-2.408 4.873-5.096v.006Zm0 0c-.099-2.778-2.368-4.96-5.075-4.88-2.769.082-4.973 2.354-4.904 5.055.07 2.782 2.373 4.998 5.106 4.915 2.733-.083 4.966-2.408 4.873-5.096v.006Zm0 0c-.099-2.778-2.368-4.96-5.075-4.88-2.769.082-4.973 2.354-4.904 5.055.07 2.782 2.373 4.998 5.106 4.915 2.733-.083 4.966-2.408 4.873-5.096v.006Zm0 0c-.099-2.778-2.368-4.96-5.075-4.88-2.769.082-4.973 2.354-4.904 5.055.07 2.782 2.373 4.998 5.106 4.915 2.733-.083 4.966-2.408 4.873-5.096v.006Zm0 0c-.099-2.778-2.368-4.96-5.075-4.88-2.769.082-4.973 2.354-4.904 5.055.07 2.782 2.373 4.998 5.106 4.915 2.733-.083 4.966-2.408 4.873-5.096v.006Zm0 0c-.099-2.778-2.368-4.96-5.075-4.88-2.769.082-4.973 2.354-4.904 5.055.07 2.782 2.373 4.998 5.106 4.915 2.733-.083 4.966-2.408 4.873-5.096v.006Zm0 0c-.099-2.778-2.368-4.96-5.075-4.88-2.769.082-4.973 2.354-4.904 5.055.07 2.782 2.373 4.998 5.106 4.915 2.733-.083 4.966-2.408 4.873-5.096v.006Zm0 0c-.099-2.778-2.368-4.96-5.075-4.88-2.769.082-4.973 2.354-4.904 5.055.07 2.782 2.373 4.998 5.106 4.915 2.733-.083 4.966-2.408 4.873-5.096v.006Zm-5.012-17.829a17.93 17.93 0 0 0-17.935 17.92c-.03 9.789 8.069 17.94 17.882 17.959 9.011.016 17.987-6.98 17.984-17.762.002-10.2-7.825-18.115-17.931-18.117Zm3.531 9.504c.156-2.326.312-4.652.46-7.027 3.97 1.093 7.074 3.31 9.348 6.687.172.255.122.339-.143.444A870.98 870.98 0 0 0 37 24.04c-.258.105-.42.048-.605-.156a8.165 8.165 0 0 0-2.669-1.921.393.393 0 0 1-.281-.444Zm-7.483-6.991c.07.97.14 1.933.205 2.895.086 1.32.156 2.64.256 3.957a.534.534 0 0 1-.36.625 8.49 8.49 0 0 0-2.571 1.874c-.157.166-.296.292-.549.19-2.156-.863-4.316-1.72-6.48-2.575 1.709-3.148 5.667-6.048 9.5-6.966Zm-8.547 25.288c-2.03-2.477-3.265-5.824-3.418-9.356-.062-1.45-.059-1.462 1.315-1.114 1.787.453 3.566.937 5.353 1.386.264.067.376.165.41.452a8.176 8.176 0 0 0 1.028 3.124.468.468 0 0 1-.056.624 449.645 449.645 0 0 0-4.05 4.9c-.247.3-.348.27-.582-.016Zm17.892 5.153c-1.763.61-3.614.927-5.48.937a16.463 16.463 0 0 1-5.267-.946c-.355-.127-.456-.219-.22-.58a318.813 318.813 0 0 0 3.35-5.258c.173-.278.348-.36.659-.3 1.053.21 2.136.21 3.19 0 .32-.064.482.047.65.313 1.094 1.744 2.2 3.479 3.322 5.206.231.347.195.484-.204.622v.006Zm5.032-2.95a24.75 24.75 0 0 1-2.365 1.702c-.312.197-.442.122-.624-.164a616.02 616.02 0 0 0-3.532-5.56c-.68-1.063-1.388-1.372-2.616-1.14a6.773 6.773 0 0 1-2.499.007c-1.282-.236-1.964.05-2.664 1.146-1.162 1.818-2.33 3.631-3.469 5.466-.242.389-.414.412-.792.173a26.359 26.359 0 0 1-2.308-1.677c-.356-.286-.312-.468-.04-.78 1.383-1.636 2.739-3.291 4.104-4.94.854-1.034.926-1.738.286-2.933a7.027 7.027 0 0 1-.792-2.54c-.114-.992-.65-1.647-1.626-1.903-2.235-.585-4.47-1.17-6.716-1.736-.33-.083-.437-.156-.348-.533.24-.98.543-1.943.909-2.884.156-.425.336-.419.709-.267 2.06.823 4.122 1.63 6.178 2.436 1.195.468 1.887.312 2.777-.625a6.695 6.695 0 0 1 2.112-1.53c1.007-.456 1.463-1.226 1.39-2.324-.147-2.233-.277-4.468-.448-6.698-.038-.468.075-.65.556-.673a31.896 31.896 0 0 1 2.917 0c.406.02.51.181.469.578-.107 1.182-.169 2.368-.25 3.553h.01l-.213 3.262c-.071 1.086.382 1.848 1.36 2.285a6.994 6.994 0 0 1 2.2 1.605c.797.85 1.56 1.025 2.634.601 2.094-.821 4.192-1.64 6.27-2.498.424-.174.553-.072.699.303.362.92.661 1.865.896 2.826.092.392 0 .49-.36.58-2.221.559-4.436 1.143-6.652 1.717-.976.257-1.553.889-1.662 1.874a7.318 7.318 0 0 1-.858 2.702c-.557 1.046-.473 1.807.292 2.744 1.375 1.665 2.743 3.339 4.142 4.982.319.37.294.557-.076.857v.006Zm1.838-1.846c-1.487-1.796-2.922-3.534-4.365-5.264a.424.424 0 0 1-.053-.567 8.306 8.306 0 0 0 1.045-3.183.42.42 0 0 1 .38-.418 918.204 918.204 0 0 0 6.246-1.623c.313-.084.43-.021.44.327.124 4.008-1.147 7.54-3.693 10.722v.006ZM29.851 24.964c-2.769.082-4.973 2.354-4.904 5.055.07 2.782 2.373 4.998 5.106 4.915 2.733-.083 4.966-2.402 4.873-5.09-.099-2.784-2.368-4.967-5.075-4.886v.006Zm5.075 4.88c-.099-2.778-2.368-4.96-5.075-4.88-2.769.082-4.973 2.354-4.904 5.055.07 2.782 2.373 4.998 5.106 4.915 2.733-.083 4.966-2.408 4.873-5.096v.006Zm0 0c-.099-2.778-2.368-4.96-5.075-4.88-2.769.082-4.973 2.354-4.904 5.055.07 2.782 2.373 4.998 5.106 4.915 2.733-.083 4.966-2.408 4.873-5.096v.006Zm0 0c-.099-2.778-2.368-4.96-5.075-4.88-2.769.082-4.973 2.354-4.904 5.055.07 2.782 2.373 4.998 5.106 4.915 2.733-.083 4.966-2.408 4.873-5.096v.006Zm0 0c-.099-2.778-2.368-4.96-5.075-4.88-2.769.082-4.973 2.354-4.904 5.055.07 2.782 2.373 4.998 5.106 4.915 2.733-.083 4.966-2.408 4.873-5.096v.006Zm0 0c-.099-2.778-2.368-4.96-5.075-4.88-2.769.082-4.973 2.354-4.904 5.055.07 2.782 2.373 4.998 5.106 4.915 2.733-.083 4.966-2.408 4.873-5.096v.006Zm0 0c-.099-2.778-2.368-4.96-5.075-4.88-2.769.082-4.973 2.354-4.904 5.055.07 2.782 2.373 4.998 5.106 4.915 2.733-.083 4.966-2.408 4.873-5.096v.006Zm0 0c-.099-2.778-2.368-4.96-5.075-4.88-2.769.082-4.973 2.354-4.904 5.055.07 2.782 2.373 4.998 5.106 4.915 2.733-.083 4.966-2.408 4.873-5.096v.006Zm0 0c-.099-2.778-2.368-4.96-5.075-4.88-2.769.082-4.973 2.354-4.904 5.055.07 2.782 2.373 4.998 5.106 4.915 2.733-.083 4.966-2.408 4.873-5.096v.006Zm-5.012-17.829a17.93 17.93 0 0 0-17.935 17.92c-.03 9.789 8.069 17.94 17.882 17.959 9.011.016 17.987-6.98 17.984-17.762.002-10.2-7.825-18.115-17.931-18.117Zm3.531 9.504c.156-2.326.312-4.652.46-7.027 3.97 1.093 7.074 3.31 9.348 6.687.172.255.122.339-.143.444A870.98 870.98 0 0 0 37 24.04c-.258.105-.42.048-.605-.156a8.165 8.165 0 0 0-2.669-1.921.393.393 0 0 1-.281-.444Zm-7.483-6.991c.07.97.14 1.933.205 2.895.086 1.32.156 2.64.256 3.957a.534.534 0 0 1-.36.625 8.49 8.49 0 0 0-2.571 1.874c-.157.166-.296.292-.549.19-2.156-.863-4.316-1.72-6.48-2.575 1.709-3.148 5.667-6.048 9.5-6.966Zm-8.547 25.288c-2.03-2.477-3.265-5.824-3.418-9.356-.062-1.45-.059-1.462 1.315-1.114 1.787.453 3.566.937 5.353 1.386.264.067.376.165.41.452a8.176 8.176 0 0 0 1.028 3.124.468.468 0 0 1-.056.624 449.645 449.645 0 0 0-4.05 4.9c-.247.3-.348.27-.582-.016Zm17.892 5.153c-1.763.61-3.614.927-5.48.937a16.463 16.463 0 0 1-5.267-.946c-.355-.127-.456-.219-.22-.58a318.813 318.813 0 0 0 3.35-5.258c.173-.278.348-.36.659-.3 1.053.21 2.136.21 3.19 0 .32-.064.482.047.65.313 1.094 1.744 2.2 3.479 3.322 5.206.231.347.195.484-.204.622v.006Zm5.032-2.95a24.75 24.75 0 0 1-2.365 1.702c-.312.197-.442.122-.624-.164a616.02 616.02 0 0 0-3.532-5.56c-.68-1.063-1.388-1.372-2.616-1.14a6.773 6.773 0 0 1-2.499.007c-1.282-.236-1.964.05-2.664 1.146-1.162 1.818-2.33 3.631-3.469 5.466-.242.389-.414.412-.792.173a26.359 26.359 0 0 1-2.308-1.677c-.356-.286-.312-.468-.04-.78 1.383-1.636 2.739-3.291 4.104-4.94.854-1.034.926-1.738.286-2.933a7.027 7.027 0 0 1-.792-2.54c-.114-.992-.65-1.647-1.626-1.903-2.235-.585-4.47-1.17-6.716-1.736-.33-.083-.437-.156-.348-.533.24-.98.543-1.943.909-2.884.156-.425.336-.419.709-.267 2.06.823 4.122 1.63 6.178 2.436 1.195.468 1.887.312 2.777-.625a6.695 6.695 0 0 1 2.112-1.53c1.007-.456 1.463-1.226 1.39-2.324-.147-2.233-.277-4.468-.448-6.698-.038-.468.075-.65.556-.673a31.896 31.896 0 0 1 2.917 0c.406.02.51.181.469.578-.107 1.182-.169 2.368-.25 3.553h.01l-.213 3.262c-.071 1.086.382 1.848 1.36 2.285a6.994 6.994 0 0 1 2.2 1.605c.797.85 1.56 1.025 2.634.601 2.094-.821 4.192-1.64 6.27-2.498.424-.174.553-.072.699.303.362.92.661 1.865.896 2.826.092.392 0 .49-.36.58-2.221.559-4.436 1.143-6.652 1.717-.976.257-1.553.889-1.662 1.874a7.318 7.318 0 0 1-.858 2.702c-.557 1.046-.473 1.807.292 2.744 1.375 1.665 2.743 3.339 4.142 4.982.319.37.294.557-.076.857v.006Zm1.838-1.846c-1.487-1.796-2.922-3.534-4.365-5.264a.424.424 0 0 1-.053-.567 8.306 8.306 0 0 0 1.045-3.183.42.42 0 0 1 .38-.418 918.204 918.204 0 0 0 6.246-1.623c.313-.084.43-.021.44.327.124 4.008-1.147 7.54-3.693 10.722v.006ZM29.851 24.964c-2.769.082-4.973 2.354-4.904 5.055.07 2.782 2.373 4.998 5.106 4.915 2.733-.083 4.966-2.402 4.873-5.09-.099-2.784-2.368-4.967-5.075-4.886v.006Zm5.075 4.88c-.099-2.778-2.368-4.96-5.075-4.88-2.769.082-4.973 2.354-4.904 5.055.07 2.782 2.373 4.998 5.106 4.915 2.733-.083 4.966-2.408 4.873-5.096v.006Zm0 0c-.099-2.778-2.368-4.96-5.075-4.88-2.769.082-4.973 2.354-4.904 5.055.07 2.782 2.373 4.998 5.106 4.915 2.733-.083 4.966-2.408 4.873-5.096v.006Zm0 0c-.099-2.778-2.368-4.96-5.075-4.88-2.769.082-4.973 2.354-4.904 5.055.07 2.782 2.373 4.998 5.106 4.915 2.733-.083 4.966-2.408 4.873-5.096v.006Zm0 0c-.099-2.778-2.368-4.96-5.075-4.88-2.769.082-4.973 2.354-4.904 5.055.07 2.782 2.373 4.998 5.106 4.915 2.733-.083 4.966-2.408 4.873-5.096v.006Zm0 0c-.099-2.778-2.368-4.96-5.075-4.88-2.769.082-4.973 2.354-4.904 5.055.07 2.782 2.373 4.998 5.106 4.915 2.733-.083 4.966-2.408 4.873-5.096v.006Zm0 0c-.099-2.778-2.368-4.96-5.075-4.88-2.769.082-4.973 2.354-4.904 5.055.07 2.782 2.373 4.998 5.106 4.915 2.733-.083 4.966-2.408 4.873-5.096v.006Zm0 0c-.099-2.778-2.368-4.96-5.075-4.88-2.769.082-4.973 2.354-4.904 5.055.07 2.782 2.373 4.998 5.106 4.915 2.733-.083 4.966-2.408 4.873-5.096v.006Zm0 0c-.099-2.778-2.368-4.96-5.075-4.88-2.769.082-4.973 2.354-4.904 5.055.07 2.782 2.373 4.998 5.106 4.915 2.733-.083 4.966-2.408 4.873-5.096v.006Zm-5.012-17.829a17.93 17.93 0 0 0-17.935 17.92c-.03 9.789 8.069 17.94 17.882 17.959 9.011.016 17.987-6.98 17.984-17.762.002-10.2-7.825-18.115-17.931-18.117Zm3.531 9.504c.156-2.326.312-4.652.46-7.027 3.97 1.093 7.074 3.31 9.348 6.687.172.255.122.339-.143.444A870.98 870.98 0 0 0 37 24.04c-.258.105-.42.048-.605-.156a8.165 8.165 0 0 0-2.669-1.921.393.393 0 0 1-.281-.444Zm-7.483-6.991c.07.97.14 1.933.205 2.895.086 1.32.156 2.64.256 3.957a.534.534 0 0 1-.36.625 8.49 8.49 0 0 0-2.571 1.874c-.157.166-.296.292-.549.19-2.156-.863-4.316-1.72-6.48-2.575 1.709-3.148 5.667-6.048 9.5-6.966Zm-8.547 25.288c-2.03-2.477-3.265-5.824-3.418-9.356-.062-1.45-.059-1.462 1.315-1.114 1.787.453 3.566.937 5.353 1.386.264.067.376.165.41.452a8.176 8.176 0 0 0 1.028 3.124.468.468 0 0 1-.056.624 449.645 449.645 0 0 0-4.05 4.9c-.247.3-.348.27-.582-.016Zm17.892 5.153c-1.763.61-3.614.927-5.48.937a16.463 16.463 0 0 1-5.267-.946c-.355-.127-.456-.219-.22-.58a318.813 318.813 0 0 0 3.35-5.258c.173-.278.348-.36.659-.3 1.053.21 2.136.21 3.19 0 .32-.064.482.047.65.313 1.094 1.744 2.2 3.479 3.322 5.206.231.347.195.484-.204.622v.006Zm5.032-2.95a24.75 24.75 0 0 1-2.365 1.702c-.312.197-.442.122-.624-.164a616.02 616.02 0 0 0-3.532-5.56c-.68-1.063-1.388-1.372-2.616-1.14a6.773 6.773 0 0 1-2.499.007c-1.282-.236-1.964.05-2.664 1.146-1.162 1.818-2.33 3.631-3.469 5.466-.242.389-.414.412-.792.173a26.359 26.359 0 0 1-2.308-1.677c-.356-.286-.312-.468-.04-.78 1.383-1.636 2.739-3.291 4.104-4.94.854-1.034.926-1.738.286-2.933a7.027 7.027 0 0 1-.792-2.54c-.114-.992-.65-1.647-1.626-1.903-2.235-.585-4.47-1.17-6.716-1.736-.33-.083-.437-.156-.348-.533.24-.98.543-1.943.909-2.884.156-.425.336-.419.709-.267 2.06.823 4.122 1.63 6.178 2.436 1.195.468 1.887.312 2.777-.625a6.695 6.695 0 0 1 2.112-1.53c1.007-.456 1.463-1.226 1.39-2.324-.147-2.233-.277-4.468-.448-6.698-.038-.468.075-.65.556-.673a31.896 31.896 0 0 1 2.917 0c.406.02.51.181.469.578-.107 1.182-.169 2.368-.25 3.553h.01l-.213 3.262c-.071 1.086.382 1.848 1.36 2.285a6.994 6.994 0 0 1 2.2 1.605c.797.85 1.56 1.025 2.634.601 2.094-.821 4.192-1.64 6.27-2.498.424-.174.553-.072.699.303.362.92.661 1.865.896 2.826.092.392 0 .49-.36.58-2.221.559-4.436 1.143-6.652 1.717-.976.257-1.553.889-1.662 1.874a7.318 7.318 0 0 1-.858 2.702c-.557 1.046-.473 1.807.292 2.744 1.375 1.665 2.743 3.339 4.142 4.982.319.37.294.557-.076.857v.006Zm1.838-1.846c-1.487-1.796-2.922-3.534-4.365-5.264a.424.424 0 0 1-.053-.567 8.306 8.306 0 0 0 1.045-3.183.42.42 0 0 1 .38-.418 918.204 918.204 0 0 0 6.246-1.623c.313-.084.43-.021.44.327.124 4.008-1.147 7.54-3.693 10.722v.006ZM29.851 24.964c-2.769.082-4.973 2.354-4.904 5.055.07 2.782 2.373 4.998 5.106 4.915 2.733-.083 4.966-2.402 4.873-5.09-.099-2.784-2.368-4.967-5.075-4.886v.006Zm5.075 4.88c-.099-2.778-2.368-4.96-5.075-4.88-2.769.082-4.973 2.354-4.904 5.055.07 2.782 2.373 4.998 5.106 4.915 2.733-.083 4.966-2.408 4.873-5.096v.006Zm0 0c-.099-2.778-2.368-4.96-5.075-4.88-2.769.082-4.973 2.354-4.904 5.055.07 2.782 2.373 4.998 5.106 4.915 2.733-.083 4.966-2.408 4.873-5.096v.006Zm0 0c-.099-2.778-2.368-4.96-5.075-4.88-2.769.082-4.973 2.354-4.904 5.055.07 2.782 2.373 4.998 5.106 4.915 2.733-.083 4.966-2.408 4.873-5.096v.006Zm0 0c-.099-2.778-2.368-4.96-5.075-4.88-2.769.082-4.973 2.354-4.904 5.055.07 2.782 2.373 4.998 5.106 4.915 2.733-.083 4.966-2.408 4.873-5.096v.006Zm-5.012-17.829a17.93 17.93 0 0 0-17.935 17.92c-.03 9.789 8.069 17.94 17.882 17.959 9.011.016 17.987-6.98 17.984-17.762.002-10.2-7.825-18.115-17.931-18.117Zm3.531 9.504c.156-2.326.312-4.652.46-7.027 3.97 1.093 7.074 3.31 9.348 6.687.172.255.122.339-.143.444A870.98 870.98 0 0 0 37 24.04c-.258.105-.42.048-.605-.156a8.165 8.165 0 0 0-2.669-1.921.393.393 0 0 1-.281-.444Zm-7.483-6.991c.07.97.14 1.933.205 2.895.086 1.32.156 2.64.256 3.957a.534.534 0 0 1-.36.625 8.49 8.49 0 0 0-2.571 1.874c-.157.166-.296.292-.549.19-2.156-.863-4.316-1.72-6.48-2.575 1.709-3.148 5.667-6.048 9.5-6.966Zm-8.547 25.288c-2.03-2.477-3.265-5.824-3.418-9.356-.062-1.45-.059-1.462 1.315-1.114 1.787.453 3.566.937 5.353 1.386.264.067.376.165.41.452a8.176 8.176 0 0 0 1.028 3.124.468.468 0 0 1-.056.624 449.645 449.645 0 0 0-4.05 4.9c-.247.3-.348.27-.582-.016Zm17.892 5.153c-1.763.61-3.614.927-5.48.937a16.463 16.463 0 0 1-5.267-.946c-.355-.127-.456-.219-.22-.58a318.813 318.813 0 0 0 3.35-5.258c.173-.278.348-.36.659-.3 1.053.21 2.136.21 3.19 0 .32-.064.482.047.65.313 1.094 1.744 2.2 3.479 3.322 5.206.231.347.195.484-.204.622v.006Zm5.032-2.95a24.75 24.75 0 0 1-2.365 1.702c-.312.197-.442.122-.624-.164a616.02 616.02 0 0 0-3.532-5.56c-.68-1.063-1.388-1.372-2.616-1.14a6.773 6.773 0 0 1-2.499.007c-1.282-.236-1.964.05-2.664 1.146-1.162 1.818-2.33 3.631-3.469 5.466-.242.389-.414.412-.792.173a26.359 26.359 0 0 1-2.308-1.677c-.356-.286-.312-.468-.04-.78 1.383-1.636 2.739-3.291 4.104-4.94.854-1.034.926-1.738.286-2.933a7.027 7.027 0 0 1-.792-2.54c-.114-.992-.65-1.647-1.626-1.903-2.235-.585-4.47-1.17-6.716-1.736-.33-.083-.437-.156-.348-.533.24-.98.543-1.943.909-2.884.156-.425.336-.419.709-.267 2.06.823 4.122 1.63 6.178 2.436 1.195.468 1.887.312 2.777-.625a6.695 6.695 0 0 1 2.112-1.53c1.007-.456 1.463-1.226 1.39-2.324-.147-2.233-.277-4.468-.448-6.698-.038-.468.075-.65.556-.673a31.896 31.896 0 0 1 2.917 0c.406.02.51.181.469.578-.107 1.182-.169 2.368-.25 3.553h.01l-.213 3.262c-.071 1.086.382 1.848 1.36 2.285a6.994 6.994 0 0 1 2.2 1.605c.797.85 1.56 1.025 2.634.601 2.094-.821 4.192-1.64 6.27-2.498.424-.174.553-.072.699.303.362.92.661 1.865.896 2.826.092.392 0 .49-.36.58-2.221.559-4.436 1.143-6.652 1.717-.976.257-1.553.889-1.662 1.874a7.318 7.318 0 0 1-.858 2.702c-.557 1.046-.473 1.807.292 2.744 1.375 1.665 2.743 3.339 4.142 4.982.319.37.294.557-.076.857v.006Zm1.838-1.846c-1.487-1.796-2.922-3.534-4.365-5.264a.424.424 0 0 1-.053-.567 8.306 8.306 0 0 0 1.045-3.183.42.42 0 0 1 .38-.418 918.204 918.204 0 0 0 6.246-1.623c.313-.084.43-.021.44.327.124 4.008-1.147 7.54-3.693 10.722v.006ZM29.851 24.964c-2.769.082-4.973 2.354-4.904 5.055.07 2.782 2.373 4.998 5.106 4.915 2.733-.083 4.966-2.402 4.873-5.09-.099-2.784-2.368-4.967-5.075-4.886v.006Zm5.075 4.88c-.099-2.778-2.368-4.96-5.075-4.88-2.769.082-4.973 2.354-4.904 5.055.07 2.782 2.373 4.998 5.106 4.915 2.733-.083 4.966-2.408 4.873-5.096v.006Zm0 0c-.099-2.778-2.368-4.96-5.075-4.88-2.769.082-4.973 2.354-4.904 5.055.07 2.782 2.373 4.998 5.106 4.915 2.733-.083 4.966-2.408 4.873-5.096v.006Zm0 0c-.099-2.778-2.368-4.96-5.075-4.88-2.769.082-4.973 2.354-4.904 5.055.07 2.782 2.373 4.998 5.106 4.915 2.733-.083 4.966-2.408 4.873-5.096v.006Zm0 0c-.099-2.778-2.368-4.96-5.075-4.88-2.769.082-4.973 2.354-4.904 5.055.07 2.782 2.373 4.998 5.106 4.915 2.733-.083 4.966-2.408 4.873-5.096v.006Zm-5.012-17.829a17.93 17.93 0 0 0-17.935 17.92c-.03 9.789 8.069 17.94 17.882 17.959 9.011.016 17.987-6.98 17.984-17.762.002-10.2-7.825-18.115-17.931-18.117Zm3.531 9.504c.156-2.326.312-4.652.46-7.027 3.97 1.093 7.074 3.31 9.348 6.687.172.255.122.339-.143.444A870.98 870.98 0 0 0 37 24.04c-.258.105-.42.048-.605-.156a8.165 8.165 0 0 0-2.669-1.921.393.393 0 0 1-.281-.444Zm-7.483-6.991c.07.97.14 1.933.205 2.895.086 1.32.156 2.64.256 3.957a.534.534 0 0 1-.36.625 8.49 8.49 0 0 0-2.571 1.874c-.157.166-.296.292-.549.19-2.156-.863-4.316-1.72-6.48-2.575 1.709-3.148 5.667-6.048 9.5-6.966Zm-8.547 25.288c-2.03-2.477-3.265-5.824-3.418-9.356-.062-1.45-.059-1.462 1.315-1.114 1.787.453 3.566.937 5.353 1.386.264.067.376.165.41.452a8.176 8.176 0 0 0 1.028 3.124.468.468 0 0 1-.056.624 449.645 449.645 0 0 0-4.05 4.9c-.247.3-.348.27-.582-.016Zm17.892 5.153c-1.763.61-3.614.927-5.48.937a16.463 16.463 0 0 1-5.267-.946c-.355-.127-.456-.219-.22-.58a318.813 318.813 0 0 0 3.35-5.258c.173-.278.348-.36.659-.3 1.053.21 2.136.21 3.19 0 .32-.064.482.047.65.313 1.094 1.744 2.2 3.479 3.322 5.206.231.347.195.484-.204.622v.006Zm5.032-2.95a24.75 24.75 0 0 1-2.365 1.702c-.312.197-.442.122-.624-.164a616.02 616.02 0 0 0-3.532-5.56c-.68-1.063-1.388-1.372-2.616-1.14a6.773 6.773 0 0 1-2.499.007c-1.282-.236-1.964.05-2.664 1.146-1.162 1.818-2.33 3.631-3.469 5.466-.242.389-.414.412-.792.173a26.359 26.359 0 0 1-2.308-1.677c-.356-.286-.312-.468-.04-.78 1.383-1.636 2.739-3.291 4.104-4.94.854-1.034.926-1.738.286-2.933a7.027 7.027 0 0 1-.792-2.54c-.114-.992-.65-1.647-1.626-1.903-2.235-.585-4.47-1.17-6.716-1.736-.33-.083-.437-.156-.348-.533.24-.98.543-1.943.909-2.884.156-.425.336-.419.709-.267 2.06.823 4.122 1.63 6.178 2.436 1.195.468 1.887.312 2.777-.625a6.695 6.695 0 0 1 2.112-1.53c1.007-.456 1.463-1.226 1.39-2.324-.147-2.233-.277-4.468-.448-6.698-.038-.468.075-.65.556-.673a31.896 31.896 0 0 1 2.917 0c.406.02.51.181.469.578-.107 1.182-.169 2.368-.25 3.553h.01l-.213 3.262c-.071 1.086.382 1.848 1.36 2.285a6.994 6.994 0 0 1 2.2 1.605c.797.85 1.56 1.025 2.634.601 2.094-.821 4.192-1.64 6.27-2.498.424-.174.553-.072.699.303.362.92.661 1.865.896 2.826.092.392 0 .49-.36.58-2.221.559-4.436 1.143-6.652 1.717-.976.257-1.553.889-1.662 1.874a7.318 7.318 0 0 1-.858 2.702c-.557 1.046-.473 1.807.292 2.744 1.375 1.665 2.743 3.339 4.142 4.982.319.37.294.557-.076.857v.006Zm1.838-1.846c-1.487-1.796-2.922-3.534-4.365-5.264a.424.424 0 0 1-.053-.567 8.306 8.306 0 0 0 1.045-3.183.42.42 0 0 1 .38-.418 918.204 918.204 0 0 0 6.246-1.623c.313-.084.43-.021.44.327.124 4.008-1.147 7.54-3.693 10.722v.006ZM29.851 24.964c-2.769.082-4.973 2.354-4.904 5.055.07 2.782 2.373 4.998 5.106 4.915 2.733-.083 4.966-2.402 4.873-5.09-.099-2.784-2.368-4.967-5.075-4.886v.006Zm.063-12.942a17.931 17.931 0 0 0-17.935 17.913c-.03 9.789 8.069 17.94 17.882 17.959 9.011.016 17.987-6.98 17.984-17.762.002-10.2-7.825-18.115-17.931-18.117v.006Zm3.531 9.504c.156-2.327.312-4.652.46-7.028 3.97 1.093 7.074 3.31 9.348 6.687.172.255.122.34-.143.444A870.98 870.98 0 0 0 37 24.046c-.258.105-.42.049-.605-.156a8.165 8.165 0 0 0-2.669-1.927.393.393 0 0 1-.281-.444v.007Zm-7.483-6.992c.07.97.14 1.934.205 2.896.086 1.32.156 2.639.256 3.957a.533.533 0 0 1-.36.624 8.493 8.493 0 0 0-2.571 1.874c-.157.166-.296.292-.549.19-2.156-.866-4.316-1.727-6.48-2.58 1.709-3.149 5.667-6.049 9.5-6.967v.006Zm-8.547 25.282c-2.03-2.477-3.265-5.824-3.418-9.356-.062-1.45-.059-1.462 1.315-1.114 1.787.453 3.566.937 5.353 1.386.264.067.376.165.41.452a8.176 8.176 0 0 0 1.028 3.124.468.468 0 0 1-.056.624 449.645 449.645 0 0 0-4.05 4.9c-.247.3-.348.27-.582-.016Zm17.892 5.153c-1.763.61-3.614.927-5.48.937a16.463 16.463 0 0 1-5.267-.946c-.355-.127-.456-.219-.22-.58a318.813 318.813 0 0 0 3.35-5.258c.173-.278.348-.36.659-.3 1.053.21 2.136.21 3.19 0 .32-.064.482.047.65.313 1.094 1.744 2.2 3.479 3.322 5.206.231.347.195.484-.204.622v.006Zm5.032-2.95a24.75 24.75 0 0 1-2.365 1.702c-.312.197-.442.122-.624-.164a616.02 616.02 0 0 0-3.532-5.56c-.68-1.063-1.388-1.372-2.616-1.14a6.773 6.773 0 0 1-2.499.007c-1.282-.236-1.964.05-2.664 1.146-1.162 1.818-2.33 3.631-3.469 5.466-.242.389-.414.412-.792.173a26.359 26.359 0 0 1-2.308-1.677c-.356-.286-.312-.468-.04-.78 1.383-1.636 2.739-3.291 4.104-4.94.854-1.034.926-1.738.286-2.933a7.027 7.027 0 0 1-.792-2.54c-.114-.992-.65-1.647-1.626-1.903-2.235-.585-4.47-1.17-6.716-1.736-.33-.083-.437-.156-.348-.533.24-.98.543-1.943.909-2.884.156-.425.336-.419.709-.267 2.06.823 4.122 1.63 6.178 2.436 1.195.468 1.887.312 2.777-.625a6.695 6.695 0 0 1 2.112-1.53c1.007-.456 1.463-1.226 1.39-2.324-.147-2.233-.277-4.468-.448-6.698-.038-.468.075-.65.556-.673a31.896 31.896 0 0 1 2.917 0c.406.02.51.181.469.578-.107 1.182-.169 2.368-.25 3.553h.01l-.213 3.262c-.071 1.086.382 1.848 1.36 2.285a6.994 6.994 0 0 1 2.2 1.605c.797.85 1.56 1.025 2.634.601 2.094-.821 4.192-1.64 6.27-2.498.424-.174.553-.072.699.303.362.92.661 1.865.896 2.826.092.392 0 .49-.36.58-2.221.559-4.436 1.143-6.652 1.717-.976.257-1.553.889-1.662 1.874a7.318 7.318 0 0 1-.858 2.702c-.557 1.046-.473 1.807.292 2.744 1.375 1.665 2.743 3.339 4.142 4.982.319.37.294.557-.076.857v.006Zm1.838-1.846c-1.487-1.796-2.922-3.534-4.365-5.264a.424.424 0 0 1-.053-.567 8.306 8.306 0 0 0 1.045-3.183.42.42 0 0 1 .38-.418 918.204 918.204 0 0 0 6.246-1.623c.313-.084.43-.021.44.327.124 4.008-1.147 7.54-3.693 10.722v.006ZM29.851 24.964c-2.769.082-4.973 2.354-4.904 5.055.07 2.782 2.373 4.998 5.106 4.915 2.733-.083 4.966-2.402 4.873-5.09-.099-2.784-2.368-4.967-5.075-4.886v.006Zm30.003 2.62c-.156-.046-.108-.183-.117-.288a28.88 28.88 0 0 0-.875-4.997C54.223 5.202 36.334-4.191 19.685 1.822 3.96 7.513-4.559 25.77 2.515 41.871c.198.45.156.624-.263.893a4.904 4.904 0 0 0-1.94 5.787c.738 2.063 2.596 3.328 4.922 3.33h49.427c.137 0 .273 0 .409-.008a4.998 4.998 0 0 0 4.571-3.559c.053-.173.016-.395.213-.514v-1.632c-.088-1.433-.781-2.53-1.893-3.387-.615-.468-.625-.468-.323-1.168a31 31 0 0 0 1.61-4.988c.325-1.362.468-2.745.6-4.132v-.468c-.091-.093-.055-.207-.06-.313v-.031c.016-.119-.04-.248.061-.351v-.469a1.188 1.188 0 0 1 0-.818v-1.285c-.09-.092-.056-.205-.058-.313v-.039c.014-.115-.039-.243.061-.345l.002-.476Zm-2.012 19.598c-.176 1.57-1.429 2.695-3.069 2.703-3.173.014-6.349 0-9.527 0h-5.944c5.31-2.716 9.138-6.771 11.203-12.385 2.064-5.614 1.825-11.186-.598-16.638C46.129 12.368 37.07 7.151 27.808 8.091A22.023 22.023 0 0 0 8.553 24.986c-2.274 9.76 2.533 20.434 12.026 24.904H10.3c-1.752 0-3.506.03-5.258-.01-2.324-.05-3.734-2.386-2.679-4.386.625-1.173 1.846-1.748 3.31-1.52.372.058.703.038.985-.209a.989.989 0 0 0-.374-1.688 2.525 2.525 0 0 0-1.036-.14c-.392.034-.573-.121-.732-.47a28.38 28.38 0 0 1-2.463-10.134c-.02-.336.098-.394.382-.386.469.016.937.014 1.406 0 .726-.017 1.184-.425 1.17-1.026-.014-.601-.452-.954-1.155-.967a30.897 30.897 0 0 0-1.46 0c-.289.01-.362-.096-.347-.376a28.107 28.107 0 0 1 3.058-11.4c.157-.295.274-.284.519-.13.426.27.868.519 1.313.755.583.312 1.122.168 1.406-.344.272-.482.128-1.018-.393-1.354a11.517 11.517 0 0 0-1.21-.7c-.377-.184-.441-.34-.185-.72a29.28 29.28 0 0 1 4.796-5.554 29.685 29.685 0 0 1 3.425-2.628c.269-.177.405-.197.563.12.224.451.487.885.755 1.312.342.54.914.687 1.406.384.492-.303.606-.818.312-1.374-.293-.556-.613-1.083-.937-1.654a23.19 23.19 0 0 1 4.314-1.874 27.997 27.997 0 0 1 7.198-1.365c.506-.028.59.131.561.565-.027.447-.027.895 0 1.342.033.624.428 1.027.969 1.043.54.016.986-.408 1.018-1.053.023-.506.02-1.013 0-1.517-.01-.3.069-.4.393-.383a27.802 27.802 0 0 1 11.34 3.048c.311.156.337.264.155.544-.278.42-.518.866-.754 1.313-.294.556-.166 1.082.312 1.376.478.293 1.064.156 1.406-.381.279-.444.54-.898.78-1.364.137-.26.25-.259.485-.107a28.406 28.406 0 0 1 8.359 8.362c.156.235.142.348-.119.481-.432.22-.848.469-1.265.723-.603.361-.78.895-.495 1.418.286.523.843.658 1.459.323.41-.223.821-.446 1.209-.702.29-.192.44-.178.609.156a28.117 28.117 0 0 1 2.81 9.142c.09.693.104 1.405.198 2.09.056.413-.09.507-.469.486a15.735 15.735 0 0 0-1.46 0c-.61.026-1.02.427-1.028.972-.008.545.402.971 1.005 1.007a15.63 15.63 0 0 0 1.577 0c.3-.01.392.072.373.394a28.308 28.308 0 0 1-2.464 10.136c-.146.325-.299.49-.677.469a2.766 2.766 0 0 0-.865.101c-.578.147-.864.583-.78 1.118.082.536.496.864 1.093.817.485-.039.97-.101 1.45.022 1.453.373 2.432 1.755 2.268 3.189ZM29.886 49.89c-11-.04-19.946-9.014-19.912-19.974.034-11.012 8.973-19.936 19.957-19.921 11.026.012 20.029 9.034 19.948 19.989-.072 11.03-9.026 19.943-19.982 19.906h-.011Zm.017-37.875a17.93 17.93 0 0 0-17.923 17.92c-.032 9.789 8.068 17.94 17.88 17.959 9.012.016 17.988-6.98 17.985-17.762.002-10.2-7.825-18.115-17.931-18.117h-.011Zm3.531 9.504c.156-2.326.313-4.652.46-7.027 3.971 1.093 7.074 3.31 9.348 6.687.172.255.122.339-.143.444a907.56 907.56 0 0 0-6.11 2.417c-.258.105-.42.048-.605-.156a8.165 8.165 0 0 0-2.658-1.921.393.393 0 0 1-.281-.444h-.01Zm-7.483-6.991c.07.97.141 1.933.205 2.895.086 1.32.156 2.64.256 3.957a.534.534 0 0 1-.36.625 8.489 8.489 0 0 0-2.571 1.874c-.157.166-.296.292-.549.19-2.149-.863-4.305-1.72-6.469-2.575 1.709-3.148 5.667-6.048 9.5-6.966h-.012Zm-8.536 25.288c-2.03-2.477-3.265-5.824-3.418-9.356-.062-1.45-.059-1.462 1.315-1.114 1.787.453 3.566.937 5.353 1.386.264.067.376.165.41.452a8.176 8.176 0 0 0 1.028 3.124.468.468 0 0 1-.056.624 449.645 449.645 0 0 0-4.05 4.9c-.247.3-.348.27-.582-.016Zm17.892 5.153c-1.763.61-3.614.927-5.48.937a16.463 16.463 0 0 1-5.267-.946c-.355-.127-.456-.219-.22-.58a318.813 318.813 0 0 0 3.35-5.258c.173-.278.348-.36.659-.3 1.053.21 2.136.21 3.19 0 .32-.064.482.047.65.313 1.094 1.744 2.2 3.479 3.322 5.206.231.347.195.484-.204.622v.006Zm5.032-2.95a24.75 24.75 0 0 1-2.365 1.702c-.312.197-.442.122-.624-.164a616.02 616.02 0 0 0-3.532-5.56c-.68-1.063-1.388-1.372-2.616-1.14a6.773 6.773 0 0 1-2.499.007c-1.282-.236-1.964.05-2.664 1.146-1.162 1.818-2.33 3.631-3.469 5.466-.242.389-.414.412-.792.173a26.359 26.359 0 0 1-2.308-1.677c-.356-.286-.312-.468-.04-.78 1.383-1.636 2.739-3.291 4.104-4.94.854-1.034.926-1.738.286-2.933a7.027 7.027 0 0 1-.792-2.54c-.114-.992-.65-1.647-1.626-1.903-2.235-.585-4.47-1.17-6.716-1.736-.33-.083-.437-.156-.348-.533.24-.98.543-1.943.909-2.884.156-.425.336-.419.709-.267 2.06.823 4.122 1.63 6.178 2.436 1.195.468 1.887.312 2.777-.625a6.695 6.695 0 0 1 2.112-1.53c1.007-.456 1.463-1.226 1.39-2.324-.147-2.233-.277-4.468-.448-6.698-.038-.468.075-.65.556-.673a31.896 31.896 0 0 1 2.917 0c.406.02.51.181.469.578-.107 1.182-.169 2.368-.25 3.553h.01l-.213 3.262c-.071 1.086.382 1.848 1.36 2.285a6.994 6.994 0 0 1 2.2 1.605c.797.85 1.56 1.025 2.634.601 2.094-.821 4.192-1.64 6.27-2.498.424-.174.553-.072.699.303.362.92.661 1.865.896 2.826.092.392 0 .49-.36.58-2.221.559-4.436 1.143-6.652 1.717-.976.257-1.553.889-1.662 1.874a7.318 7.318 0 0 1-.858 2.702c-.557 1.046-.473 1.807.292 2.744 1.375 1.665 2.743 3.339 4.142 4.982.319.37.294.557-.076.857v.006Zm1.838-1.846c-1.487-1.796-2.922-3.534-4.365-5.264a.424.424 0 0 1-.053-.567 8.306 8.306 0 0 0 1.045-3.183.42.42 0 0 1 .38-.418 918.204 918.204 0 0 0 6.246-1.623c.313-.084.43-.021.44.327.124 4.008-1.147 7.54-3.693 10.722v.006ZM29.851 24.964c-2.769.082-4.973 2.354-4.904 5.055.07 2.782 2.373 4.998 5.106 4.915 2.733-.083 4.966-2.402 4.873-5.09-.099-2.784-2.368-4.967-5.075-4.886v.006Zm5.075 4.88c-.099-2.778-2.368-4.96-5.075-4.88-2.769.082-4.973 2.354-4.904 5.055.07 2.782 2.373 4.998 5.106 4.915 2.733-.083 4.966-2.408 4.873-5.096v.006Zm0 0c-.099-2.778-2.368-4.96-5.075-4.88-2.769.082-4.973 2.354-4.904 5.055.07 2.782 2.373 4.998 5.106 4.915 2.733-.083 4.966-2.408 4.873-5.096v.006Zm-5.012-17.829a17.93 17.93 0 0 0-17.935 17.92c-.03 9.789 8.069 17.94 17.882 17.959 9.011.016 17.987-6.98 17.984-17.762.002-10.2-7.825-18.115-17.931-18.117Zm3.531 9.504c.156-2.326.312-4.652.46-7.027 3.97 1.093 7.074 3.31 9.348 6.687.172.255.122.339-.143.444A870.98 870.98 0 0 0 37 24.04c-.258.105-.42.048-.605-.156a8.165 8.165 0 0 0-2.669-1.921.393.393 0 0 1-.281-.444Zm-7.483-6.991c.07.97.14 1.933.205 2.895.086 1.32.156 2.64.256 3.957a.534.534 0 0 1-.36.625 8.49 8.49 0 0 0-2.571 1.874c-.157.166-.296.292-.549.19-2.156-.863-4.316-1.72-6.48-2.575 1.709-3.148 5.667-6.048 9.5-6.966Zm-8.547 25.288c-2.03-2.477-3.265-5.824-3.418-9.356-.062-1.45-.059-1.462 1.315-1.114 1.787.453 3.566.937 5.353 1.386.264.067.376.165.41.452a8.176 8.176 0 0 0 1.028 3.124.468.468 0 0 1-.056.624 449.645 449.645 0 0 0-4.05 4.9c-.247.3-.348.27-.582-.016Zm17.892 5.153c-1.763.61-3.614.927-5.48.937a16.463 16.463 0 0 1-5.267-.946c-.355-.127-.456-.219-.22-.58a318.813 318.813 0 0 0 3.35-5.258c.173-.278.348-.36.659-.3 1.053.21 2.136.21 3.19 0 .32-.064.482.047.65.313 1.094 1.744 2.2 3.479 3.322 5.206.231.347.195.484-.204.622v.006Zm5.032-2.95a24.75 24.75 0 0 1-2.365 1.702c-.312.197-.442.122-.624-.164a616.02 616.02 0 0 0-3.532-5.56c-.68-1.063-1.388-1.372-2.616-1.14a6.773 6.773 0 0 1-2.499.007c-1.282-.236-1.964.05-2.664 1.146-1.162 1.818-2.33 3.631-3.469 5.466-.242.389-.414.412-.792.173a26.359 26.359 0 0 1-2.308-1.677c-.356-.286-.312-.468-.04-.78 1.383-1.636 2.739-3.291 4.104-4.94.854-1.034.926-1.738.286-2.933a7.027 7.027 0 0 1-.792-2.54c-.114-.992-.65-1.647-1.626-1.903-2.235-.585-4.47-1.17-6.716-1.736-.33-.083-.437-.156-.348-.533.24-.98.543-1.943.909-2.884.156-.425.336-.419.709-.267 2.06.823 4.122 1.63 6.178 2.436 1.195.468 1.887.312 2.777-.625a6.695 6.695 0 0 1 2.112-1.53c1.007-.456 1.463-1.226 1.39-2.324-.147-2.233-.277-4.468-.448-6.698-.038-.468.075-.65.556-.673a31.896 31.896 0 0 1 2.917 0c.406.02.51.181.469.578-.107 1.182-.169 2.368-.25 3.553h.01l-.213 3.262c-.071 1.086.382 1.848 1.36 2.285a6.994 6.994 0 0 1 2.2 1.605c.797.85 1.56 1.025 2.634.601 2.094-.821 4.192-1.64 6.27-2.498.424-.174.553-.072.699.303.362.92.661 1.865.896 2.826.092.392 0 .49-.36.58-2.221.559-4.436 1.143-6.652 1.717-.976.257-1.553.889-1.662 1.874a7.318 7.318 0 0 1-.858 2.702c-.557 1.046-.473 1.807.292 2.744 1.375 1.665 2.743 3.339 4.142 4.982.319.37.294.557-.076.857v.006Zm1.838-1.846c-1.487-1.796-2.922-3.534-4.365-5.264a.424.424 0 0 1-.053-.567 8.306 8.306 0 0 0 1.045-3.183.42.42 0 0 1 .38-.418 918.204 918.204 0 0 0 6.246-1.623c.313-.084.43-.021.44.327.124 4.008-1.147 7.54-3.693 10.722v.006ZM29.851 24.964c-2.769.082-4.973 2.354-4.904 5.055.07 2.782 2.373 4.998 5.106 4.915 2.733-.083 4.966-2.402 4.873-5.09-.099-2.784-2.368-4.967-5.075-4.886v.006Zm5.075 4.88c-.099-2.778-2.368-4.96-5.075-4.88-2.769.082-4.973 2.354-4.904 5.055.07 2.782 2.373 4.998 5.106 4.915 2.733-.083 4.966-2.408 4.873-5.096v.006Zm0 0c-.099-2.778-2.368-4.96-5.075-4.88-2.769.082-4.973 2.354-4.904 5.055.07 2.782 2.373 4.998 5.106 4.915 2.733-.083 4.966-2.408 4.873-5.096v.006Zm-5.012-17.829a17.93 17.93 0 0 0-17.935 17.92c-.03 9.789 8.069 17.94 17.882 17.959 9.011.016 17.987-6.98 17.984-17.762.002-10.2-7.825-18.115-17.931-18.117Zm3.531 9.504c.156-2.326.312-4.652.46-7.027 3.97 1.093 7.074 3.31 9.348 6.687.172.255.122.339-.143.444A870.98 870.98 0 0 0 37 24.04c-.258.105-.42.048-.605-.156a8.165 8.165 0 0 0-2.669-1.921.393.393 0 0 1-.281-.444Zm-7.483-6.991c.07.97.14 1.933.205 2.895.086 1.32.156 2.64.256 3.957a.534.534 0 0 1-.36.625 8.49 8.49 0 0 0-2.571 1.874c-.157.166-.296.292-.549.19-2.156-.863-4.316-1.72-6.48-2.575 1.709-3.148 5.667-6.048 9.5-6.966Zm-8.547 25.288c-2.03-2.477-3.265-5.824-3.418-9.356-.062-1.45-.059-1.462 1.315-1.114 1.787.453 3.566.937 5.353 1.386.264.067.376.165.41.452a8.176 8.176 0 0 0 1.028 3.124.468.468 0 0 1-.056.624 449.645 449.645 0 0 0-4.05 4.9c-.247.3-.348.27-.582-.016Zm17.892 5.153c-1.763.61-3.614.927-5.48.937a16.463 16.463 0 0 1-5.267-.946c-.355-.127-.456-.219-.22-.58a318.813 318.813 0 0 0 3.35-5.258c.173-.278.348-.36.659-.3 1.053.21 2.136.21 3.19 0 .32-.064.482.047.65.313 1.094 1.744 2.2 3.479 3.322 5.206.231.347.195.484-.204.622v.006Zm5.032-2.95a24.75 24.75 0 0 1-2.365 1.702c-.312.197-.442.122-.624-.164a616.02 616.02 0 0 0-3.532-5.56c-.68-1.063-1.388-1.372-2.616-1.14a6.773 6.773 0 0 1-2.499.007c-1.282-.236-1.964.05-2.664 1.146-1.162 1.818-2.33 3.631-3.469 5.466-.242.389-.414.412-.792.173a26.359 26.359 0 0 1-2.308-1.677c-.356-.286-.312-.468-.04-.78 1.383-1.636 2.739-3.291 4.104-4.94.854-1.034.926-1.738.286-2.933a7.027 7.027 0 0 1-.792-2.54c-.114-.992-.65-1.647-1.626-1.903-2.235-.585-4.47-1.17-6.716-1.736-.33-.083-.437-.156-.348-.533.24-.98.543-1.943.909-2.884.156-.425.336-.419.709-.267 2.06.823 4.122 1.63 6.178 2.436 1.195.468 1.887.312 2.777-.625a6.695 6.695 0 0 1 2.112-1.53c1.007-.456 1.463-1.226 1.39-2.324-.147-2.233-.277-4.468-.448-6.698-.038-.468.075-.65.556-.673a31.896 31.896 0 0 1 2.917 0c.406.02.51.181.469.578-.107 1.182-.169 2.368-.25 3.553h.01l-.213 3.262c-.071 1.086.382 1.848 1.36 2.285a6.994 6.994 0 0 1 2.2 1.605c.797.85 1.56 1.025 2.634.601 2.094-.821 4.192-1.64 6.27-2.498.424-.174.553-.072.699.303.362.92.661 1.865.896 2.826.092.392 0 .49-.36.58-2.221.559-4.436 1.143-6.652 1.717-.976.257-1.553.889-1.662 1.874a7.318 7.318 0 0 1-.858 2.702c-.557 1.046-.473 1.807.292 2.744 1.375 1.665 2.743 3.339 4.142 4.982.319.37.294.557-.076.857v.006Zm1.838-1.846c-1.487-1.796-2.922-3.534-4.365-5.264a.424.424 0 0 1-.053-.567 8.306 8.306 0 0 0 1.045-3.183.42.42 0 0 1 .38-.418 918.204 918.204 0 0 0 6.246-1.623c.313-.084.43-.021.44.327.124 4.008-1.147 7.54-3.693 10.722v.006ZM29.851 24.964c-2.769.082-4.973 2.354-4.904 5.055.07 2.782 2.373 4.998 5.106 4.915 2.733-.083 4.966-2.402 4.873-5.09-.099-2.784-2.368-4.967-5.075-4.886v.006Zm5.075 4.88c-.099-2.778-2.368-4.96-5.075-4.88-2.769.082-4.973 2.354-4.904 5.055.07 2.782 2.373 4.998 5.106 4.915 2.733-.083 4.966-2.408 4.873-5.096v.006Zm0 0c-.099-2.778-2.368-4.96-5.075-4.88-2.769.082-4.973 2.354-4.904 5.055.07 2.782 2.373 4.998 5.106 4.915 2.733-.083 4.966-2.408 4.873-5.096v.006Zm0 0c-.099-2.778-2.368-4.96-5.075-4.88-2.769.082-4.973 2.354-4.904 5.055.07 2.782 2.373 4.998 5.106 4.915 2.733-.083 4.966-2.408 4.873-5.096v.006Zm0 0c-.099-2.778-2.368-4.96-5.075-4.88-2.769.082-4.973 2.354-4.904 5.055.07 2.782 2.373 4.998 5.106 4.915 2.733-.083 4.966-2.408 4.873-5.096v.006Zm0 0c-.099-2.778-2.368-4.96-5.075-4.88-2.769.082-4.973 2.354-4.904 5.055.07 2.782 2.373 4.998 5.106 4.915 2.733-.083 4.966-2.408 4.873-5.096v.006Zm0 0c-.099-2.778-2.368-4.96-5.075-4.88-2.769.082-4.973 2.354-4.904 5.055.07 2.782 2.373 4.998 5.106 4.915 2.733-.083 4.966-2.408 4.873-5.096v.006Zm-5.012-17.829a17.93 17.93 0 0 0-17.935 17.92c-.03 9.789 8.069 17.94 17.882 17.959 9.011.016 17.987-6.98 17.984-17.762.002-10.2-7.825-18.115-17.931-18.117Zm3.531 9.504c.156-2.326.312-4.652.46-7.027 3.97 1.093 7.074 3.31 9.348 6.687.172.255.122.339-.143.444A870.98 870.98 0 0 0 37 24.04c-.258.105-.42.048-.605-.156a8.165 8.165 0 0 0-2.669-1.921.393.393 0 0 1-.281-.444Zm-7.483-6.991c.07.97.14 1.933.205 2.895.086 1.32.156 2.64.256 3.957a.534.534 0 0 1-.36.625 8.49 8.49 0 0 0-2.571 1.874c-.157.166-.296.292-.549.19-2.156-.863-4.316-1.72-6.48-2.575 1.709-3.148 5.667-6.048 9.5-6.966Zm-8.547 25.288c-2.03-2.477-3.265-5.824-3.418-9.356-.062-1.45-.059-1.462 1.315-1.114 1.787.453 3.566.937 5.353 1.386.264.067.376.165.41.452a8.176 8.176 0 0 0 1.028 3.124.468.468 0 0 1-.056.624 449.645 449.645 0 0 0-4.05 4.9c-.247.3-.348.27-.582-.016Zm17.892 5.153c-1.763.61-3.614.927-5.48.937a16.463 16.463 0 0 1-5.267-.946c-.355-.127-.456-.219-.22-.58a318.813 318.813 0 0 0 3.35-5.258c.173-.278.348-.36.659-.3 1.053.21 2.136.21 3.19 0 .32-.064.482.047.65.313 1.094 1.744 2.2 3.479 3.322 5.206.231.347.195.484-.204.622v.006Zm5.032-2.95a24.75 24.75 0 0 1-2.365 1.702c-.312.197-.442.122-.624-.164a616.02 616.02 0 0 0-3.532-5.56c-.68-1.063-1.388-1.372-2.616-1.14a6.773 6.773 0 0 1-2.499.007c-1.282-.236-1.964.05-2.664 1.146-1.162 1.818-2.33 3.631-3.469 5.466-.242.389-.414.412-.792.173a26.359 26.359 0 0 1-2.308-1.677c-.356-.286-.312-.468-.04-.78 1.383-1.636 2.739-3.291 4.104-4.94.854-1.034.926-1.738.286-2.933a7.027 7.027 0 0 1-.792-2.54c-.114-.992-.65-1.647-1.626-1.903-2.235-.585-4.47-1.17-6.716-1.736-.33-.083-.437-.156-.348-.533.24-.98.543-1.943.909-2.884.156-.425.336-.419.709-.267 2.06.823 4.122 1.63 6.178 2.436 1.195.468 1.887.312 2.777-.625a6.695 6.695 0 0 1 2.112-1.53c1.007-.456 1.463-1.226 1.39-2.324-.147-2.233-.277-4.468-.448-6.698-.038-.468.075-.65.556-.673a31.896 31.896 0 0 1 2.917 0c.406.02.51.181.469.578-.107 1.182-.169 2.368-.25 3.553h.01l-.213 3.262c-.071 1.086.382 1.848 1.36 2.285a6.994 6.994 0 0 1 2.2 1.605c.797.85 1.56 1.025 2.634.601 2.094-.821 4.192-1.64 6.27-2.498.424-.174.553-.072.699.303.362.92.661 1.865.896 2.826.092.392 0 .49-.36.58-2.221.559-4.436 1.143-6.652 1.717-.976.257-1.553.889-1.662 1.874a7.318 7.318 0 0 1-.858 2.702c-.557 1.046-.473 1.807.292 2.744 1.375 1.665 2.743 3.339 4.142 4.982.319.37.294.557-.076.857v.006Zm1.838-1.846c-1.487-1.796-2.922-3.534-4.365-5.264a.424.424 0 0 1-.053-.567 8.306 8.306 0 0 0 1.045-3.183.42.42 0 0 1 .38-.418 918.204 918.204 0 0 0 6.246-1.623c.313-.084.43-.021.44.327.124 4.008-1.147 7.54-3.693 10.722v.006ZM29.851 24.964c-2.769.082-4.973 2.354-4.904 5.055.07 2.782 2.373 4.998 5.106 4.915 2.733-.083 4.966-2.402 4.873-5.09-.099-2.784-2.368-4.967-5.075-4.886v.006Zm5.075 4.88c-.099-2.778-2.368-4.96-5.075-4.88-2.769.082-4.973 2.354-4.904 5.055.07 2.782 2.373 4.998 5.106 4.915 2.733-.083 4.966-2.408 4.873-5.096v.006Zm0 0c-.099-2.778-2.368-4.96-5.075-4.88-2.769.082-4.973 2.354-4.904 5.055.07 2.782 2.373 4.998 5.106 4.915 2.733-.083 4.966-2.408 4.873-5.096v.006Zm0 0c-.099-2.778-2.368-4.96-5.075-4.88-2.769.082-4.973 2.354-4.904 5.055.07 2.782 2.373 4.998 5.106 4.915 2.733-.083 4.966-2.408 4.873-5.096v.006Zm0 0c-.099-2.778-2.368-4.96-5.075-4.88-2.769.082-4.973 2.354-4.904 5.055.07 2.782 2.373 4.998 5.106 4.915 2.733-.083 4.966-2.408 4.873-5.096v.006Zm0 0c-.099-2.778-2.368-4.96-5.075-4.88-2.769.082-4.973 2.354-4.904 5.055.07 2.782 2.373 4.998 5.106 4.915 2.733-.083 4.966-2.408 4.873-5.096v.006Zm0 0c-.099-2.778-2.368-4.96-5.075-4.88-2.769.082-4.973 2.354-4.904 5.055.07 2.782 2.373 4.998 5.106 4.915 2.733-.083 4.966-2.408 4.873-5.096v.006Zm-5.012-17.829a17.93 17.93 0 0 0-17.935 17.92c-.03 9.789 8.069 17.94 17.882 17.959 9.011.016 17.987-6.98 17.984-17.762.002-10.2-7.825-18.115-17.931-18.117Zm3.531 9.504c.156-2.326.312-4.652.46-7.027 3.97 1.093 7.074 3.31 9.348 6.687.172.255.122.339-.143.444A870.98 870.98 0 0 0 37 24.04c-.258.105-.42.048-.605-.156a8.165 8.165 0 0 0-2.669-1.921.393.393 0 0 1-.281-.444Zm-7.483-6.991c.07.97.14 1.933.205 2.895.086 1.32.156 2.64.256 3.957a.534.534 0 0 1-.36.625 8.49 8.49 0 0 0-2.571 1.874c-.157.166-.296.292-.549.19-2.156-.863-4.316-1.72-6.48-2.575 1.709-3.148 5.667-6.048 9.5-6.966Zm-8.547 25.288c-2.03-2.477-3.265-5.824-3.418-9.356-.062-1.45-.059-1.462 1.315-1.114 1.787.453 3.566.937 5.353 1.386.264.067.376.165.41.452a8.176 8.176 0 0 0 1.028 3.124.468.468 0 0 1-.056.624 449.645 449.645 0 0 0-4.05 4.9c-.247.3-.348.27-.582-.016Zm17.892 5.153c-1.763.61-3.614.927-5.48.937a16.463 16.463 0 0 1-5.267-.946c-.355-.127-.456-.219-.22-.58a318.813 318.813 0 0 0 3.35-5.258c.173-.278.348-.36.659-.3 1.053.21 2.136.21 3.19 0 .32-.064.482.047.65.313 1.094 1.744 2.2 3.479 3.322 5.206.231.347.195.484-.204.622v.006Zm5.032-2.95a24.75 24.75 0 0 1-2.365 1.702c-.312.197-.442.122-.624-.164a616.02 616.02 0 0 0-3.532-5.56c-.68-1.063-1.388-1.372-2.616-1.14a6.773 6.773 0 0 1-2.499.007c-1.282-.236-1.964.05-2.664 1.146-1.162 1.818-2.33 3.631-3.469 5.466-.242.389-.414.412-.792.173a26.359 26.359 0 0 1-2.308-1.677c-.356-.286-.312-.468-.04-.78 1.383-1.636 2.739-3.291 4.104-4.94.854-1.034.926-1.738.286-2.933a7.027 7.027 0 0 1-.792-2.54c-.114-.992-.65-1.647-1.626-1.903-2.235-.585-4.47-1.17-6.716-1.736-.33-.083-.437-.156-.348-.533.24-.98.543-1.943.909-2.884.156-.425.336-.419.709-.267 2.06.823 4.122 1.63 6.178 2.436 1.195.468 1.887.312 2.777-.625a6.695 6.695 0 0 1 2.112-1.53c1.007-.456 1.463-1.226 1.39-2.324-.147-2.233-.277-4.468-.448-6.698-.038-.468.075-.65.556-.673a31.896 31.896 0 0 1 2.917 0c.406.02.51.181.469.578-.107 1.182-.169 2.368-.25 3.553h.01l-.213 3.262c-.071 1.086.382 1.848 1.36 2.285a6.994 6.994 0 0 1 2.2 1.605c.797.85 1.56 1.025 2.634.601 2.094-.821 4.192-1.64 6.27-2.498.424-.174.553-.072.699.303.362.92.661 1.865.896 2.826.092.392 0 .49-.36.58-2.221.559-4.436 1.143-6.652 1.717-.976.257-1.553.889-1.662 1.874a7.318 7.318 0 0 1-.858 2.702c-.557 1.046-.473 1.807.292 2.744 1.375 1.665 2.743 3.339 4.142 4.982.319.37.294.557-.076.857v.006Zm1.838-1.846c-1.487-1.796-2.922-3.534-4.365-5.264a.424.424 0 0 1-.053-.567 8.306 8.306 0 0 0 1.045-3.183.42.42 0 0 1 .38-.418 918.204 918.204 0 0 0 6.246-1.623c.313-.084.43-.021.44.327.124 4.008-1.147 7.54-3.693 10.722v.006ZM29.851 24.964c-2.769.082-4.973 2.354-4.904 5.055.07 2.782 2.373 4.998 5.106 4.915 2.733-.083 4.966-2.402 4.873-5.09-.099-2.784-2.368-4.967-5.075-4.886v.006Zm5.075 4.88c-.099-2.778-2.368-4.96-5.075-4.88-2.769.082-4.973 2.354-4.904 5.055.07 2.782 2.373 4.998 5.106 4.915 2.733-.083 4.966-2.408 4.873-5.096v.006Zm0 0c-.099-2.778-2.368-4.96-5.075-4.88-2.769.082-4.973 2.354-4.904 5.055.07 2.782 2.373 4.998 5.106 4.915 2.733-.083 4.966-2.408 4.873-5.096v.006Zm0 0c-.099-2.778-2.368-4.96-5.075-4.88-2.769.082-4.973 2.354-4.904 5.055.07 2.782 2.373 4.998 5.106 4.915 2.733-.083 4.966-2.408 4.873-5.096v.006Zm0 0c-.099-2.778-2.368-4.96-5.075-4.88-2.769.082-4.973 2.354-4.904 5.055.07 2.782 2.373 4.998 5.106 4.915 2.733-.083 4.966-2.408 4.873-5.096v.006Zm0 0c-.099-2.778-2.368-4.96-5.075-4.88-2.769.082-4.973 2.354-4.904 5.055.07 2.782 2.373 4.998 5.106 4.915 2.733-.083 4.966-2.408 4.873-5.096v.006Zm0 0c-.099-2.778-2.368-4.96-5.075-4.88-2.769.082-4.973 2.354-4.904 5.055.07 2.782 2.373 4.998 5.106 4.915 2.733-.083 4.966-2.408 4.873-5.096v.006Zm0 0c-.099-2.778-2.368-4.96-5.075-4.88-2.769.082-4.973 2.354-4.904 5.055.07 2.782 2.373 4.998 5.106 4.915 2.733-.083 4.966-2.408 4.873-5.096v.006Zm0 0c-.099-2.778-2.368-4.96-5.075-4.88-2.769.082-4.973 2.354-4.904 5.055.07 2.782 2.373 4.998 5.106 4.915 2.733-.083 4.966-2.408 4.873-5.096v.006Zm0 0c-.099-2.778-2.368-4.96-5.075-4.88-2.769.082-4.973 2.354-4.904 5.055.07 2.782 2.373 4.998 5.106 4.915 2.733-.083 4.966-2.408 4.873-5.096v.006Zm0 0c-.099-2.778-2.368-4.96-5.075-4.88-2.769.082-4.973 2.354-4.904 5.055.07 2.782 2.373 4.998 5.106 4.915 2.733-.083 4.966-2.408 4.873-5.096v.006Zm-5.012-17.829a17.93 17.93 0 0 0-17.935 17.92c-.03 9.789 8.069 17.94 17.882 17.959 9.011.016 17.987-6.98 17.984-17.762.002-10.2-7.825-18.115-17.931-18.117Zm3.531 9.504c.156-2.326.312-4.652.46-7.027 3.97 1.093 7.074 3.31 9.348 6.687.172.255.122.339-.143.444A870.98 870.98 0 0 0 37 24.04c-.258.105-.42.048-.605-.156a8.165 8.165 0 0 0-2.669-1.921.393.393 0 0 1-.281-.444Zm-7.483-6.991c.07.97.14 1.933.205 2.895.086 1.32.156 2.64.256 3.957a.534.534 0 0 1-.36.625 8.49 8.49 0 0 0-2.571 1.874c-.157.166-.296.292-.549.19-2.156-.863-4.316-1.72-6.48-2.575 1.709-3.148 5.667-6.048 9.5-6.966Zm-8.547 25.288c-2.03-2.477-3.265-5.824-3.418-9.356-.062-1.45-.059-1.462 1.315-1.114 1.787.453 3.566.937 5.353 1.386.264.067.376.165.41.452a8.176 8.176 0 0 0 1.028 3.124.468.468 0 0 1-.056.624 449.645 449.645 0 0 0-4.05 4.9c-.247.3-.348.27-.582-.016Zm17.892 5.153c-1.763.61-3.614.927-5.48.937a16.463 16.463 0 0 1-5.267-.946c-.355-.127-.456-.219-.22-.58a318.813 318.813 0 0 0 3.35-5.258c.173-.278.348-.36.659-.3 1.053.21 2.136.21 3.19 0 .32-.064.482.047.65.313 1.094 1.744 2.2 3.479 3.322 5.206.231.347.195.484-.204.622v.006Zm5.032-2.95a24.75 24.75 0 0 1-2.365 1.702c-.312.197-.442.122-.624-.164a616.02 616.02 0 0 0-3.532-5.56c-.68-1.063-1.388-1.372-2.616-1.14a6.773 6.773 0 0 1-2.499.007c-1.282-.236-1.964.05-2.664 1.146-1.162 1.818-2.33 3.631-3.469 5.466-.242.389-.414.412-.792.173a26.359 26.359 0 0 1-2.308-1.677c-.356-.286-.312-.468-.04-.78 1.383-1.636 2.739-3.291 4.104-4.94.854-1.034.926-1.738.286-2.933a7.027 7.027 0 0 1-.792-2.54c-.114-.992-.65-1.647-1.626-1.903-2.235-.585-4.47-1.17-6.716-1.736-.33-.083-.437-.156-.348-.533.24-.98.543-1.943.909-2.884.156-.425.336-.419.709-.267 2.06.823 4.122 1.63 6.178 2.436 1.195.468 1.887.312 2.777-.625a6.695 6.695 0 0 1 2.112-1.53c1.007-.456 1.463-1.226 1.39-2.324-.147-2.233-.277-4.468-.448-6.698-.038-.468.075-.65.556-.673a31.896 31.896 0 0 1 2.917 0c.406.02.51.181.469.578-.107 1.182-.169 2.368-.25 3.553h.01l-.213 3.262c-.071 1.086.382 1.848 1.36 2.285a6.994 6.994 0 0 1 2.2 1.605c.797.85 1.56 1.025 2.634.601 2.094-.821 4.192-1.64 6.27-2.498.424-.174.553-.072.699.303.362.92.661 1.865.896 2.826.092.392 0 .49-.36.58-2.221.559-4.436 1.143-6.652 1.717-.976.257-1.553.889-1.662 1.874a7.318 7.318 0 0 1-.858 2.702c-.557 1.046-.473 1.807.292 2.744 1.375 1.665 2.743 3.339 4.142 4.982.319.37.294.557-.076.857v.006Zm1.838-1.846c-1.487-1.796-2.922-3.534-4.365-5.264a.424.424 0 0 1-.053-.567 8.306 8.306 0 0 0 1.045-3.183.42.42 0 0 1 .38-.418 918.204 918.204 0 0 0 6.246-1.623c.313-.084.43-.021.44.327.124 4.008-1.147 7.54-3.693 10.722v.006ZM29.851 24.964c-2.769.082-4.973 2.354-4.904 5.055.07 2.782 2.373 4.998 5.106 4.915 2.733-.083 4.966-2.402 4.873-5.09-.099-2.784-2.368-4.967-5.075-4.886v.006Zm5.075 4.88c-.099-2.778-2.368-4.96-5.075-4.88-2.769.082-4.973 2.354-4.904 5.055.07 2.782 2.373 4.998 5.106 4.915 2.733-.083 4.966-2.408 4.873-5.096v.006Zm0 0c-.099-2.778-2.368-4.96-5.075-4.88-2.769.082-4.973 2.354-4.904 5.055.07 2.782 2.373 4.998 5.106 4.915 2.733-.083 4.966-2.408 4.873-5.096v.006Zm0 0c-.099-2.778-2.368-4.96-5.075-4.88-2.769.082-4.973 2.354-4.904 5.055.07 2.782 2.373 4.998 5.106 4.915 2.733-.083 4.966-2.408 4.873-5.096v.006Zm0 0c-.099-2.778-2.368-4.96-5.075-4.88-2.769.082-4.973 2.354-4.904 5.055.07 2.782 2.373 4.998 5.106 4.915 2.733-.083 4.966-2.408 4.873-5.096v.006Zm0 0c-.099-2.778-2.368-4.96-5.075-4.88-2.769.082-4.973 2.354-4.904 5.055.07 2.782 2.373 4.998 5.106 4.915 2.733-.083 4.966-2.408 4.873-5.096v.006Zm0 0c-.099-2.778-2.368-4.96-5.075-4.88-2.769.082-4.973 2.354-4.904 5.055.07 2.782 2.373 4.998 5.106 4.915 2.733-.083 4.966-2.408 4.873-5.096v.006Zm0 0c-.099-2.778-2.368-4.96-5.075-4.88-2.769.082-4.973 2.354-4.904 5.055.07 2.782 2.373 4.998 5.106 4.915 2.733-.083 4.966-2.408 4.873-5.096v.006Zm0 0c-.099-2.778-2.368-4.96-5.075-4.88-2.769.082-4.973 2.354-4.904 5.055.07 2.782 2.373 4.998 5.106 4.915 2.733-.083 4.966-2.408 4.873-5.096v.006Zm0 0c-.099-2.778-2.368-4.96-5.075-4.88-2.769.082-4.973 2.354-4.904 5.055.07 2.782 2.373 4.998 5.106 4.915 2.733-.083 4.966-2.408 4.873-5.096v.006Zm0 0c-.099-2.778-2.368-4.96-5.075-4.88-2.769.082-4.973 2.354-4.904 5.055.07 2.782 2.373 4.998 5.106 4.915 2.733-.083 4.966-2.408 4.873-5.096v.006Zm-5.012-17.829a17.93 17.93 0 0 0-17.935 17.92c-.03 9.789 8.069 17.94 17.882 17.959 9.011.016 17.987-6.98 17.984-17.762.002-10.2-7.825-18.115-17.931-18.117Zm3.531 9.504c.156-2.326.312-4.652.46-7.027 3.97 1.093 7.074 3.31 9.348 6.687.172.255.122.339-.143.444A870.98 870.98 0 0 0 37 24.04c-.258.105-.42.048-.605-.156a8.165 8.165 0 0 0-2.669-1.921.393.393 0 0 1-.281-.444Zm-7.483-6.991c.07.97.14 1.933.205 2.895.086 1.32.156 2.64.256 3.957a.534.534 0 0 1-.36.625 8.49 8.49 0 0 0-2.571 1.874c-.157.166-.296.292-.549.19-2.156-.863-4.316-1.72-6.48-2.575 1.709-3.148 5.667-6.048 9.5-6.966Zm-8.547 25.288c-2.03-2.477-3.265-5.824-3.418-9.356-.062-1.45-.059-1.462 1.315-1.114 1.787.453 3.566.937 5.353 1.386.264.067.376.165.41.452a8.176 8.176 0 0 0 1.028 3.124.468.468 0 0 1-.056.624 449.645 449.645 0 0 0-4.05 4.9c-.247.3-.348.27-.582-.016Zm17.892 5.153c-1.763.61-3.614.927-5.48.937a16.463 16.463 0 0 1-5.267-.946c-.355-.127-.456-.219-.22-.58a318.813 318.813 0 0 0 3.35-5.258c.173-.278.348-.36.659-.3 1.053.21 2.136.21 3.19 0 .32-.064.482.047.65.313 1.094 1.744 2.2 3.479 3.322 5.206.231.347.195.484-.204.622v.006Zm5.032-2.95a24.75 24.75 0 0 1-2.365 1.702c-.312.197-.442.122-.624-.164a616.02 616.02 0 0 0-3.532-5.56c-.68-1.063-1.388-1.372-2.616-1.14a6.773 6.773 0 0 1-2.499.007c-1.282-.236-1.964.05-2.664 1.146-1.162 1.818-2.33 3.631-3.469 5.466-.242.389-.414.412-.792.173a26.359 26.359 0 0 1-2.308-1.677c-.356-.286-.312-.468-.04-.78 1.383-1.636 2.739-3.291 4.104-4.94.854-1.034.926-1.738.286-2.933a7.027 7.027 0 0 1-.792-2.54c-.114-.992-.65-1.647-1.626-1.903-2.235-.585-4.47-1.17-6.716-1.736-.33-.083-.437-.156-.348-.533.24-.98.543-1.943.909-2.884.156-.425.336-.419.709-.267 2.06.823 4.122 1.63 6.178 2.436 1.195.468 1.887.312 2.777-.625a6.695 6.695 0 0 1 2.112-1.53c1.007-.456 1.463-1.226 1.39-2.324-.147-2.233-.277-4.468-.448-6.698-.038-.468.075-.65.556-.673a31.896 31.896 0 0 1 2.917 0c.406.02.51.181.469.578-.107 1.182-.169 2.368-.25 3.553h.01l-.213 3.262c-.071 1.086.382 1.848 1.36 2.285a6.994 6.994 0 0 1 2.2 1.605c.797.85 1.56 1.025 2.634.601 2.094-.821 4.192-1.64 6.27-2.498.424-.174.553-.072.699.303.362.92.661 1.865.896 2.826.092.392 0 .49-.36.58-2.221.559-4.436 1.143-6.652 1.717-.976.257-1.553.889-1.662 1.874a7.318 7.318 0 0 1-.858 2.702c-.557 1.046-.473 1.807.292 2.744 1.375 1.665 2.743 3.339 4.142 4.982.319.37.294.557-.076.857v.006Zm1.838-1.846c-1.487-1.796-2.922-3.534-4.365-5.264a.424.424 0 0 1-.053-.567 8.306 8.306 0 0 0 1.045-3.183.42.42 0 0 1 .38-.418 918.204 918.204 0 0 0 6.246-1.623c.313-.084.43-.021.44.327.124 4.008-1.147 7.54-3.693 10.722v.006ZM29.851 24.964c-2.769.082-4.973 2.354-4.904 5.055.07 2.782 2.373 4.998 5.106 4.915 2.733-.083 4.966-2.402 4.873-5.09-.099-2.784-2.368-4.967-5.075-4.886v.006Zm5.075 4.88c-.099-2.778-2.368-4.96-5.075-4.88-2.769.082-4.973 2.354-4.904 5.055.07 2.782 2.373 4.998 5.106 4.915 2.733-.083 4.966-2.408 4.873-5.096v.006Zm0 0c-.099-2.778-2.368-4.96-5.075-4.88-2.769.082-4.973 2.354-4.904 5.055.07 2.782 2.373 4.998 5.106 4.915 2.733-.083 4.966-2.408 4.873-5.096v.006Zm0 0c-.099-2.778-2.368-4.96-5.075-4.88-2.769.082-4.973 2.354-4.904 5.055.07 2.782 2.373 4.998 5.106 4.915 2.733-.083 4.966-2.408 4.873-5.096v.006Zm0 0c-.099-2.778-2.368-4.96-5.075-4.88-2.769.082-4.973 2.354-4.904 5.055.07 2.782 2.373 4.998 5.106 4.915 2.733-.083 4.966-2.408 4.873-5.096v.006Zm0 0c-.099-2.778-2.368-4.96-5.075-4.88-2.769.082-4.973 2.354-4.904 5.055.07 2.782 2.373 4.998 5.106 4.915 2.733-.083 4.966-2.408 4.873-5.096v.006Zm0 0c-.099-2.778-2.368-4.96-5.075-4.88-2.769.082-4.973 2.354-4.904 5.055.07 2.782 2.373 4.998 5.106 4.915 2.733-.083 4.966-2.408 4.873-5.096v.006Zm0 0c-.099-2.778-2.368-4.96-5.075-4.88-2.769.082-4.973 2.354-4.904 5.055.07 2.782 2.373 4.998 5.106 4.915 2.733-.083 4.966-2.408 4.873-5.096v.006Zm0 0c-.099-2.778-2.368-4.96-5.075-4.88-2.769.082-4.973 2.354-4.904 5.055.07 2.782 2.373 4.998 5.106 4.915 2.733-.083 4.966-2.408 4.873-5.096v.006Zm0 0c-.099-2.778-2.368-4.96-5.075-4.88-2.769.082-4.973 2.354-4.904 5.055.07 2.782 2.373 4.998 5.106 4.915 2.733-.083 4.966-2.408 4.873-5.096v.006Zm0 0c-.099-2.778-2.368-4.96-5.075-4.88-2.769.082-4.973 2.354-4.904 5.055.07 2.782 2.373 4.998 5.106 4.915 2.733-.083 4.966-2.408 4.873-5.096v.006Zm0 0c-.099-2.778-2.368-4.96-5.075-4.88-2.769.082-4.973 2.354-4.904 5.055.07 2.782 2.373 4.998 5.106 4.915 2.733-.083 4.966-2.408 4.873-5.096v.006Zm0 0c-.099-2.778-2.368-4.96-5.075-4.88-2.769.082-4.973 2.354-4.904 5.055.07 2.782 2.373 4.998 5.106 4.915 2.733-.083 4.966-2.408 4.873-5.096v.006Zm0 0c-.099-2.778-2.368-4.96-5.075-4.88-2.769.082-4.973 2.354-4.904 5.055.07 2.782 2.373 4.998 5.106 4.915 2.733-.083 4.966-2.408 4.873-5.096v.006Zm0 0c-.099-2.778-2.368-4.96-5.075-4.88-2.769.082-4.973 2.354-4.904 5.055.07 2.782 2.373 4.998 5.106 4.915 2.733-.083 4.966-2.408 4.873-5.096v.006Zm-5.012-17.829a17.93 17.93 0 0 0-17.935 17.92c-.03 9.789 8.069 17.94 17.882 17.959 9.011.016 17.987-6.98 17.984-17.762.002-10.2-7.825-18.115-17.931-18.117Zm3.531 9.504c.156-2.326.312-4.652.46-7.027 3.97 1.093 7.074 3.31 9.348 6.687.172.255.122.339-.143.444A870.98 870.98 0 0 0 37 24.04c-.258.105-.42.048-.605-.156a8.165 8.165 0 0 0-2.669-1.921.393.393 0 0 1-.281-.444Zm-7.483-6.991c.07.97.14 1.933.205 2.895.086 1.32.156 2.64.256 3.957a.534.534 0 0 1-.36.625 8.49 8.49 0 0 0-2.571 1.874c-.157.166-.296.292-.549.19-2.156-.863-4.316-1.72-6.48-2.575 1.709-3.148 5.667-6.048 9.5-6.966Zm-8.547 25.288c-2.03-2.477-3.265-5.824-3.418-9.356-.062-1.45-.059-1.462 1.315-1.114 1.787.453 3.566.937 5.353 1.386.264.067.376.165.41.452a8.176 8.176 0 0 0 1.028 3.124.468.468 0 0 1-.056.624 449.645 449.645 0 0 0-4.05 4.9c-.247.3-.348.27-.582-.016Zm17.892 5.153c-1.763.61-3.614.927-5.48.937a16.463 16.463 0 0 1-5.267-.946c-.355-.127-.456-.219-.22-.58a318.813 318.813 0 0 0 3.35-5.258c.173-.278.348-.36.659-.3 1.053.21 2.136.21 3.19 0 .32-.064.482.047.65.313 1.094 1.744 2.2 3.479 3.322 5.206.231.347.195.484-.204.622v.006Zm5.032-2.95a24.75 24.75 0 0 1-2.365 1.702c-.312.197-.442.122-.624-.164a616.02 616.02 0 0 0-3.532-5.56c-.68-1.063-1.388-1.372-2.616-1.14a6.773 6.773 0 0 1-2.499.007c-1.282-.236-1.964.05-2.664 1.146-1.162 1.818-2.33 3.631-3.469 5.466-.242.389-.414.412-.792.173a26.359 26.359 0 0 1-2.308-1.677c-.356-.286-.312-.468-.04-.78 1.383-1.636 2.739-3.291 4.104-4.94.854-1.034.926-1.738.286-2.933a7.027 7.027 0 0 1-.792-2.54c-.114-.992-.65-1.647-1.626-1.903-2.235-.585-4.47-1.17-6.716-1.736-.33-.083-.437-.156-.348-.533.24-.98.543-1.943.909-2.884.156-.425.336-.419.709-.267 2.06.823 4.122 1.63 6.178 2.436 1.195.468 1.887.312 2.777-.625a6.695 6.695 0 0 1 2.112-1.53c1.007-.456 1.463-1.226 1.39-2.324-.147-2.233-.277-4.468-.448-6.698-.038-.468.075-.65.556-.673a31.896 31.896 0 0 1 2.917 0c.406.02.51.181.469.578-.107 1.182-.169 2.368-.25 3.553h.01l-.213 3.262c-.071 1.086.382 1.848 1.36 2.285a6.994 6.994 0 0 1 2.2 1.605c.797.85 1.56 1.025 2.634.601 2.094-.821 4.192-1.64 6.27-2.498.424-.174.553-.072.699.303.362.92.661 1.865.896 2.826.092.392 0 .49-.36.58-2.221.559-4.436 1.143-6.652 1.717-.976.257-1.553.889-1.662 1.874a7.318 7.318 0 0 1-.858 2.702c-.557 1.046-.473 1.807.292 2.744 1.375 1.665 2.743 3.339 4.142 4.982.319.37.294.557-.076.857v.006Zm1.838-1.846c-1.487-1.796-2.922-3.534-4.365-5.264a.424.424 0 0 1-.053-.567 8.306 8.306 0 0 0 1.045-3.183.42.42 0 0 1 .38-.418 918.204 918.204 0 0 0 6.246-1.623c.313-.084.43-.021.44.327.124 4.008-1.147 7.54-3.693 10.722v.006ZM29.851 24.964c-2.769.082-4.973 2.354-4.904 5.055.07 2.782 2.373 4.998 5.106 4.915 2.733-.083 4.966-2.402 4.873-5.09-.099-2.784-2.368-4.967-5.075-4.886v.006Zm5.075 4.88c-.099-2.778-2.368-4.96-5.075-4.88-2.769.082-4.973 2.354-4.904 5.055.07 2.782 2.373 4.998 5.106 4.915 2.733-.083 4.966-2.408 4.873-5.096v.006Zm0 0c-.099-2.778-2.368-4.96-5.075-4.88-2.769.082-4.973 2.354-4.904 5.055.07 2.782 2.373 4.998 5.106 4.915 2.733-.083 4.966-2.408 4.873-5.096v.006Zm0 0c-.099-2.778-2.368-4.96-5.075-4.88-2.769.082-4.973 2.354-4.904 5.055.07 2.782 2.373 4.998 5.106 4.915 2.733-.083 4.966-2.408 4.873-5.096v.006Zm0 0c-.099-2.778-2.368-4.96-5.075-4.88-2.769.082-4.973 2.354-4.904 5.055.07 2.782 2.373 4.998 5.106 4.915 2.733-.083 4.966-2.408 4.873-5.096v.006Zm0 0c-.099-2.778-2.368-4.96-5.075-4.88-2.769.082-4.973 2.354-4.904 5.055.07 2.782 2.373 4.998 5.106 4.915 2.733-.083 4.966-2.408 4.873-5.096v.006Zm0 0c-.099-2.778-2.368-4.96-5.075-4.88-2.769.082-4.973 2.354-4.904 5.055.07 2.782 2.373 4.998 5.106 4.915 2.733-.083 4.966-2.408 4.873-5.096v.006Zm0 0c-.099-2.778-2.368-4.96-5.075-4.88-2.769.082-4.973 2.354-4.904 5.055.07 2.782 2.373 4.998 5.106 4.915 2.733-.083 4.966-2.408 4.873-5.096v.006Zm0 0c-.099-2.778-2.368-4.96-5.075-4.88-2.769.082-4.973 2.354-4.904 5.055.07 2.782 2.373 4.998 5.106 4.915 2.733-.083 4.966-2.408 4.873-5.096v.006Zm0 0c-.099-2.778-2.368-4.96-5.075-4.88-2.769.082-4.973 2.354-4.904 5.055.07 2.782 2.373 4.998 5.106 4.915 2.733-.083 4.966-2.408 4.873-5.096v.006Zm0 0c-.099-2.778-2.368-4.96-5.075-4.88-2.769.082-4.973 2.354-4.904 5.055.07 2.782 2.373 4.998 5.106 4.915 2.733-.083 4.966-2.408 4.873-5.096v.006Zm0 0c-.099-2.778-2.368-4.96-5.075-4.88-2.769.082-4.973 2.354-4.904 5.055.07 2.782 2.373 4.998 5.106 4.915 2.733-.083 4.966-2.408 4.873-5.096v.006Zm0 0c-.099-2.778-2.368-4.96-5.075-4.88-2.769.082-4.973 2.354-4.904 5.055.07 2.782 2.373 4.998 5.106 4.915 2.733-.083 4.966-2.408 4.873-5.096v.006Zm0 0c-.099-2.778-2.368-4.96-5.075-4.88-2.769.082-4.973 2.354-4.904 5.055.07 2.782 2.373 4.998 5.106 4.915 2.733-.083 4.966-2.408 4.873-5.096v.006Zm0 0c-.099-2.778-2.368-4.96-5.075-4.88-2.769.082-4.973 2.354-4.904 5.055.07 2.782 2.373 4.998 5.106 4.915 2.733-.083 4.966-2.408 4.873-5.096v.006Zm-5.012-17.829a17.93 17.93 0 0 0-17.935 17.92c-.03 9.789 8.069 17.94 17.882 17.959 9.011.016 17.987-6.98 17.984-17.762.002-10.2-7.825-18.115-17.931-18.117Zm3.531 9.504c.156-2.326.312-4.652.46-7.027 3.97 1.093 7.074 3.31 9.348 6.687.172.255.122.339-.143.444A870.98 870.98 0 0 0 37 24.04c-.258.105-.42.048-.605-.156a8.165 8.165 0 0 0-2.669-1.921.393.393 0 0 1-.281-.444Zm-7.483-6.991c.07.97.14 1.933.205 2.895.086 1.32.156 2.64.256 3.957a.534.534 0 0 1-.36.625 8.49 8.49 0 0 0-2.571 1.874c-.157.166-.296.292-.549.19-2.156-.863-4.316-1.72-6.48-2.575 1.709-3.148 5.667-6.048 9.5-6.966Zm-8.547 25.288c-2.03-2.477-3.265-5.824-3.418-9.356-.062-1.45-.059-1.462 1.315-1.114 1.787.453 3.566.937 5.353 1.386.264.067.376.165.41.452a8.176 8.176 0 0 0 1.028 3.124.468.468 0 0 1-.056.624 449.645 449.645 0 0 0-4.05 4.9c-.247.3-.348.27-.582-.016Zm17.892 5.153c-1.763.61-3.614.927-5.48.937a16.463 16.463 0 0 1-5.267-.946c-.355-.127-.456-.219-.22-.58a318.813 318.813 0 0 0 3.35-5.258c.173-.278.348-.36.659-.3 1.053.21 2.136.21 3.19 0 .32-.064.482.047.65.313 1.094 1.744 2.2 3.479 3.322 5.206.231.347.195.484-.204.622v.006Zm5.032-2.95a24.75 24.75 0 0 1-2.365 1.702c-.312.197-.442.122-.624-.164a616.02 616.02 0 0 0-3.532-5.56c-.68-1.063-1.388-1.372-2.616-1.14a6.773 6.773 0 0 1-2.499.007c-1.282-.236-1.964.05-2.664 1.146-1.162 1.818-2.33 3.631-3.469 5.466-.242.389-.414.412-.792.173a26.359 26.359 0 0 1-2.308-1.677c-.356-.286-.312-.468-.04-.78 1.383-1.636 2.739-3.291 4.104-4.94.854-1.034.926-1.738.286-2.933a7.027 7.027 0 0 1-.792-2.54c-.114-.992-.65-1.647-1.626-1.903-2.235-.585-4.47-1.17-6.716-1.736-.33-.083-.437-.156-.348-.533.24-.98.543-1.943.909-2.884.156-.425.336-.419.709-.267 2.06.823 4.122 1.63 6.178 2.436 1.195.468 1.887.312 2.777-.625a6.695 6.695 0 0 1 2.112-1.53c1.007-.456 1.463-1.226 1.39-2.324-.147-2.233-.277-4.468-.448-6.698-.038-.468.075-.65.556-.673a31.896 31.896 0 0 1 2.917 0c.406.02.51.181.469.578-.107 1.182-.169 2.368-.25 3.553h.01l-.213 3.262c-.071 1.086.382 1.848 1.36 2.285a6.994 6.994 0 0 1 2.2 1.605c.797.85 1.56 1.025 2.634.601 2.094-.821 4.192-1.64 6.27-2.498.424-.174.553-.072.699.303.362.92.661 1.865.896 2.826.092.392 0 .49-.36.58-2.221.559-4.436 1.143-6.652 1.717-.976.257-1.553.889-1.662 1.874a7.318 7.318 0 0 1-.858 2.702c-.557 1.046-.473 1.807.292 2.744 1.375 1.665 2.743 3.339 4.142 4.982.319.37.294.557-.076.857v.006Zm1.838-1.846c-1.487-1.796-2.922-3.534-4.365-5.264a.424.424 0 0 1-.053-.567 8.306 8.306 0 0 0 1.045-3.183.42.42 0 0 1 .38-.418 918.204 918.204 0 0 0 6.246-1.623c.313-.084.43-.021.44.327.124 4.008-1.147 7.54-3.693 10.722v.006ZM29.851 24.964c-2.769.082-4.973 2.354-4.904 5.055.07 2.782 2.373 4.998 5.106 4.915 2.733-.083 4.966-2.402 4.873-5.09-.099-2.784-2.368-4.967-5.075-4.886v.006Zm5.075 4.88c-.099-2.778-2.368-4.96-5.075-4.88-2.769.082-4.973 2.354-4.904 5.055.07 2.782 2.373 4.998 5.106 4.915 2.733-.083 4.966-2.408 4.873-5.096v.006Zm0 0c-.099-2.778-2.368-4.96-5.075-4.88-2.769.082-4.973 2.354-4.904 5.055.07 2.782 2.373 4.998 5.106 4.915 2.733-.083 4.966-2.408 4.873-5.096v.006Zm0 0c-.099-2.778-2.368-4.96-5.075-4.88-2.769.082-4.973 2.354-4.904 5.055.07 2.782 2.373 4.998 5.106 4.915 2.733-.083 4.966-2.408 4.873-5.096v.006Zm0 0c-.099-2.778-2.368-4.96-5.075-4.88-2.769.082-4.973 2.354-4.904 5.055.07 2.782 2.373 4.998 5.106 4.915 2.733-.083 4.966-2.408 4.873-5.096v.006Zm0 0c-.099-2.778-2.368-4.96-5.075-4.88-2.769.082-4.973 2.354-4.904 5.055.07 2.782 2.373 4.998 5.106 4.915 2.733-.083 4.966-2.408 4.873-5.096v.006Zm0 0c-.099-2.778-2.368-4.96-5.075-4.88-2.769.082-4.973 2.354-4.904 5.055.07 2.782 2.373 4.998 5.106 4.915 2.733-.083 4.966-2.408 4.873-5.096v.006Z"/>
    <path d="M29.915 12.015a17.93 17.93 0 0 0-17.934 17.92c-.032 9.789 8.068 17.94 17.88 17.959 9.012.016 17.988-6.98 17.985-17.762.002-10.2-7.825-18.115-17.931-18.117Zm3.531 9.505c.156-2.327.313-4.653.46-7.028 3.971 1.093 7.074 3.31 9.348 6.687.172.255.122.339-.143.444A907.56 907.56 0 0 0 37 24.04c-.258.105-.42.048-.605-.156a8.165 8.165 0 0 0-2.669-1.921.393.393 0 0 1-.28-.444Zm-7.482-6.992c.068.97.14 1.933.204 2.895.086 1.32.156 2.64.256 3.958a.534.534 0 0 1-.36.624 8.49 8.49 0 0 0-2.571 1.874c-.156.166-.295.292-.548.19-2.157-.862-4.317-1.72-6.48-2.575 1.708-3.148 5.666-6.048 9.498-6.966Zm-8.548 25.288c-2.03-2.477-3.264-5.824-3.418-9.356-.062-1.45-.059-1.462 1.316-1.114 1.786.453 3.565.937 5.352 1.386.264.067.376.165.41.453a8.176 8.176 0 0 0 1.028 3.123.468.468 0 0 1-.056.624 449.645 449.645 0 0 0-4.05 4.9c-.247.3-.348.27-.582-.016Zm17.892 5.153c-1.763.61-3.614.927-5.479.937a16.463 16.463 0 0 1-5.268-.946c-.355-.127-.456-.219-.22-.58a319.481 319.481 0 0 0 3.35-5.258c.173-.278.348-.36.659-.3 1.053.21 2.136.21 3.19 0 .32-.064.482.047.65.313a391.848 391.848 0 0 0 3.322 5.206c.232.347.196.484-.204.622v.006Zm5.032-2.95a24.767 24.767 0 0 1-2.365 1.702c-.312.197-.442.122-.624-.164a616.02 616.02 0 0 0-3.532-5.56c-.679-1.063-1.388-1.372-2.616-1.14a6.773 6.773 0 0 1-2.498.007c-1.283-.236-1.965.05-2.665 1.146-1.162 1.818-2.33 3.631-3.469 5.466-.242.389-.414.412-.792.174a26.578 26.578 0 0 1-2.308-1.678c-.356-.285-.312-.468-.039-.78 1.382-1.636 2.738-3.29 4.103-4.94.854-1.034.926-1.738.286-2.933a7.027 7.027 0 0 1-.792-2.54c-.114-.992-.65-1.646-1.626-1.903-2.235-.585-4.47-1.17-6.716-1.736-.33-.083-.437-.156-.348-.533.24-.98.544-1.943.909-2.884.156-.425.336-.418.709-.267 2.06.823 4.122 1.63 6.178 2.436 1.195.469 1.887.312 2.777-.625a6.696 6.696 0 0 1 2.112-1.53c1.007-.456 1.463-1.226 1.39-2.324-.147-2.233-.277-4.468-.448-6.697-.038-.469.075-.652.556-.674a31.896 31.896 0 0 1 2.917 0c.406.02.51.181.469.578-.107 1.182-.169 2.368-.25 3.553h.01l-.213 3.262c-.071 1.086.383 1.848 1.36 2.285a6.994 6.994 0 0 1 2.2 1.605c.797.85 1.561 1.025 2.634.602 2.094-.822 4.192-1.64 6.27-2.5.424-.172.553-.071.699.304.362.92.661 1.865.896 2.826.092.392 0 .49-.36.58-2.221.559-4.436 1.143-6.652 1.718-.976.256-1.553.888-1.662 1.873a7.318 7.318 0 0 1-.858 2.702c-.557 1.046-.473 1.807.293 2.744 1.374 1.665 2.742 3.339 4.142 4.982.318.37.293.557-.077.857v.006Zm1.838-1.846c-1.487-1.796-2.922-3.534-4.365-5.264a.424.424 0 0 1-.053-.567 8.306 8.306 0 0 0 1.045-3.182.42.42 0 0 1 .38-.419 918.204 918.204 0 0 0 6.246-1.622c.313-.085.43-.022.44.326.124 4.009-1.147 7.54-3.693 10.722v.006Z"/>
    <path d="M30.052 34.925c-2.733.08-5.035-2.133-5.105-4.915-.069-2.701 2.135-4.974 4.904-5.055 2.707-.081 4.976 2.102 5.074 4.88.094 2.691-2.127 5.012-4.873 5.09Z"/>
  </g>
  <defs>
    <clipPath id="a">
      <path d="M0 0h60v52H0z"/>
    </clipPath>
  </defs>
</svg>
