<svg xmlns="http://www.w3.org/2000/svg" width="53" height="52" fill="currentColor" viewBox="0 0 53 52">
  <g clip-path="url(#a)">
    <path d="M52.25 31.568c-.166.75-.325 1.5-.5 2.253a13.33 13.33 0 0 1-.936 2.577c-.299.639-.85.882-1.408.632-.557-.25-.743-.83-.447-1.465.85-1.833 1.306-3.754 1.241-5.775-.136-4.142-1.856-7.49-5.124-10.037-.108-.083-.22-.158-.33-.241-.65-.494-.736-.986-.265-1.662a6.454 6.454 0 0 0 1.175-3.365c.273-4.334-4.026-7.668-8.164-6.327-1.16.376-1.331.31-1.975-.749C31.394.62 21.562.207 16.887 6.64c-.433.597-.882.798-1.636.667-3.274-.57-6.052.393-8.11 3.011-2.045 2.593-2.328 5.5-1.044 8.544.36.854.308 1.091-.334 1.752-3.43 3.514-4.607 7.687-3.137 12.367 1.47 4.68 4.805 7.48 9.652 8.4.97.183 1.963.223 2.945.12.894-.09 1.334.336 1.315 1.244a12.054 12.054 0 0 1-1.991 6.383c-.119.184-.243.365-.41.613a9.61 9.61 0 0 0 3.073-.962 10.117 10.117 0 0 0 3.576-2.98c.523-.694.786-.767 1.612-.533 4.137 1.174 7.894.43 11.248-2.267.42-.339.832-.475 1.357-.377 2.57.5 5.232.19 7.62-.886.856-.38 1.418-.273 1.703.333.296.63.01 1.14-.884 1.537a14.6 14.6 0 0 1-8.018 1.156 1.345 1.345 0 0 0-1.068.272c-3.554 2.593-7.491 3.38-11.776 2.4a.605.605 0 0 0-.69.229c-2.684 3.002-6.046 4.396-10.064 4.219-.505-.022-.901-.217-1.07-.712-.157-.471.019-.852.381-1.18a10.17 10.17 0 0 0 3.215-5.774c.117-.613.12-.613-.486-.63C6.882 43.385 1.033 38.176.134 31.27c-.567-4.352.672-8.197 3.591-11.48.273-.307.312-.53.176-.917-2.388-6.752 2.653-13.81 9.82-13.766.255 0 .525-.038.76.033.669.197 1.044-.1 1.482-.59 5.226-5.854 14.005-6.085 19.483-.538.542.54 1.026 1.135 1.447 1.774.157.243.3.328.611.261 4.864-1.026 9.32 1.996 10.114 6.887a7.942 7.942 0 0 1-.833 5.049c-.121.23-.188.377.068.592 3.051 2.563 4.818 5.825 5.299 9.786.008.07.019.136.1.15v.305a.235.235 0 0 0 0 .307l-.002 2.446Z"/>
    <path d="M52.25 29.117c-.114-.102-.17-.204 0-.307v.307ZM35.69 16.168a9.756 9.756 0 0 0-9.538-7.8c-5.3-.027-9.698 4.278-9.742 9.536 0 .846.35 1.212 1.199 1.213h3.876c1.118 0 1.383-.241 1.467-1.341.137-1.748 1.717-3.017 3.564-2.856 1.644.136 2.98 1.757 2.816 3.411-.136 1.39-.901 2.282-2.164 2.832-2.238.974-3.662 2.66-4.147 5.062-.32 1.578-.137 3.188-.127 4.783 0 .527.451.861 1.015.873.73.017 1.462 0 2.193 0 .73 0 1.462.01 2.191 0 .73-.009 1.091-.39 1.104-1.11.008-.9.034-1.804-.01-2.704-.027-.559.162-.841.682-1.072 4.196-1.844 6.548-6.404 5.62-10.827Zm-6.366 8.929c-1.398.618-2.074 1.557-1.972 3.077.03.44 0 .884.01 1.326.007.242-.028.37-.324.358a20.206 20.206 0 0 0-1.785 0c-.314.014-.363-.12-.349-.386.018-.357 0-.714 0-1.246-.01-.489-.023-1.153.149-1.801.417-1.58 1.363-2.715 2.864-3.357 1.717-.736 2.884-1.94 3.316-3.788a5.242 5.242 0 0 0-3.76-6.253 5.234 5.234 0 0 0-6.36 3.573c-.105.357-.227.534-.64.49a6.644 6.644 0 0 0-1.427 0c-.545.06-.557-.18-.458-.598.546-2.27 1.803-4.012 3.846-5.142 3.826-2.114 8.66-.575 10.604 3.35 1.924 3.869.247 8.645-3.714 10.397Zm-3.168 9.247a3.26 3.26 0 0 0-3.267 3.258 3.266 3.266 0 0 0 3.256 3.27 3.262 3.262 0 0 0 3.268-3.259 3.265 3.265 0 0 0-3.257-3.27Zm-.02 4.484a1.227 1.227 0 0 1-1.227-1.228 1.249 1.249 0 0 1 1.2-1.212 1.227 1.227 0 0 1 1.24 1.216 1.2 1.2 0 0 1-1.213 1.224Zm22.03 1.004a1.02 1.02 0 1 1-2.038-.056 1.02 1.02 0 0 1 2.038.056Z"/>
  </g>
  <defs>
    <clipPath id="a">
      <path d="M0 0h53v52H0z"/>
    </clipPath>
  </defs>
</svg>
