<svg xmlns="http://www.w3.org/2000/svg" width="50" height="50" fill="currentColor" viewBox="0 0 50 50">
  <g clip-path="url(#a)">
    <path d="M12.603 34.201c-.854-.72-1.722-1.425-2.58-2.142a1.967 1.967 0 0 0-1.292-.48c-1.23 0-2.463-.016-3.694 0-1.012.014-1.692.717-1.709 1.73-.011.78-.009 1.561 0 2.334.012 1.065.707 1.748 1.78 1.754h6.323c.85 0 1.502-.451 1.765-1.19.253-.711.038-1.474-.593-2.006Zm-1.009 1.453c-.06.158-.225.085-.343.087H8.284c-.99 0-1.952-.01-2.92 0-.285 0-.401-.052-.39-.37.03-.582.03-1.171 0-1.75-.015-.337.111-.402.417-.397 1.041.017 2.076.013 3.113 0a.88.88 0 0 1 .617.219c.754.639 1.518 1.267 2.275 1.902.097.089.257.151.198.309Zm24.023-2.925c-.28-.728-.944-1.149-1.853-1.15H16.049c-.884 0-1.562.465-1.814 1.205-.253.74-.038 1.461.641 2.034.83.7 1.668 1.391 2.501 2.089.354.315.81.49 1.285.494h12.556c.409.01.808-.125 1.127-.381.94-.77 1.883-1.54 2.8-2.343a1.722 1.722 0 0 0 .471-1.948Zm-1.856.96c-.73.619-1.472 1.224-2.2 1.845a.863.863 0 0 1-.614.213 4631.94 4631.94 0 0 0-12.021 0 .802.802 0 0 1-.575-.183c-.75-.645-1.519-1.268-2.276-1.904-.106-.089-.306-.16-.247-.32.058-.16.26-.098.39-.098h17.375c.156 0 .381-.073.444.098.062.17-.159.25-.276.35Zm12.784-.279c-.007-1.133-.683-1.822-1.808-1.831-1.17-.008-2.334 0-3.501 0a2.114 2.114 0 0 0-1.432.511c-.829.702-1.67 1.388-2.502 2.083-.664.554-.892 1.3-.63 2.036.27.76.91 1.19 1.814 1.194h6.176c1.222 0 1.876-.664 1.879-1.9.007-.7.008-1.395.004-2.093Zm-1.653 1.991c.01.281-.084.353-.356.349-.988-.016-1.978 0-2.967 0h-2.967c-.115 0-.281.077-.33-.103-.037-.13.098-.19.181-.26.781-.65 1.574-1.302 2.354-1.96a.752.752 0 0 1 .53-.181c1.054.008 2.107.012 3.161 0 .28 0 .41.044.39.367-.022.587-.017 1.188.004 1.788Zm1.653-1.991c-.007-1.133-.683-1.822-1.808-1.831-1.17-.008-2.334 0-3.501 0a2.114 2.114 0 0 0-1.432.511c-.829.702-1.67 1.388-2.502 2.083-.664.554-.892 1.3-.63 2.036.27.76.91 1.19 1.814 1.194h6.176c1.222 0 1.876-.664 1.879-1.9.007-.7.008-1.395.004-2.093Zm-1.653 1.991c.01.281-.084.353-.356.349-.988-.016-1.978 0-2.967 0h-2.967c-.115 0-.281.077-.33-.103-.037-.13.098-.19.181-.26.781-.65 1.574-1.302 2.354-1.96a.752.752 0 0 1 .53-.181c1.054.008 2.107.012 3.161 0 .28 0 .41.044.39.367-.022.587-.017 1.188.004 1.788Zm-9.276-2.672c-.28-.728-.943-1.149-1.852-1.15H16.049c-.884 0-1.562.465-1.814 1.205-.253.74-.038 1.461.641 2.034.83.7 1.668 1.391 2.501 2.089.354.315.81.49 1.285.494h12.556c.409.01.808-.125 1.127-.381.94-.77 1.883-1.54 2.8-2.343a1.722 1.722 0 0 0 .471-1.948Zm-1.855.96c-.73.619-1.472 1.224-2.2 1.845a.863.863 0 0 1-.614.213 4631.94 4631.94 0 0 0-12.021 0 .802.802 0 0 1-.575-.183c-.75-.645-1.519-1.268-2.276-1.904-.106-.089-.306-.16-.247-.32.058-.16.26-.098.39-.098h17.375c.156 0 .381-.073.444.098.062.17-.159.25-.276.35Zm-21.158.512c-.854-.72-1.722-1.425-2.58-2.142a1.967 1.967 0 0 0-1.292-.48c-1.23 0-2.463-.016-3.694 0-1.012.014-1.692.717-1.709 1.73-.011.78-.009 1.561 0 2.334.012 1.065.707 1.748 1.78 1.754h6.323c.85 0 1.502-.451 1.765-1.19.253-.711.038-1.474-.593-2.006Zm-1.009 1.453c-.06.158-.225.085-.343.087H8.284c-.99 0-1.952-.01-2.92 0-.285 0-.401-.052-.39-.37.03-.582.03-1.171 0-1.75-.015-.337.111-.402.417-.397 1.041.017 2.076.013 3.113 0a.88.88 0 0 1 .617.219c.754.639 1.518 1.267 2.275 1.902.097.089.257.151.198.309Zm1.009-1.453c-.854-.72-1.722-1.425-2.58-2.142a1.967 1.967 0 0 0-1.292-.48c-1.23 0-2.463-.016-3.694 0-1.012.014-1.692.717-1.709 1.73-.011.78-.009 1.561 0 2.334.012 1.065.707 1.748 1.78 1.754h6.323c.85 0 1.502-.451 1.765-1.19.253-.711.038-1.474-.593-2.006Zm-1.009 1.453c-.06.158-.225.085-.343.087H8.284c-.99 0-1.952-.01-2.92 0-.285 0-.401-.052-.39-.37.03-.582.03-1.171 0-1.75-.015-.337.111-.402.417-.397 1.041.017 2.076.013 3.113 0a.88.88 0 0 1 .617.219c.754.639 1.518 1.267 2.275 1.902.097.089.257.151.198.309Zm24.023-2.925c-.28-.728-.944-1.149-1.853-1.15H16.049c-.884 0-1.562.465-1.814 1.205-.253.74-.038 1.461.641 2.034.83.7 1.668 1.391 2.501 2.089.354.315.81.49 1.285.494h12.556c.409.01.808-.125 1.127-.381.94-.77 1.883-1.54 2.8-2.343a1.722 1.722 0 0 0 .471-1.948Zm-1.856.96c-.73.619-1.472 1.224-2.2 1.845a.863.863 0 0 1-.614.213 4631.94 4631.94 0 0 0-12.021 0 .802.802 0 0 1-.575-.183c-.75-.645-1.519-1.268-2.276-1.904-.106-.089-.306-.16-.247-.32.058-.16.26-.098.39-.098h17.375c.156 0 .381-.073.444.098.062.17-.159.25-.276.35Zm12.784-.279c-.007-1.133-.683-1.822-1.808-1.831-1.17-.008-2.334 0-3.501 0a2.114 2.114 0 0 0-1.432.511c-.829.702-1.67 1.388-2.502 2.083-.664.554-.892 1.3-.63 2.036.27.76.91 1.19 1.814 1.194h6.176c1.222 0 1.876-.664 1.879-1.9.007-.7.008-1.395.004-2.093Zm-1.653 1.991c.01.281-.084.353-.356.349-.988-.016-1.978 0-2.967 0h-2.967c-.115 0-.281.077-.33-.103-.037-.13.098-.19.181-.26.781-.65 1.574-1.302 2.354-1.96a.752.752 0 0 1 .53-.181c1.054.008 2.107.012 3.161 0 .28 0 .41.044.39.367-.022.587-.017 1.188.004 1.788Zm1.653-1.991c-.007-1.133-.683-1.822-1.808-1.831-1.17-.008-2.334 0-3.501 0a2.114 2.114 0 0 0-1.432.511c-.829.702-1.67 1.388-2.502 2.083-.664.554-.892 1.3-.63 2.036.27.76.91 1.19 1.814 1.194h6.176c1.222 0 1.876-.664 1.879-1.9.007-.7.008-1.395.004-2.093Zm-1.653 1.991c.01.281-.084.353-.356.349-.988-.016-1.978 0-2.967 0h-2.967c-.115 0-.281.077-.33-.103-.037-.13.098-.19.181-.26.781-.65 1.574-1.302 2.354-1.96a.752.752 0 0 1 .53-.181c1.054.008 2.107.012 3.161 0 .28 0 .41.044.39.367-.022.587-.017 1.188.004 1.788Zm-9.276-2.672c-.28-.728-.943-1.149-1.852-1.15H16.049c-.884 0-1.562.465-1.814 1.205-.253.74-.038 1.461.641 2.034.83.7 1.668 1.391 2.501 2.089.354.315.81.49 1.285.494h12.556c.409.01.808-.125 1.127-.381.94-.77 1.883-1.54 2.8-2.343a1.722 1.722 0 0 0 .471-1.948Zm-1.855.96c-.73.619-1.472 1.224-2.2 1.845a.863.863 0 0 1-.614.213 4631.94 4631.94 0 0 0-12.021 0 .802.802 0 0 1-.575-.183c-.75-.645-1.519-1.268-2.276-1.904-.106-.089-.306-.16-.247-.32.058-.16.26-.098.39-.098h17.375c.156 0 .381-.073.444.098.062.17-.159.25-.276.35Zm-21.158.512c-.854-.72-1.722-1.425-2.58-2.142a1.967 1.967 0 0 0-1.292-.48c-1.23 0-2.463-.016-3.694 0-1.012.014-1.692.717-1.709 1.73-.011.78-.009 1.561 0 2.334.012 1.065.707 1.748 1.78 1.754h6.323c.85 0 1.502-.451 1.765-1.19.253-.711.038-1.474-.593-2.006Zm-1.009 1.453c-.06.158-.225.085-.343.087H8.284c-.99 0-1.952-.01-2.92 0-.285 0-.401-.052-.39-.37.03-.582.03-1.171 0-1.75-.015-.337.111-.402.417-.397 1.041.017 2.076.013 3.113 0a.88.88 0 0 1 .617.219c.754.639 1.518 1.267 2.275 1.902.097.089.257.151.198.309Zm1.009-1.453c-.854-.72-1.722-1.425-2.58-2.142a1.967 1.967 0 0 0-1.292-.48c-1.23 0-2.463-.016-3.694 0-1.012.014-1.692.717-1.709 1.73-.011.78-.009 1.561 0 2.334.012 1.065.707 1.748 1.78 1.754h6.323c.85 0 1.502-.451 1.765-1.19.253-.711.038-1.474-.593-2.006Zm-1.009 1.453c-.06.158-.225.085-.343.087H8.284c-.99 0-1.952-.01-2.92 0-.285 0-.401-.052-.39-.37.03-.582.03-1.171 0-1.75-.015-.337.111-.402.417-.397 1.041.017 2.076.013 3.113 0a.88.88 0 0 1 .617.219c.754.639 1.518 1.267 2.275 1.902.097.089.257.151.198.309Zm24.023-2.925c-.28-.728-.944-1.149-1.853-1.15H16.049c-.884 0-1.562.465-1.814 1.205-.253.74-.038 1.461.641 2.034.83.7 1.668 1.391 2.501 2.089.354.315.81.49 1.285.494h12.556c.409.01.808-.125 1.127-.381.94-.77 1.883-1.54 2.8-2.343a1.722 1.722 0 0 0 .471-1.948Zm-1.856.96c-.73.619-1.472 1.224-2.2 1.845a.863.863 0 0 1-.614.213 4631.94 4631.94 0 0 0-12.021 0 .802.802 0 0 1-.575-.183c-.75-.645-1.519-1.268-2.276-1.904-.106-.089-.306-.16-.247-.32.058-.16.26-.098.39-.098h17.375c.156 0 .381-.073.444.098.062.17-.159.25-.276.35Zm12.784-.279c-.007-1.133-.683-1.822-1.808-1.831-1.17-.008-2.334 0-3.501 0a2.114 2.114 0 0 0-1.432.511c-.829.702-1.67 1.388-2.502 2.083-.664.554-.892 1.3-.63 2.036.27.76.91 1.19 1.814 1.194h6.176c1.222 0 1.876-.664 1.879-1.9.007-.7.008-1.395.004-2.093Zm-1.653 1.991c.01.281-.084.353-.356.349-.988-.016-1.978 0-2.967 0h-2.967c-.115 0-.281.077-.33-.103-.037-.13.098-.19.181-.26.781-.65 1.574-1.302 2.354-1.96a.752.752 0 0 1 .53-.181c1.054.008 2.107.012 3.161 0 .28 0 .41.044.39.367-.022.587-.017 1.188.004 1.788Zm1.653-1.991c-.007-1.133-.683-1.822-1.808-1.831-1.17-.008-2.334 0-3.501 0a2.114 2.114 0 0 0-1.432.511c-.829.702-1.67 1.388-2.502 2.083-.664.554-.892 1.3-.63 2.036.27.76.91 1.19 1.814 1.194h6.176c1.222 0 1.876-.664 1.879-1.9.007-.7.008-1.395.004-2.093Zm-1.653 1.991c.01.281-.084.353-.356.349-.988-.016-1.978 0-2.967 0h-2.967c-.115 0-.281.077-.33-.103-.037-.13.098-.19.181-.26.781-.65 1.574-1.302 2.354-1.96a.752.752 0 0 1 .53-.181c1.054.008 2.107.012 3.161 0 .28 0 .41.044.39.367-.022.587-.017 1.188.004 1.788Zm-9.276-2.672c-.28-.728-.943-1.149-1.852-1.15H16.049c-.884 0-1.562.465-1.814 1.205-.253.74-.038 1.461.641 2.034.83.7 1.668 1.391 2.501 2.089.354.315.81.49 1.285.494h12.556c.409.01.808-.125 1.127-.381.94-.77 1.883-1.54 2.8-2.343a1.722 1.722 0 0 0 .471-1.948Zm-1.855.96c-.73.619-1.472 1.224-2.2 1.845a.863.863 0 0 1-.614.213 4631.94 4631.94 0 0 0-12.021 0 .802.802 0 0 1-.575-.183c-.75-.645-1.519-1.268-2.276-1.904-.106-.089-.306-.16-.247-.32.058-.16.26-.098.39-.098h17.375c.156 0 .381-.073.444.098.062.17-.159.25-.276.35Zm-21.158.512c-.854-.72-1.722-1.425-2.58-2.142a1.967 1.967 0 0 0-1.292-.48c-1.23 0-2.463-.016-3.694 0-1.012.014-1.692.717-1.709 1.73-.011.78-.009 1.561 0 2.334.012 1.065.707 1.748 1.78 1.754h6.323c.85 0 1.502-.451 1.765-1.19.253-.711.038-1.474-.593-2.006Zm-1.009 1.453c-.06.158-.225.085-.343.087H8.284c-.99 0-1.952-.01-2.92 0-.285 0-.401-.052-.39-.37.03-.582.03-1.171 0-1.75-.015-.337.111-.402.417-.397 1.041.017 2.076.013 3.113 0a.88.88 0 0 1 .617.219c.754.639 1.518 1.267 2.275 1.902.097.089.257.151.198.309Zm1.009-1.453c-.854-.72-1.722-1.425-2.58-2.142a1.967 1.967 0 0 0-1.292-.48c-1.23 0-2.463-.016-3.694 0-1.012.014-1.692.717-1.709 1.73-.011.78-.009 1.561 0 2.334.012 1.065.707 1.748 1.78 1.754h6.323c.85 0 1.502-.451 1.765-1.19.253-.711.038-1.474-.593-2.006Zm-1.009 1.453c-.06.158-.225.085-.343.087H8.284c-.99 0-1.952-.01-2.92 0-.285 0-.401-.052-.39-.37.03-.582.03-1.171 0-1.75-.015-.337.111-.402.417-.397 1.041.017 2.076.013 3.113 0a.88.88 0 0 1 .617.219c.754.639 1.518 1.267 2.275 1.902.097.089.257.151.198.309Zm24.023-2.925c-.28-.728-.944-1.149-1.853-1.15H16.049c-.884 0-1.562.465-1.814 1.205-.253.74-.038 1.461.641 2.034.83.7 1.668 1.391 2.501 2.089.354.315.81.49 1.285.494h12.556c.409.01.808-.125 1.127-.381.94-.77 1.883-1.54 2.8-2.343a1.722 1.722 0 0 0 .471-1.948Zm-1.856.96c-.73.619-1.472 1.224-2.2 1.845a.863.863 0 0 1-.614.213 4631.94 4631.94 0 0 0-12.021 0 .802.802 0 0 1-.575-.183c-.75-.645-1.519-1.268-2.276-1.904-.106-.089-.306-.16-.247-.32.058-.16.26-.098.39-.098h17.375c.156 0 .381-.073.444.098.062.17-.159.25-.276.35Zm12.784-.279c-.007-1.133-.683-1.822-1.808-1.831-1.17-.008-2.334 0-3.501 0a2.114 2.114 0 0 0-1.432.511c-.829.702-1.67 1.388-2.502 2.083-.664.554-.892 1.3-.63 2.036.27.76.91 1.19 1.814 1.194h6.176c1.222 0 1.876-.664 1.879-1.9.007-.7.008-1.395.004-2.093Zm-1.653 1.991c.01.281-.084.353-.356.349-.988-.016-1.978 0-2.967 0h-2.967c-.115 0-.281.077-.33-.103-.037-.13.098-.19.181-.26.781-.65 1.574-1.302 2.354-1.96a.752.752 0 0 1 .53-.181c1.054.008 2.107.012 3.161 0 .28 0 .41.044.39.367-.022.587-.017 1.188.004 1.788Zm1.653-1.991c-.007-1.133-.683-1.822-1.808-1.831-1.17-.008-2.334 0-3.501 0a2.114 2.114 0 0 0-1.432.511c-.829.702-1.67 1.388-2.502 2.083-.664.554-.892 1.3-.63 2.036.27.76.91 1.19 1.814 1.194h6.176c1.222 0 1.876-.664 1.879-1.9.007-.7.008-1.395.004-2.093Zm-1.653 1.991c.01.281-.084.353-.356.349-.988-.016-1.978 0-2.967 0h-2.967c-.115 0-.281.077-.33-.103-.037-.13.098-.19.181-.26.781-.65 1.574-1.302 2.354-1.96a.752.752 0 0 1 .53-.181c1.054.008 2.107.012 3.161 0 .28 0 .41.044.39.367-.022.587-.017 1.188.004 1.788Zm-11.129-3.822H16.05c-.884 0-1.562.465-1.814 1.205-.253.74-.038 1.461.641 2.034.83.7 1.668 1.391 2.501 2.089.354.315.81.49 1.285.494h12.556c.409.01.808-.125 1.127-.381.94-.77 1.883-1.54 2.8-2.343a1.722 1.722 0 0 0 .471-1.952c-.28-.724-.943-1.145-1.852-1.146Zm0 2.11c-.73.619-1.471 1.224-2.199 1.845a.863.863 0 0 1-.614.213 4631.94 4631.94 0 0 0-12.021 0 .802.802 0 0 1-.576-.183c-.75-.645-1.518-1.268-2.276-1.904-.105-.089-.306-.16-.247-.32s.26-.098.39-.098h17.376c.156 0 .38-.073.443.098.063.17-.161.25-.278.35h.002Zm-21.16.512c-.854-.72-1.722-1.425-2.58-2.142a1.967 1.967 0 0 0-1.292-.48c-1.23 0-2.463-.016-3.694 0-1.012.014-1.692.717-1.709 1.73-.011.78-.009 1.561 0 2.334.012 1.065.707 1.748 1.78 1.754h6.323c.85 0 1.502-.451 1.765-1.19.253-.711.038-1.474-.593-2.006Zm-1.009 1.453c-.06.158-.225.085-.343.087H8.284c-.99 0-1.952-.01-2.92 0-.285 0-.401-.052-.39-.37.03-.582.03-1.171 0-1.75-.015-.337.111-.402.417-.397 1.041.017 2.076.013 3.113 0a.88.88 0 0 1 .617.219c.754.639 1.518 1.267 2.275 1.902.097.089.257.151.198.309Zm37.025-9.257a2.44 2.44 0 0 0 1.246-1.752v-.973a.371.371 0 0 1-.077-.11c-.307-1.208-1.21-1.925-2.456-1.94-.39 0-.78.016-1.17 0-.883-.05-1.673.143-2.286.81a.41.41 0 0 1-.157-.268c-.442-1.32-.937-2.623-1.312-3.959-.499-1.77-2.003-3.26-4.504-3.245-8.483.049-16.97.07-25.452-.01-2.948-.027-4.48 1.232-5.163 3.757-.34 1.259-.817 2.48-1.252 3.774-.672-.736-1.483-.917-2.378-.865-.357.02-.715 0-1.071 0-1.473.013-2.574 1.066-2.582 2.466-.01 1.424 1.1 2.498 2.59 2.51h1.24C2.763 27.66 1.79 28.634.809 29.601A2.62 2.62 0 0 0 0 31.562c.007 3.57.007 7.138 0 10.708 0 1.05.455 1.842 1.39 2.324.234.12.277.26.273.485a49.666 49.666 0 0 0 0 2.288c.035 1.111.578 1.89 1.606 2.33.112.049.268.02.333.165h6.816c1.402-.274 2.17-1.198 2.193-2.643.008-.438 0-.876 0-1.313 0-.86 0-.86.855-.86h22.916c.13 0 .26.007.39 0 .33-.014.468.142.466.468v1.654c.016 1.444.728 2.357 2.097 2.691h6.828c.359-.076.728-.11 1.04-.351.705-.548 1.122-1.246 1.137-2.153.011-.663.013-1.327 0-1.99-.007-.338.086-.58.39-.767.618-.376 1.041-.911 1.137-1.653V30.973c-.056-.651-.39-1.131-.853-1.571-.797-.76-1.562-1.551-2.343-2.335-.092-.093-.247-.156-.236-.349.743-.024 1.496.084 2.183-.321Zm-2.835-3.115c.52-.012 1.038-.012 1.552 0 .5.011.85.346.866.797.015.452-.347.836-.862.854-.372.014-.744 0-1.117 0-.178 0-.38.055-.528-.01-.268-.12-.805.374-.812-.352-.008-.943.214-1.275.9-1.29Zm-38.661 1.17c.691-2 1.35-4.014 2.027-6.02.399-1.18 1.238-1.798 2.473-1.798 8.874-.005 17.748-.005 26.62 0 1.238 0 2.073.617 2.473 1.804.684 2.021 1.346 4.05 2.042 6.067.13.39.035.436-.334.436-5.823-.011-11.647-.014-17.472-.008-5.824.006-11.646.01-17.463.014-.438.002-.51-.066-.366-.489v-.005Zm-3.538.485h-.556v-.053a.354.354 0 0 0 0 .053H2.52c-.494-.02-.846-.364-.853-.813-.01-.469.354-.827.874-.84.485-.011.97 0 1.456 0 .683 0 .974.292.987.965.011.693.011.693-.67.693l-.73-.005ZM10.81 47.25c-.008.64-.322.953-.966.954a853.47 853.47 0 0 1-5.543 0c-.664 0-.968-.319-.975-.995-.006-.633.018-1.265-.009-1.897-.014-.331.064-.443.418-.436 1.118.025 2.237.01 3.354.01 1.118 0 2.239.011 3.357-.008.303 0 .39.078.373.377-.023.665-.001 1.33-.01 1.995Zm-7.893-4.02c-1.03 0-1.25-.225-1.25-1.262 0-3.392 0-6.783-.008-10.174a1.485 1.485 0 0 1 .47-1.162 291.443 291.443 0 0 0 3.754-3.75.863.863 0 0 1 .671-.289c12.25.008 24.5.008 36.75 0a.807.807 0 0 1 .643.241 394.457 394.457 0 0 0 3.854 3.855 1.346 1.346 0 0 1 .41 1.04c-.01 3.457 0 6.912 0 10.369 0 .857-.275 1.128-1.142 1.13l-44.152.002Zm42.628 4.979H40.05c-.675 0-.982-.309-.99-.977-.008-.67.011-1.33-.007-1.995-.008-.271.067-.357.346-.353 1.135.016 2.27 0 3.405 0 1.134 0 2.237.013 3.354-.008.331 0 .405.1.39.409-.023.63 0 1.263-.007 1.896-.001.713-.3 1.024-.995 1.025v.003Zm-.808-16.627c-1.17-.008-2.334 0-3.501 0a2.115 2.115 0 0 0-1.432.511c-.829.701-1.67 1.387-2.502 2.082-.664.555-.892 1.302-.63 2.037.27.76.91 1.19 1.814 1.193h6.176c1.222 0 1.876-.664 1.879-1.9v-2.091c-.003-1.138-.68-1.827-1.804-1.835v.003Zm.155 3.822c.01.28-.084.352-.356.348-.988-.015-1.978 0-2.967 0h-2.967c-.115 0-.281.077-.33-.102-.037-.13.098-.19.181-.26.781-.651 1.574-1.302 2.354-1.96a.752.752 0 0 1 .53-.181c1.054.007 2.107.011 3.161 0 .28 0 .41.044.39.367-.022.584-.017 1.185.004 1.785v.003Zm-11.129-3.822H16.05c-.884 0-1.562.464-1.814 1.205-.253.74-.038 1.461.641 2.034.83.7 1.668 1.39 2.501 2.088.354.316.81.491 1.285.495h12.556c.409.01.808-.125 1.127-.382.94-.77 1.883-1.539 2.8-2.342a1.722 1.722 0 0 0 .471-1.952c-.28-.727-.943-1.148-1.852-1.149v.003Zm0 2.11c-.73.618-1.471 1.224-2.199 1.844a.863.863 0 0 1-.614.214 4631.94 4631.94 0 0 0-12.021 0 .802.802 0 0 1-.576-.184c-.75-.644-1.518-1.267-2.276-1.904-.105-.088-.306-.16-.247-.32s.26-.097.39-.097h17.376c.156 0 .38-.073.443.097.063.17-.161.249-.278.348l.002.002Zm-21.16.51c-.854-.722-1.722-1.426-2.58-2.143a1.967 1.967 0 0 0-1.292-.48c-1.23 0-2.463-.016-3.694 0-1.012.014-1.692.717-1.709 1.73-.011.78-.009 1.561 0 2.334.012 1.065.707 1.748 1.78 1.754h6.323c.85 0 1.502-.451 1.765-1.19.253-.711.038-1.474-.593-2.006Zm-1.009 1.452c-.06.158-.225.085-.343.087H8.284c-.99 0-1.952-.01-2.92 0-.285 0-.401-.052-.39-.37.03-.582.03-1.171 0-1.75-.015-.337.111-.402.417-.397 1.041.017 2.076.013 3.113 0a.88.88 0 0 1 .617.219c.754.639 1.518 1.267 2.275 1.902.097.089.257.151.198.309Zm1.009-1.453c-.854-.72-1.722-1.425-2.58-2.142a1.967 1.967 0 0 0-1.292-.48c-1.23 0-2.463-.016-3.694 0-1.012.014-1.692.717-1.709 1.73-.011.78-.009 1.561 0 2.334.012 1.065.707 1.748 1.78 1.754h6.323c.85 0 1.502-.451 1.765-1.19.253-.711.038-1.474-.593-2.006Zm-1.009 1.453c-.06.158-.225.085-.343.087H8.284c-.99 0-1.952-.01-2.92 0-.285 0-.401-.052-.39-.37.03-.582.03-1.171 0-1.75-.015-.337.111-.402.417-.397 1.041.017 2.076.013 3.113 0a.88.88 0 0 1 .617.219c.754.639 1.518 1.267 2.275 1.902.097.089.257.151.198.309Zm24.023-2.925c-.28-.728-.944-1.149-1.853-1.15H16.049c-.884 0-1.562.465-1.814 1.205-.253.74-.038 1.461.641 2.034.83.7 1.668 1.391 2.501 2.089.354.315.81.49 1.285.494h12.556c.409.01.808-.125 1.127-.381.94-.77 1.883-1.54 2.8-2.343a1.722 1.722 0 0 0 .471-1.948Zm-1.856.96c-.73.619-1.472 1.224-2.2 1.845a.863.863 0 0 1-.614.213 4631.94 4631.94 0 0 0-12.021 0 .802.802 0 0 1-.575-.183c-.75-.645-1.519-1.268-2.276-1.904-.106-.089-.306-.16-.247-.32.058-.16.26-.098.39-.098h17.375c.156 0 .381-.073.444.098.062.17-.159.25-.276.35Zm12.784-.279c-.007-1.133-.683-1.822-1.808-1.831-1.17-.008-2.334 0-3.501 0a2.114 2.114 0 0 0-1.432.511c-.829.702-1.67 1.388-2.502 2.083-.664.554-.892 1.3-.63 2.036.27.76.91 1.19 1.814 1.194h6.176c1.222 0 1.876-.664 1.879-1.9.007-.7.008-1.395.004-2.093Zm-1.653 1.991c.01.281-.084.353-.356.349-.988-.016-1.978 0-2.967 0h-2.967c-.115 0-.281.077-.33-.103-.037-.13.098-.19.181-.26.781-.65 1.574-1.302 2.354-1.96a.752.752 0 0 1 .53-.181c1.054.008 2.107.012 3.161 0 .28 0 .41.044.39.367-.022.587-.017 1.188.004 1.788Zm1.653-1.991c-.007-1.133-.683-1.822-1.808-1.831-1.17-.008-2.334 0-3.501 0a2.114 2.114 0 0 0-1.432.511c-.829.702-1.67 1.388-2.502 2.083-.664.554-.892 1.3-.63 2.036.27.76.91 1.19 1.814 1.194h6.176c1.222 0 1.876-.664 1.879-1.9.007-.7.008-1.395.004-2.093Zm-1.653 1.991c.01.281-.084.353-.356.349-.988-.016-1.978 0-2.967 0h-2.967c-.115 0-.281.077-.33-.103-.037-.13.098-.19.181-.26.781-.65 1.574-1.302 2.354-1.96a.752.752 0 0 1 .53-.181c1.054.008 2.107.012 3.161 0 .28 0 .41.044.39.367-.022.587-.017 1.188.004 1.788Zm-9.276-2.672c-.28-.728-.943-1.149-1.852-1.15H16.049c-.884 0-1.562.465-1.814 1.205-.253.74-.038 1.461.641 2.034.83.7 1.668 1.391 2.501 2.089.354.315.81.49 1.285.494h12.556c.409.01.808-.125 1.127-.381.94-.77 1.883-1.54 2.8-2.343a1.722 1.722 0 0 0 .471-1.948Zm-1.855.96c-.73.619-1.472 1.224-2.2 1.845a.863.863 0 0 1-.614.213 4631.94 4631.94 0 0 0-12.021 0 .802.802 0 0 1-.575-.183c-.75-.645-1.519-1.268-2.276-1.904-.106-.089-.306-.16-.247-.32.058-.16.26-.098.39-.098h17.375c.156 0 .381-.073.444.098.062.17-.159.25-.276.35Zm-21.158.512c-.854-.72-1.722-1.425-2.58-2.142a1.967 1.967 0 0 0-1.292-.48c-1.23 0-2.463-.016-3.694 0-1.012.014-1.692.717-1.709 1.73-.011.78-.009 1.561 0 2.334.012 1.065.707 1.748 1.78 1.754h6.323c.85 0 1.502-.451 1.765-1.19.253-.711.038-1.474-.593-2.006Zm-1.009 1.453c-.06.158-.225.085-.343.087H8.284c-.99 0-1.952-.01-2.92 0-.285 0-.401-.052-.39-.37.03-.582.03-1.171 0-1.75-.015-.337.111-.402.417-.397 1.041.017 2.076.013 3.113 0a.88.88 0 0 1 .617.219c.754.639 1.518 1.267 2.275 1.902.097.089.257.151.198.309Zm1.009-1.453c-.854-.72-1.722-1.425-2.58-2.142a1.967 1.967 0 0 0-1.292-.48c-1.23 0-2.463-.016-3.694 0-1.012.014-1.692.717-1.709 1.73-.011.78-.009 1.561 0 2.334.012 1.065.707 1.748 1.78 1.754h6.323c.85 0 1.502-.451 1.765-1.19.253-.711.038-1.474-.593-2.006Zm-1.009 1.453c-.06.158-.225.085-.343.087H8.284c-.99 0-1.952-.01-2.92 0-.285 0-.401-.052-.39-.37.03-.582.03-1.171 0-1.75-.015-.337.111-.402.417-.397 1.041.017 2.076.013 3.113 0a.88.88 0 0 1 .617.219c.754.639 1.518 1.267 2.275 1.902.097.089.257.151.198.309Zm24.023-2.925c-.28-.728-.944-1.149-1.853-1.15H16.049c-.884 0-1.562.465-1.814 1.205-.253.74-.038 1.461.641 2.034.83.7 1.668 1.391 2.501 2.089.354.315.81.49 1.285.494h12.556c.409.01.808-.125 1.127-.381.94-.77 1.883-1.54 2.8-2.343a1.722 1.722 0 0 0 .471-1.948Zm-1.856.96c-.73.619-1.472 1.224-2.2 1.845a.863.863 0 0 1-.614.213 4631.94 4631.94 0 0 0-12.021 0 .802.802 0 0 1-.575-.183c-.75-.645-1.519-1.268-2.276-1.904-.106-.089-.306-.16-.247-.32.058-.16.26-.098.39-.098h17.375c.156 0 .381-.073.444.098.062.17-.159.25-.276.35Zm12.784-.279c-.007-1.133-.683-1.822-1.808-1.831-1.17-.008-2.334 0-3.501 0a2.114 2.114 0 0 0-1.432.511c-.829.702-1.67 1.388-2.502 2.083-.664.554-.892 1.3-.63 2.036.27.76.91 1.19 1.814 1.194h6.176c1.222 0 1.876-.664 1.879-1.9.007-.7.008-1.395.004-2.093Zm-1.653 1.991c.01.281-.084.353-.356.349-.988-.016-1.978 0-2.967 0h-2.967c-.115 0-.281.077-.33-.103-.037-.13.098-.19.181-.26.781-.65 1.574-1.302 2.354-1.96a.752.752 0 0 1 .53-.181c1.054.008 2.107.012 3.161 0 .28 0 .41.044.39.367-.022.587-.017 1.188.004 1.788Zm1.653-1.991c-.007-1.133-.683-1.822-1.808-1.831-1.17-.008-2.334 0-3.501 0a2.114 2.114 0 0 0-1.432.511c-.829.702-1.67 1.388-2.502 2.083-.664.554-.892 1.3-.63 2.036.27.76.91 1.19 1.814 1.194h6.176c1.222 0 1.876-.664 1.879-1.9.007-.7.008-1.395.004-2.093Zm-1.653 1.991c.01.281-.084.353-.356.349-.988-.016-1.978 0-2.967 0h-2.967c-.115 0-.281.077-.33-.103-.037-.13.098-.19.181-.26.781-.65 1.574-1.302 2.354-1.96a.752.752 0 0 1 .53-.181c1.054.008 2.107.012 3.161 0 .28 0 .41.044.39.367-.022.587-.017 1.188.004 1.788Zm-9.276-2.672c-.28-.728-.943-1.149-1.852-1.15H16.049c-.884 0-1.562.465-1.814 1.205-.253.74-.038 1.461.641 2.034.83.7 1.668 1.391 2.501 2.089.354.315.81.49 1.285.494h12.556c.409.01.808-.125 1.127-.381.94-.77 1.883-1.54 2.8-2.343a1.722 1.722 0 0 0 .471-1.948Zm-1.855.96c-.73.619-1.472 1.224-2.2 1.845a.863.863 0 0 1-.614.213 4631.94 4631.94 0 0 0-12.021 0 .802.802 0 0 1-.575-.183c-.75-.645-1.519-1.268-2.276-1.904-.106-.089-.306-.16-.247-.32.058-.16.26-.098.39-.098h17.375c.156 0 .381-.073.444.098.062.17-.159.25-.276.35Zm-21.158.512c-.854-.72-1.722-1.425-2.58-2.142a1.967 1.967 0 0 0-1.292-.48c-1.23 0-2.463-.016-3.694 0-1.012.014-1.692.717-1.709 1.73-.011.78-.009 1.561 0 2.334.012 1.065.707 1.748 1.78 1.754h6.323c.85 0 1.502-.451 1.765-1.19.253-.711.038-1.474-.593-2.006Zm-1.009 1.453c-.06.158-.225.085-.343.087H8.284c-.99 0-1.952-.01-2.92 0-.285 0-.401-.052-.39-.37.03-.582.03-1.171 0-1.75-.015-.337.111-.402.417-.397 1.041.017 2.076.013 3.113 0a.88.88 0 0 1 .617.219c.754.639 1.518 1.267 2.275 1.902.097.089.257.151.198.309Zm1.009-1.453c-.854-.72-1.722-1.425-2.58-2.142a1.967 1.967 0 0 0-1.292-.48c-1.23 0-2.463-.016-3.694 0-1.012.014-1.692.717-1.709 1.73-.011.78-.009 1.561 0 2.334.012 1.065.707 1.748 1.78 1.754h6.323c.85 0 1.502-.451 1.765-1.19.253-.711.038-1.474-.593-2.006Zm-1.009 1.453c-.06.158-.225.085-.343.087H8.284c-.99 0-1.952-.01-2.92 0-.285 0-.401-.052-.39-.37.03-.582.03-1.171 0-1.75-.015-.337.111-.402.417-.397 1.041.017 2.076.013 3.113 0a.88.88 0 0 1 .617.219c.754.639 1.518 1.267 2.275 1.902.097.089.257.151.198.309Zm24.023-2.925c-.28-.728-.944-1.149-1.853-1.15H16.049c-.884 0-1.562.465-1.814 1.205-.253.74-.038 1.461.641 2.034.83.7 1.668 1.391 2.501 2.089.354.315.81.49 1.285.494h12.556c.409.01.808-.125 1.127-.381.94-.77 1.883-1.54 2.8-2.343a1.722 1.722 0 0 0 .471-1.948Zm-1.856.96c-.73.619-1.472 1.224-2.2 1.845a.863.863 0 0 1-.614.213 4631.94 4631.94 0 0 0-12.021 0 .802.802 0 0 1-.575-.183c-.75-.645-1.519-1.268-2.276-1.904-.106-.089-.306-.16-.247-.32.058-.16.26-.098.39-.098h17.375c.156 0 .381-.073.444.098.062.17-.159.25-.276.35Zm12.784-.279c-.007-1.133-.683-1.822-1.808-1.831-1.17-.008-2.334 0-3.501 0a2.114 2.114 0 0 0-1.432.511c-.829.702-1.67 1.388-2.502 2.083-.664.554-.892 1.3-.63 2.036.27.76.91 1.19 1.814 1.194h6.176c1.222 0 1.876-.664 1.879-1.9.007-.7.008-1.395.004-2.093Zm-1.653 1.991c.01.281-.084.353-.356.349-.988-.016-1.978 0-2.967 0h-2.967c-.115 0-.281.077-.33-.103-.037-.13.098-.19.181-.26.781-.65 1.574-1.302 2.354-1.96a.752.752 0 0 1 .53-.181c1.054.008 2.107.012 3.161 0 .28 0 .41.044.39.367-.022.587-.017 1.188.004 1.788Zm1.653-1.991c-.007-1.133-.683-1.822-1.808-1.831-1.17-.008-2.334 0-3.501 0a2.114 2.114 0 0 0-1.432.511c-.829.702-1.67 1.388-2.502 2.083-.664.554-.892 1.3-.63 2.036.27.76.91 1.19 1.814 1.194h6.176c1.222 0 1.876-.664 1.879-1.9.007-.7.008-1.395.004-2.093Zm-1.653 1.991c.01.281-.084.353-.356.349-.988-.016-1.978 0-2.967 0h-2.967c-.115 0-.281.077-.33-.103-.037-.13.098-.19.181-.26.781-.65 1.574-1.302 2.354-1.96a.752.752 0 0 1 .53-.181c1.054.008 2.107.012 3.161 0 .28 0 .41.044.39.367-.022.587-.017 1.188.004 1.788Zm-9.276-2.672c-.28-.728-.943-1.149-1.852-1.15H16.049c-.884 0-1.562.465-1.814 1.205-.253.74-.038 1.461.641 2.034.83.7 1.668 1.391 2.501 2.089.354.315.81.49 1.285.494h12.556c.409.01.808-.125 1.127-.381.94-.77 1.883-1.54 2.8-2.343a1.722 1.722 0 0 0 .471-1.948Zm-1.855.96c-.73.619-1.472 1.224-2.2 1.845a.863.863 0 0 1-.614.213 4631.94 4631.94 0 0 0-12.021 0 .802.802 0 0 1-.575-.183c-.75-.645-1.519-1.268-2.276-1.904-.106-.089-.306-.16-.247-.32.058-.16.26-.098.39-.098h17.375c.156 0 .381-.073.444.098.062.17-.159.25-.276.35Zm-21.158.512c-.854-.72-1.722-1.425-2.58-2.142a1.967 1.967 0 0 0-1.292-.48c-1.23 0-2.463-.016-3.694 0-1.012.014-1.692.717-1.709 1.73-.011.78-.009 1.561 0 2.334.012 1.065.707 1.748 1.78 1.754h6.323c.85 0 1.502-.451 1.765-1.19.253-.711.038-1.474-.593-2.006Zm-1.009 1.453c-.06.158-.225.085-.343.087H8.284c-.99 0-1.952-.01-2.92 0-.285 0-.401-.052-.39-.37.03-.582.03-1.171 0-1.75-.015-.337.111-.402.417-.397 1.041.017 2.076.013 3.113 0a.88.88 0 0 1 .617.219c.754.639 1.518 1.267 2.275 1.902.097.089.257.151.198.309ZM14.968 5.06c-.034-1.053-.715-1.717-1.76-1.73a44.744 44.744 0 0 0-1.507 0c-.976.017-1.68.65-1.715 1.617a49.416 49.416 0 0 0 0 3.402c.03.975.715 1.598 1.701 1.623.502.013 1.005.009 1.507 0 1.093-.017 1.749-.664 1.776-1.754.013-.52 0-1.041 0-1.562 0-.52.015-1.063-.002-1.597Zm-1.952 3.253a13.14 13.14 0 0 0-1.069 0c-.275.015-.321-.112-.313-.346.013-.453 0-.911 0-1.36 0-.146-.01-.292 0-.438.027-.382-.175-.97.08-1.104.37-.194.91-.066 1.375-.082.182-.007.213.098.212.245v2.817c.011.23-.086.274-.285.269v-.001Zm1.952-3.254c-.034-1.052-.715-1.716-1.76-1.73a44.744 44.744 0 0 0-1.507 0c-.976.018-1.68.651-1.715 1.618a49.416 49.416 0 0 0 0 3.402c.03.975.715 1.598 1.701 1.623.502.013 1.005.009 1.507 0 1.093-.017 1.749-.664 1.776-1.754.013-.52 0-1.041 0-1.562 0-.52.015-1.063-.002-1.597Zm-1.952 3.254a13.14 13.14 0 0 0-1.069 0c-.275.015-.321-.112-.313-.346.013-.453 0-.911 0-1.36 0-.146-.01-.292 0-.438.027-.382-.175-.97.08-1.104.37-.194.91-.066 1.375-.082.182-.007.213.098.212.245v2.817c.011.23-.086.274-.285.269v-.001Zm1.952-3.254c-.034-1.052-.715-1.716-1.76-1.73a44.744 44.744 0 0 0-1.507 0c-.976.018-1.68.651-1.715 1.618a49.416 49.416 0 0 0 0 3.402c.03.975.715 1.598 1.701 1.623.502.013 1.005.009 1.507 0 1.093-.017 1.749-.664 1.776-1.754.013-.52 0-1.041 0-1.562 0-.52.015-1.063-.002-1.597Zm-1.952 3.254a13.14 13.14 0 0 0-1.069 0c-.275.015-.321-.112-.313-.346.013-.453 0-.911 0-1.36 0-.146-.01-.292 0-.438.027-.382-.175-.97.08-1.104.37-.194.91-.066 1.375-.082.182-.007.213.098.212.245v2.817c.011.23-.086.274-.285.269v-.001Zm1.952-3.254c-.034-1.052-.715-1.716-1.76-1.73a44.744 44.744 0 0 0-1.507 0c-.976.018-1.68.651-1.715 1.618a49.416 49.416 0 0 0 0 3.402c.03.975.715 1.598 1.701 1.623.502.013 1.005.009 1.507 0 1.093-.017 1.749-.664 1.776-1.754.013-.52 0-1.041 0-1.562 0-.52.015-1.063-.002-1.597Zm-1.952 3.254a13.14 13.14 0 0 0-1.069 0c-.275.015-.321-.112-.313-.346.013-.453 0-.911 0-1.36 0-.146-.01-.292 0-.438.027-.382-.175-.97.08-1.104.37-.194.91-.066 1.375-.082.182-.007.213.098.212.245v2.817c.011.23-.086.274-.285.269v-.001Zm1.952-3.254c-.034-1.052-.715-1.716-1.76-1.73a44.744 44.744 0 0 0-1.507 0c-.976.018-1.68.651-1.715 1.618a49.416 49.416 0 0 0 0 3.402c.03.975.715 1.598 1.701 1.623.502.013 1.005.009 1.507 0 1.093-.017 1.749-.664 1.776-1.754.013-.52 0-1.041 0-1.562 0-.52.015-1.063-.002-1.597Zm-1.952 3.254a13.14 13.14 0 0 0-1.069 0c-.275.015-.321-.112-.313-.346.013-.453 0-.911 0-1.36 0-.146-.01-.292 0-.438.027-.382-.175-.97.08-1.104.37-.194.91-.066 1.375-.082.182-.007.213.098.212.245v2.817c.011.23-.086.274-.285.269v-.001Zm1.952-3.254c-.034-1.052-.715-1.716-1.76-1.73a44.744 44.744 0 0 0-1.507 0c-.976.018-1.68.651-1.715 1.618a49.416 49.416 0 0 0 0 3.402c.03.975.715 1.598 1.701 1.623.502.013 1.005.009 1.507 0 1.093-.017 1.749-.664 1.776-1.754.013-.52 0-1.041 0-1.562 0-.52.015-1.063-.002-1.597Zm-1.952 3.254a13.14 13.14 0 0 0-1.069 0c-.275.015-.321-.112-.313-.346.013-.453 0-.911 0-1.36 0-.146-.01-.292 0-.438.027-.382-.175-.97.08-1.104.37-.194.91-.066 1.375-.082.182-.007.213.098.212.245v2.817c.011.23-.086.274-.285.269v-.001Zm1.952-3.254c-.034-1.052-.715-1.716-1.76-1.73a44.744 44.744 0 0 0-1.507 0c-.976.018-1.68.651-1.715 1.618a49.416 49.416 0 0 0 0 3.402c.03.975.715 1.598 1.701 1.623.502.013 1.005.009 1.507 0 1.093-.017 1.749-.664 1.776-1.754.013-.52 0-1.041 0-1.562 0-.52.015-1.063-.002-1.597Zm-1.952 3.254a13.14 13.14 0 0 0-1.069 0c-.275.015-.321-.112-.313-.346.013-.453 0-.911 0-1.36 0-.146-.01-.292 0-.438.027-.382-.175-.97.08-1.104.37-.194.91-.066 1.375-.082.182-.007.213.098.212.245v2.817c.011.23-.086.274-.285.269v-.001Zm1.952-3.254c-.034-1.052-.715-1.716-1.76-1.73a44.744 44.744 0 0 0-1.507 0c-.976.018-1.68.651-1.715 1.618a49.416 49.416 0 0 0 0 3.402c.03.975.715 1.598 1.701 1.623.502.013 1.005.009 1.507 0 1.093-.017 1.749-.664 1.776-1.754.013-.52 0-1.041 0-1.562 0-.52.015-1.063-.002-1.597Zm-1.952 3.254a13.14 13.14 0 0 0-1.069 0c-.275.015-.321-.112-.313-.346.013-.453 0-.911 0-1.36 0-.146-.01-.292 0-.438.027-.382-.175-.97.08-1.104.37-.194.91-.066 1.375-.082.182-.007.213.098.212.245v2.817c.011.23-.086.274-.285.269v-.001Zm1.952-3.254c-.034-1.052-.715-1.716-1.76-1.73a44.744 44.744 0 0 0-1.507 0c-.976.018-1.68.651-1.715 1.618a49.416 49.416 0 0 0 0 3.402c.03.975.715 1.598 1.701 1.623.502.013 1.005.009 1.507 0 1.093-.017 1.749-.664 1.776-1.754.013-.52 0-1.041 0-1.562 0-.52.015-1.063-.002-1.597Zm-1.952 3.254a13.14 13.14 0 0 0-1.069 0c-.275.015-.321-.112-.313-.346.013-.453 0-.911 0-1.36 0-.146-.01-.292 0-.438.027-.382-.175-.97.08-1.104.37-.194.91-.066 1.375-.082.182-.007.213.098.212.245v2.817c.011.23-.086.274-.285.269v-.001Zm1.952-3.254c-.034-1.052-.715-1.716-1.76-1.73a44.744 44.744 0 0 0-1.507 0c-.976.018-1.68.651-1.715 1.618a49.416 49.416 0 0 0 0 3.402c.03.975.715 1.598 1.701 1.623.502.013 1.005.009 1.507 0 1.093-.017 1.749-.664 1.776-1.754.013-.52 0-1.041 0-1.562 0-.52.015-1.063-.002-1.597Zm-1.952 3.254a13.14 13.14 0 0 0-1.069 0c-.275.015-.321-.112-.313-.346.013-.453 0-.911 0-1.36 0-.146-.01-.292 0-.438.027-.382-.175-.97.08-1.104.37-.194.91-.066 1.375-.082.182-.007.213.098.212.245v2.817c.011.23-.086.274-.285.269v-.001Zm1.952-3.254c-.034-1.052-.715-1.716-1.76-1.73a44.744 44.744 0 0 0-1.507 0c-.976.018-1.68.651-1.715 1.618a49.416 49.416 0 0 0 0 3.402c.03.975.715 1.598 1.701 1.623.502.013 1.005.009 1.507 0 1.093-.017 1.749-.664 1.776-1.754.013-.52 0-1.041 0-1.562 0-.52.015-1.063-.002-1.597Zm-1.952 3.254a13.14 13.14 0 0 0-1.069 0c-.275.015-.321-.112-.313-.346.013-.453 0-.911 0-1.36 0-.146-.01-.292 0-.438.027-.382-.175-.97.08-1.104.37-.194.91-.066 1.375-.082.182-.007.213.098.212.245v2.817c.011.23-.086.274-.285.269v-.001Zm1.952-3.254c-.034-1.052-.715-1.716-1.76-1.73a44.744 44.744 0 0 0-1.507 0c-.976.018-1.68.651-1.715 1.618a49.416 49.416 0 0 0 0 3.402c.03.975.715 1.598 1.701 1.623.502.013 1.005.009 1.507 0 1.093-.017 1.749-.664 1.776-1.754.013-.52 0-1.041 0-1.562 0-.52.015-1.063-.002-1.597Zm-1.952 3.254a13.14 13.14 0 0 0-1.069 0c-.275.015-.321-.112-.313-.346.013-.453 0-.911 0-1.36 0-.146-.01-.292 0-.438.027-.382-.175-.97.08-1.104.37-.194.91-.066 1.375-.082.182-.007.213.098.212.245v2.817c.011.23-.086.274-.285.269v-.001ZM42.462 5.26c-.617-.474-1.255-.92-1.864-1.404a2.46 2.46 0 0 0-1.617-.535c-4.576.013-9.15 0-13.725.02-.586 0-1.033-.144-1.403-.595a2.838 2.838 0 0 0-2.578-1.08c-.13.012-.26-.007-.39 0-.189.019-.276-.062-.363-.234-.5-.972-1.31-1.431-2.402-1.431-1.217.008-2.434 0-3.644 0s-2.465.006-3.699 0a2.582 2.582 0 0 0-1.922.78l-1.45 1.457a2.525 2.525 0 0 0-.757 1.837 851.267 851.267 0 0 0 0 5.159 2.534 2.534 0 0 0 .781 1.873c.475.466.949.934 1.412 1.41a2.473 2.473 0 0 0 1.822.781c2.531.007 5.062.013 7.593 0 1.006-.006 1.773-.48 2.232-1.38.12-.235.26-.306.487-.28 1.262.142 2.29-.279 3.084-1.276.24-.303.568-.4.948-.39.73.01 1.464-.044 2.19.014.986.08 1.794-.191 2.384-.997.26-.356.462-.277.69.026.575.77 1.346 1.083 2.298.962.13-.017.261-.017.39 0 1.02.13 1.856-.185 2.473-1.019.24-.326.422-.247.625.022.61.816 1.431 1.122 2.43 1 .26-.017.521-.017.781 0a1.79 1.79 0 0 0 1.131-.374c.7-.527 1.41-1.04 2.097-1.58.987-.78.968-1.995-.034-2.765V5.26ZM19.11 10.61c0 .75-.273 1.026-1.027 1.028h-7.196a1.242 1.242 0 0 1-.987-.418 27.65 27.65 0 0 0-1.203-1.204 1.214 1.214 0 0 1-.39-.952c.007-1.605.007-3.21 0-4.815 0-.401.174-.684.41-.996.969-1.28 2.176-1.774 3.813-1.628 1.753.158 3.53.035 5.297.035 1.094 0 1.285.195 1.285 1.31v3.695c0 1.32.002 2.633-.002 3.946Zm22.122-3.692c-.536.361-1.04.77-1.562 1.16-.551.412-1.821.33-2.31-.153-.378-.378-.73-.798-1.302-.893-.664-.11-1.264.078-1.64.622-.645.928-1.573.65-2.423.629-.307 0-.486-.39-.713-.62-.33-.325-.68-.597-1.163-.65-.593-.062-1.114.12-1.47.584-.463.605-1.033.795-1.77.72-.546-.055-1.103.011-1.653-.016-.986-.05-1.831.242-2.458 1.019-.43.532-.954.717-1.623.662-.295-.024-.384-.092-.379-.39.019-.99.007-1.978.007-2.968s.01-1.952-.007-2.92c0-.292.07-.373.374-.391.65-.042 1.171.113 1.586.635.637.78 1.481 1.055 2.494 1.05 4.554-.028 9.118-.01 13.676-.018.29-.01.573.086.797.27.492.398 1 .781 1.517 1.137.272.194.343.31.016.536l.006-.005ZM14.968 5.059c-.034-1.052-.715-1.716-1.76-1.73a44.744 44.744 0 0 0-1.507 0c-.976.018-1.68.651-1.715 1.618a49.416 49.416 0 0 0 0 3.402c.03.975.715 1.598 1.701 1.623.502.013 1.005.009 1.507 0 1.093-.017 1.749-.664 1.776-1.754.013-.52 0-1.041 0-1.562 0-.52.015-1.063-.002-1.597Zm-1.952 3.254a13.14 13.14 0 0 0-1.069 0c-.275.015-.321-.112-.313-.346.013-.453 0-.911 0-1.36 0-.146-.01-.292 0-.438.027-.382-.175-.97.08-1.104.37-.194.91-.066 1.375-.082.182-.007.213.098.212.245v2.817c.011.23-.086.274-.285.269v-.001Zm1.952-3.254c-.034-1.052-.715-1.716-1.76-1.73a44.744 44.744 0 0 0-1.507 0c-.976.018-1.68.651-1.715 1.618a49.416 49.416 0 0 0 0 3.402c.03.975.715 1.598 1.701 1.623.502.013 1.005.009 1.507 0 1.093-.017 1.749-.664 1.776-1.754.013-.52 0-1.041 0-1.562 0-.52.015-1.063-.002-1.597Zm-1.952 3.254a13.14 13.14 0 0 0-1.069 0c-.275.015-.321-.112-.313-.346.013-.453 0-.911 0-1.36 0-.146-.01-.292 0-.438.027-.382-.175-.97.08-1.104.37-.194.91-.066 1.375-.082.182-.007.213.098.212.245v2.817c.011.23-.086.274-.285.269v-.001Zm1.952-3.254c-.034-1.052-.715-1.716-1.76-1.73a44.744 44.744 0 0 0-1.507 0c-.976.018-1.68.651-1.715 1.618a49.416 49.416 0 0 0 0 3.402c.03.975.715 1.598 1.701 1.623.502.013 1.005.009 1.507 0 1.093-.017 1.749-.664 1.776-1.754.013-.52 0-1.041 0-1.562 0-.52.015-1.063-.002-1.597Zm-1.952 3.254a13.14 13.14 0 0 0-1.069 0c-.275.015-.321-.112-.313-.346.013-.453 0-.911 0-1.36 0-.146-.01-.292 0-.438.027-.382-.175-.97.08-1.104.37-.194.91-.066 1.375-.082.182-.007.213.098.212.245v2.817c.011.23-.086.274-.285.269v-.001Zm1.952-3.254c-.034-1.052-.715-1.716-1.76-1.73a44.744 44.744 0 0 0-1.507 0c-.976.018-1.68.651-1.715 1.618a49.416 49.416 0 0 0 0 3.402c.03.975.715 1.598 1.701 1.623.502.013 1.005.009 1.507 0 1.093-.017 1.749-.664 1.776-1.754.013-.52 0-1.041 0-1.562 0-.52.015-1.063-.002-1.597Zm-1.952 3.254a13.14 13.14 0 0 0-1.069 0c-.275.015-.321-.112-.313-.346.013-.453 0-.911 0-1.36 0-.146-.01-.292 0-.438.027-.382-.175-.97.08-1.104.37-.194.91-.066 1.375-.082.182-.007.213.098.212.245v2.817c.011.23-.086.274-.285.269v-.001Zm1.952-3.254c-.034-1.052-.715-1.716-1.76-1.73a44.744 44.744 0 0 0-1.507 0c-.976.018-1.68.651-1.715 1.618a49.416 49.416 0 0 0 0 3.402c.03.975.715 1.598 1.701 1.623.502.013 1.005.009 1.507 0 1.093-.017 1.749-.664 1.776-1.754.013-.52 0-1.041 0-1.562 0-.52.015-1.063-.002-1.597Zm-1.952 3.254a13.14 13.14 0 0 0-1.069 0c-.275.015-.321-.112-.313-.346.013-.453 0-.911 0-1.36 0-.146-.01-.292 0-.438.027-.382-.175-.97.08-1.104.37-.194.91-.066 1.375-.082.182-.007.213.098.212.245v2.817c.011.23-.086.274-.285.269v-.001Zm1.952-3.254c-.034-1.052-.715-1.716-1.76-1.73a44.744 44.744 0 0 0-1.507 0c-.976.018-1.68.651-1.715 1.618a49.416 49.416 0 0 0 0 3.402c.03.975.715 1.598 1.701 1.623.502.013 1.005.009 1.507 0 1.093-.017 1.749-.664 1.776-1.754.013-.52 0-1.041 0-1.562 0-.52.015-1.063-.002-1.597Zm-1.952 3.254a13.14 13.14 0 0 0-1.069 0c-.275.015-.321-.112-.313-.346.013-.453 0-.911 0-1.36 0-.146-.01-.292 0-.438.027-.382-.175-.97.08-1.104.37-.194.91-.066 1.375-.082.182-.007.213.098.212.245v2.817c.011.23-.086.274-.285.269v-.001Zm1.952-3.254c-.034-1.052-.715-1.716-1.76-1.73a44.744 44.744 0 0 0-1.507 0c-.976.018-1.68.651-1.715 1.618a49.416 49.416 0 0 0 0 3.402c.03.975.715 1.598 1.701 1.623.502.013 1.005.009 1.507 0 1.093-.017 1.749-.664 1.776-1.754.013-.52 0-1.041 0-1.562 0-.52.015-1.063-.002-1.597Zm-1.952 3.254a13.14 13.14 0 0 0-1.069 0c-.275.015-.321-.112-.313-.346.013-.453 0-.911 0-1.36 0-.146-.01-.292 0-.438.027-.382-.175-.97.08-1.104.37-.194.91-.066 1.375-.082.182-.007.213.098.212.245v2.817c.011.23-.086.274-.285.269v-.001Zm1.952-3.254c-.034-1.052-.715-1.716-1.76-1.73a44.744 44.744 0 0 0-1.507 0c-.976.018-1.68.651-1.715 1.618a49.416 49.416 0 0 0 0 3.402c.03.975.715 1.598 1.701 1.623.502.013 1.005.009 1.507 0 1.093-.017 1.749-.664 1.776-1.754.013-.52 0-1.041 0-1.562 0-.52.015-1.063-.002-1.597Zm-1.952 3.254a13.14 13.14 0 0 0-1.069 0c-.275.015-.321-.112-.313-.346.013-.453 0-.911 0-1.36 0-.146-.01-.292 0-.438.027-.382-.175-.97.08-1.104.37-.194.91-.066 1.375-.082.182-.007.213.098.212.245v2.817c.011.23-.086.274-.285.269v-.001Zm1.952-3.254c-.034-1.052-.715-1.716-1.76-1.73a44.744 44.744 0 0 0-1.507 0c-.976.018-1.68.651-1.715 1.618a49.416 49.416 0 0 0 0 3.402c.03.975.715 1.598 1.701 1.623.502.013 1.005.009 1.507 0 1.093-.017 1.749-.664 1.776-1.754.013-.52 0-1.041 0-1.562 0-.52.015-1.063-.002-1.597Zm-1.952 3.254a13.14 13.14 0 0 0-1.069 0c-.275.015-.321-.112-.313-.346.013-.453 0-.911 0-1.36 0-.146-.01-.292 0-.438.027-.382-.175-.97.08-1.104.37-.194.91-.066 1.375-.082.182-.007.213.098.212.245v2.817c.011.23-.086.274-.285.269v-.001Zm1.952-3.254c-.034-1.052-.715-1.716-1.76-1.73a44.744 44.744 0 0 0-1.507 0c-.976.018-1.68.651-1.715 1.618a49.416 49.416 0 0 0 0 3.402c.03.975.715 1.598 1.701 1.623.502.013 1.005.009 1.507 0 1.093-.017 1.749-.664 1.776-1.754.013-.52 0-1.041 0-1.562 0-.52.015-1.063-.002-1.597Zm-1.952 3.254a13.14 13.14 0 0 0-1.069 0c-.275.015-.321-.112-.313-.346.013-.453 0-.911 0-1.36 0-.146-.01-.292 0-.438.027-.382-.175-.97.08-1.104.37-.194.91-.066 1.375-.082.182-.007.213.098.212.245v2.817c.011.23-.086.274-.285.269v-.001Zm1.952-3.254c-.034-1.052-.715-1.716-1.76-1.73a44.744 44.744 0 0 0-1.507 0c-.976.018-1.68.651-1.715 1.618a49.416 49.416 0 0 0 0 3.402c.03.975.715 1.598 1.701 1.623.502.013 1.005.009 1.507 0 1.093-.017 1.749-.664 1.776-1.754.013-.52 0-1.041 0-1.562 0-.52.015-1.063-.002-1.597Zm-1.952 3.254a13.14 13.14 0 0 0-1.069 0c-.275.015-.321-.112-.313-.346.013-.453 0-.911 0-1.36 0-.146-.01-.292 0-.438.027-.382-.175-.97.08-1.104.37-.194.91-.066 1.375-.082.182-.007.213.098.212.245v2.817c.011.23-.086.274-.285.269v-.001Zm1.952-3.254c-.034-1.052-.715-1.716-1.76-1.73a44.744 44.744 0 0 0-1.507 0c-.976.018-1.68.651-1.715 1.618a49.416 49.416 0 0 0 0 3.402c.03.975.715 1.598 1.701 1.623.502.013 1.005.009 1.507 0 1.093-.017 1.749-.664 1.776-1.754.013-.52 0-1.041 0-1.562 0-.52.015-1.063-.002-1.597Zm-1.952 3.254a13.14 13.14 0 0 0-1.069 0c-.275.015-.321-.112-.313-.346.013-.453 0-.911 0-1.36 0-.146-.01-.292 0-.438.027-.382-.175-.97.08-1.104.37-.194.91-.066 1.375-.082.182-.007.213.098.212.245v2.817c.011.23-.086.274-.285.269v-.001Zm1.952-3.254c-.034-1.052-.715-1.716-1.76-1.73a44.744 44.744 0 0 0-1.507 0c-.976.018-1.68.651-1.715 1.618a49.416 49.416 0 0 0 0 3.402c.03.975.715 1.598 1.701 1.623.502.013 1.005.009 1.507 0 1.093-.017 1.749-.664 1.776-1.754.013-.52 0-1.041 0-1.562 0-.52.015-1.063-.002-1.597Zm-1.952 3.254a13.14 13.14 0 0 0-1.069 0c-.275.015-.321-.112-.313-.346.013-.453 0-.911 0-1.36 0-.146-.01-.292 0-.438.027-.382-.175-.97.08-1.104.37-.194.91-.066 1.375-.082.182-.007.213.098.212.245v2.817c.011.23-.086.274-.285.269v-.001Z"/>
    <path d="M14.968 5.06c-.034-1.054-.715-1.717-1.76-1.73a44.744 44.744 0 0 0-1.507 0c-.976.017-1.68.65-1.715 1.617a49.416 49.416 0 0 0 0 3.402c.03.975.715 1.598 1.701 1.623.502.013 1.005.009 1.507 0 1.093-.017 1.749-.664 1.776-1.755.013-.52 0-1.04 0-1.561 0-.52.015-1.063-.002-1.597Zm-1.952 3.252c-.357-.009-.713-.018-1.069 0-.275.016-.321-.111-.313-.346.013-.453 0-.91 0-1.36 0-.145-.01-.291 0-.437.027-.382-.175-.97.08-1.105.37-.194.91-.065 1.375-.082.182-.006.213.1.212.246v2.816c.011.23-.086.275-.285.27v-.002Z"/>
  </g>
  <defs>
    <clipPath id="a">
      <path d="M0 0h50v50H0z"/>
    </clipPath>
  </defs>
</svg>
