<svg xmlns="http://www.w3.org/2000/svg" width="50" height="53" fill="currentColor" viewBox="0 0 50 53">
  <g clip-path="url(#a)">
    <path d="M10.637 29.179a366.733 366.733 0 0 0-5.783 0 .641.641 0 0 0-.295.061.747.747 0 0 0-.25.195.913.913 0 0 0-.167.296c-.038.11-.057.23-.055.35a1.06 1.06 0 0 0 .175.66c.127.185.31.305.51.335.14.026.284.036.428.03h2.533c.94 0 1.88.014 2.815 0 .535-.014.864-.42.86-.983a1.066 1.066 0 0 0-.051-.36.947.947 0 0 0-.165-.307.777.777 0 0 0-.254-.206.663.663 0 0 0-.3-.071Zm1.76-6.655c-.85-.858-1.717-1.69-2.572-2.54-.342-.348-.778-.54-1.228-.54-1.227-.008-2.454-.023-3.681 0-.971.02-1.638.84-1.655 1.993-.012.927-.01 1.855 0 2.782.014 1.217.7 2.012 1.728 2.02 1.027.01 2.071 0 3.107 0h3.156c.812 0 1.436-.52 1.701-1.367.265-.849.058-1.728-.556-2.348Zm-1.008 1.672c-.06.186-.222.1-.338.102H8.134c-.973 0-1.92-.012-2.87.008-.282 0-.396-.062-.384-.432.027-.68.028-1.368 0-2.045-.017-.394.109-.47.408-.463a89.3 89.3 0 0 0 3.062 0 .79.79 0 0 1 .606.255c.742.746 1.492 1.48 2.237 2.223.093.102.253.175.193.359l.003-.006Zm21.264 5.842a.962.962 0 0 0-.197-.567.697.697 0 0 0-.463-.272 2.74 2.74 0 0 0-.524-.025h-13.93c-.176-.008-.352 0-.526.025a.7.7 0 0 0-.463.272.965.965 0 0 0-.197.567c-.026.209.01.422.101.603a.813.813 0 0 0 .4.39c.213.082.438.112.66.086h13.979c.223.026.448-.004.66-.088a.803.803 0 0 0 .401-.388c.091-.181.127-.394.1-.603Zm2.36-9.212c-.256-.88-.928-1.376-1.85-1.376H15.794c-.88 0-1.542.52-1.804 1.377-.263.858-.046 1.74.64 2.425.816.817 1.64 1.626 2.458 2.433.351.365.802.565 1.268.564h12.297c.418.015.826-.146 1.152-.456.912-.888 1.827-1.773 2.715-2.697.583-.611.745-1.402.493-2.278v.008Zm-1.625.877c-.851.856-1.712 1.7-2.57 2.548-.11.11-.245.063-.37.063H18.583a.717.717 0 0 1-.562-.227c-.74-.75-1.494-1.48-2.238-2.224-.1-.1-.302-.175-.226-.374.075-.2.256-.104.395-.104h16.994a2.69 2.69 0 0 1 .336 0c.168.026.298.117.106.31v.008Zm10.58 7.473c-.908-.01-1.816 0-2.724 0h-2.726c-.583 0-.924.363-.931.943-.008.608.345.99.948.995 1.817.01 3.633.01 5.45 0 .58 0 .922-.377.93-.956.008-.62-.332-.984-.946-.99v.008Zm1.782-7.628c-.01-1.282-.682-2.088-1.763-2.098-1.152-.01-2.296 0-3.443 0-.53-.013-1.045.21-1.444.626-.8.809-1.617 1.597-2.424 2.398-.658.652-.886 1.511-.64 2.375.246.863.902 1.402 1.776 1.408h6.214c1.035 0 1.705-.817 1.717-2.032.016-.904.013-1.79.007-2.685v.008Zm-2.037 2.778c-.956-.03-1.912-.01-2.869-.01h-2.917c-.102 0-.242.07-.3-.086-.07-.192.088-.259.179-.35.758-.75 1.522-1.496 2.276-2.255a.734.734 0 0 1 .562-.238c1.035.012 2.071.018 3.107 0 .297 0 .384.097.374.448a27.838 27.838 0 0 0 0 1.988c.017.375-.064.506-.412.495v.008Zm2.037-2.778c-.01-1.282-.682-2.088-1.763-2.098-1.152-.01-2.296 0-3.443 0-.53-.013-1.045.21-1.444.626-.8.809-1.617 1.597-2.424 2.398-.658.652-.886 1.511-.64 2.375.246.863.902 1.402 1.776 1.408h6.214c1.035 0 1.705-.817 1.717-2.032.016-.904.013-1.79.007-2.685v.008Zm-2.037 2.778c-.956-.03-1.912-.01-2.869-.01h-2.917c-.102 0-.242.07-.3-.086-.07-.192.088-.259.179-.35.758-.75 1.522-1.496 2.276-2.255a.734.734 0 0 1 .562-.238c1.035.012 2.071.018 3.107 0 .297 0 .384.097.374.448a27.838 27.838 0 0 0 0 1.988c.017.375-.064.506-.412.495v.008Zm.256 4.85c-.909-.01-1.817 0-2.725 0h-2.726c-.583 0-.924.363-.931.943-.008.608.345.99.948.995 1.817.01 3.633.01 5.45 0 .58 0 .922-.377.93-.956.008-.62-.332-.984-.946-.99v.008Zm-8.956-8.35c-.256-.88-.928-1.376-1.85-1.376H15.794c-.88 0-1.542.52-1.804 1.377-.263.858-.046 1.74.64 2.425.816.817 1.64 1.626 2.458 2.433.351.365.802.565 1.268.564h12.297c.418.015.826-.146 1.152-.456.912-.888 1.827-1.773 2.715-2.697.583-.611.745-1.402.493-2.278v.008Zm-1.625.877c-.851.856-1.712 1.7-2.57 2.548-.11.11-.245.063-.37.063H18.583a.717.717 0 0 1-.562-.227c-.74-.75-1.494-1.48-2.238-2.224-.1-.1-.302-.175-.226-.374.075-.2.256-.104.395-.104h16.994a2.69 2.69 0 0 1 .336 0c.168.026.298.117.106.31v.008Zm-.735 8.335a.962.962 0 0 0-.197-.567.697.697 0 0 0-.463-.272 2.74 2.74 0 0 0-.524-.025h-13.93c-.176-.008-.352 0-.526.025a.7.7 0 0 0-.463.272.965.965 0 0 0-.197.567c-.026.209.01.422.101.603a.813.813 0 0 0 .4.39c.213.082.438.112.66.086h13.979c.223.026.448-.004.66-.088a.803.803 0 0 0 .401-.388c.091-.181.127-.394.1-.603Zm-20.256-7.514c-.85-.858-1.717-1.69-2.572-2.54-.342-.348-.778-.54-1.228-.54-1.227-.008-2.454-.023-3.681 0-.971.02-1.638.84-1.655 1.993-.012.927-.01 1.855 0 2.782.014 1.217.7 2.012 1.728 2.02 1.027.01 2.071 0 3.107 0h3.156c.812 0 1.436-.52 1.701-1.367.265-.849.058-1.728-.556-2.348Zm-1.008 1.672c-.06.186-.222.1-.338.102H8.134c-.973 0-1.92-.012-2.87.008-.282 0-.396-.062-.384-.432.027-.68.028-1.368 0-2.045-.017-.394.109-.47.408-.463a89.3 89.3 0 0 0 3.062 0 .79.79 0 0 1 .606.255c.742.746 1.492 1.48 2.237 2.223.093.102.253.175.193.359l.003-.006Zm-.749 4.977a366.725 366.725 0 0 0-5.783 0 .641.641 0 0 0-.295.061.747.747 0 0 0-.251.194.913.913 0 0 0-.167.296 1.03 1.03 0 0 0-.055.35 1.05 1.05 0 0 0 .176.66c.127.186.31.306.509.336.141.026.285.036.428.03h2.534c.94 0 1.88.014 2.814 0 .535-.015.864-.42.86-.983a1.068 1.068 0 0 0-.052-.358.943.943 0 0 0-.167-.306.776.776 0 0 0-.253-.204.664.664 0 0 0-.3-.07l.002-.006Zm0 0a366.725 366.725 0 0 0-5.783 0 .641.641 0 0 0-.295.061.747.747 0 0 0-.251.194.913.913 0 0 0-.167.296 1.03 1.03 0 0 0-.055.35 1.05 1.05 0 0 0 .176.66c.127.186.31.306.509.336.141.026.285.036.428.03h2.534c.94 0 1.88.014 2.814 0 .535-.015.864-.42.86-.983a1.068 1.068 0 0 0-.052-.358.943.943 0 0 0-.167-.306.776.776 0 0 0-.253-.204.664.664 0 0 0-.3-.07l.002-.006Zm1.757-6.649c-.85-.858-1.717-1.69-2.572-2.54-.342-.348-.778-.54-1.228-.54-1.227-.008-2.454-.023-3.681 0-.971.02-1.638.84-1.655 1.993-.012.927-.01 1.855 0 2.782.014 1.217.7 2.012 1.728 2.02 1.027.01 2.071 0 3.107 0h3.156c.812 0 1.436-.52 1.701-1.367.265-.849.058-1.728-.556-2.348Zm-1.008 1.672c-.06.186-.222.1-.338.102H8.134c-.973 0-1.92-.012-2.87.008-.282 0-.396-.062-.384-.432.027-.68.028-1.368 0-2.045-.017-.394.109-.47.408-.463a89.3 89.3 0 0 0 3.062 0 .79.79 0 0 1 .606.255c.742.746 1.492 1.48 2.237 2.223.093.102.253.175.193.359l.003-.006Zm21.264 5.842a.962.962 0 0 0-.197-.567.697.697 0 0 0-.463-.272 2.74 2.74 0 0 0-.524-.025h-13.93c-.176-.008-.352 0-.526.025a.7.7 0 0 0-.463.272.965.965 0 0 0-.197.567c-.026.209.01.422.101.603a.813.813 0 0 0 .4.39c.213.082.438.112.66.086h13.979c.223.026.448-.004.66-.088a.803.803 0 0 0 .401-.388c.091-.181.127-.394.1-.603Zm2.36-9.212c-.256-.88-.928-1.376-1.85-1.376H15.794c-.88 0-1.542.52-1.804 1.377-.263.858-.046 1.74.64 2.425.816.817 1.64 1.626 2.458 2.433.351.365.802.565 1.268.564h12.297c.418.015.826-.146 1.152-.456.912-.888 1.827-1.773 2.715-2.697.583-.611.745-1.402.493-2.278v.008Zm-1.625.877c-.851.856-1.712 1.7-2.57 2.548-.11.11-.245.063-.37.063H18.583a.717.717 0 0 1-.562-.227c-.74-.75-1.494-1.48-2.238-2.224-.1-.1-.302-.175-.226-.374.075-.2.256-.104.395-.104h16.994a2.69 2.69 0 0 1 .336 0c.168.026.298.117.106.31v.008Zm10.58 7.473c-.908-.01-1.816 0-2.724 0h-2.726c-.583 0-.924.363-.931.943-.008.608.345.99.948.995 1.817.01 3.633.01 5.45 0 .58 0 .922-.377.93-.956.008-.62-.332-.984-.946-.99v.008Zm1.782-7.628c-.01-1.282-.682-2.088-1.763-2.098-1.152-.01-2.296 0-3.443 0-.53-.013-1.045.21-1.444.626-.8.809-1.617 1.597-2.424 2.398-.658.652-.886 1.511-.64 2.375.246.863.902 1.402 1.776 1.408h6.214c1.035 0 1.705-.817 1.717-2.032.016-.904.013-1.79.007-2.685v.008Zm-2.037 2.778c-.956-.03-1.912-.01-2.869-.01h-2.917c-.102 0-.242.07-.3-.086-.07-.192.088-.259.179-.35.758-.75 1.522-1.496 2.276-2.255a.734.734 0 0 1 .562-.238c1.035.012 2.071.018 3.107 0 .297 0 .384.097.374.448a27.838 27.838 0 0 0 0 1.988c.017.375-.064.506-.412.495v.008Zm2.037-2.778c-.01-1.282-.682-2.088-1.763-2.098-1.152-.01-2.296 0-3.443 0-.53-.013-1.045.21-1.444.626-.8.809-1.617 1.597-2.424 2.398-.658.652-.886 1.511-.64 2.375.246.863.902 1.402 1.776 1.408h6.214c1.035 0 1.705-.817 1.717-2.032.016-.904.013-1.79.007-2.685v.008Zm-2.037 2.778c-.956-.03-1.912-.01-2.869-.01h-2.917c-.102 0-.242.07-.3-.086-.07-.192.088-.259.179-.35.758-.75 1.522-1.496 2.276-2.255a.734.734 0 0 1 .562-.238c1.035.012 2.071.018 3.107 0 .297 0 .384.097.374.448a27.838 27.838 0 0 0 0 1.988c.017.375-.064.506-.412.495v.008Zm.256 4.85c-.909-.01-1.817 0-2.725 0h-2.726c-.583 0-.924.363-.931.943-.008.608.345.99.948.995 1.817.01 3.633.01 5.45 0 .58 0 .922-.377.93-.956.008-.62-.332-.984-.946-.99v.008Zm-8.956-8.35c-.256-.88-.928-1.376-1.85-1.376H15.794c-.88 0-1.542.52-1.804 1.377-.263.858-.046 1.74.64 2.425.816.817 1.64 1.626 2.458 2.433.351.365.802.565 1.268.564h12.297c.418.015.826-.146 1.152-.456.912-.888 1.827-1.773 2.715-2.697.583-.611.745-1.402.493-2.278v.008Zm-1.625.877c-.851.856-1.712 1.7-2.57 2.548-.11.11-.245.063-.37.063H18.583a.717.717 0 0 1-.562-.227c-.74-.75-1.494-1.48-2.238-2.224-.1-.1-.302-.175-.226-.374.075-.2.256-.104.395-.104h16.994a2.69 2.69 0 0 1 .336 0c.168.026.298.117.106.31v.008Zm-.735 8.335a.962.962 0 0 0-.197-.567.697.697 0 0 0-.463-.272 2.74 2.74 0 0 0-.524-.025h-13.93c-.176-.008-.352 0-.526.025a.7.7 0 0 0-.463.272.965.965 0 0 0-.197.567c-.026.209.01.422.101.603a.813.813 0 0 0 .4.39c.213.082.438.112.66.086h13.979c.223.026.448-.004.66-.088a.803.803 0 0 0 .401-.388c.091-.181.127-.394.1-.603Zm-20.256-7.514c-.85-.858-1.717-1.69-2.572-2.54-.342-.348-.778-.54-1.228-.54-1.227-.008-2.454-.023-3.681 0-.971.02-1.638.84-1.655 1.993-.012.927-.01 1.855 0 2.782.014 1.217.7 2.012 1.728 2.02 1.027.01 2.071 0 3.107 0h3.156c.812 0 1.436-.52 1.701-1.367.265-.849.058-1.728-.556-2.348Zm-1.008 1.672c-.06.186-.222.1-.338.102H8.134c-.973 0-1.92-.012-2.87.008-.282 0-.396-.062-.384-.432.027-.68.028-1.368 0-2.045-.017-.394.109-.47.408-.463a89.3 89.3 0 0 0 3.062 0 .79.79 0 0 1 .606.255c.742.746 1.492 1.48 2.237 2.223.093.102.253.175.193.359l.003-.006Zm-.749 4.977a366.725 366.725 0 0 0-5.783 0 .641.641 0 0 0-.295.061.747.747 0 0 0-.251.194.913.913 0 0 0-.167.296 1.03 1.03 0 0 0-.055.35 1.05 1.05 0 0 0 .176.66c.127.186.31.306.509.336.141.026.285.036.428.03h2.534c.94 0 1.88.014 2.814 0 .535-.015.864-.42.86-.983a1.068 1.068 0 0 0-.052-.358.943.943 0 0 0-.167-.306.776.776 0 0 0-.253-.204.664.664 0 0 0-.3-.07l.002-.006Zm0 0a366.725 366.725 0 0 0-5.783 0 .641.641 0 0 0-.295.061.747.747 0 0 0-.251.194.913.913 0 0 0-.167.296 1.03 1.03 0 0 0-.055.35 1.05 1.05 0 0 0 .176.66c.127.186.31.306.509.336.141.026.285.036.428.03h2.534c.94 0 1.88.014 2.814 0 .535-.015.864-.42.86-.983a1.068 1.068 0 0 0-.052-.358.943.943 0 0 0-.167-.306.776.776 0 0 0-.253-.204.664.664 0 0 0-.3-.07l.002-.006Zm1.757-6.649c-.85-.858-1.717-1.69-2.572-2.54-.342-.348-.778-.54-1.228-.54-1.227-.008-2.454-.023-3.681 0-.971.02-1.638.84-1.655 1.993-.012.927-.01 1.855 0 2.782.014 1.217.7 2.012 1.728 2.02 1.027.01 2.071 0 3.107 0h3.156c.812 0 1.436-.52 1.701-1.367.265-.849.058-1.728-.556-2.348Zm-1.008 1.672c-.06.186-.222.1-.338.102H8.134c-.973 0-1.92-.012-2.87.008-.282 0-.396-.062-.384-.432.027-.68.028-1.368 0-2.045-.017-.394.109-.47.408-.463a89.3 89.3 0 0 0 3.062 0 .79.79 0 0 1 .606.255c.742.746 1.492 1.48 2.237 2.223.093.102.253.175.193.359l.003-.006Zm21.264 5.842a.962.962 0 0 0-.197-.567.697.697 0 0 0-.463-.272 2.74 2.74 0 0 0-.524-.025h-13.93c-.176-.008-.352 0-.526.025a.7.7 0 0 0-.463.272.965.965 0 0 0-.197.567c-.026.209.01.422.101.603a.813.813 0 0 0 .4.39c.213.082.438.112.66.086h13.979c.223.026.448-.004.66-.088a.803.803 0 0 0 .401-.388c.091-.181.127-.394.1-.603Zm2.36-9.212c-.256-.88-.928-1.376-1.85-1.376H15.794c-.88 0-1.542.52-1.804 1.377-.263.858-.046 1.74.64 2.425.816.817 1.64 1.626 2.458 2.433.351.365.802.565 1.268.564h12.297c.418.015.826-.146 1.152-.456.912-.888 1.827-1.773 2.715-2.697.583-.611.745-1.402.493-2.278v.008Zm-1.625.877c-.851.856-1.712 1.7-2.57 2.548-.11.11-.245.063-.37.063H18.583a.717.717 0 0 1-.562-.227c-.74-.75-1.494-1.48-2.238-2.224-.1-.1-.302-.175-.226-.374.075-.2.256-.104.395-.104h16.994a2.69 2.69 0 0 1 .336 0c.168.026.298.117.106.31v.008Zm10.58 7.473c-.908-.01-1.816 0-2.724 0h-2.726c-.583 0-.924.363-.931.943-.008.608.345.99.948.995 1.817.01 3.633.01 5.45 0 .58 0 .922-.377.93-.956.008-.62-.332-.984-.946-.99v.008Zm1.782-7.628c-.01-1.282-.682-2.088-1.763-2.098-1.152-.01-2.296 0-3.443 0-.53-.013-1.045.21-1.444.626-.8.809-1.617 1.597-2.424 2.398-.658.652-.886 1.511-.64 2.375.246.863.902 1.402 1.776 1.408h6.214c1.035 0 1.705-.817 1.717-2.032.016-.904.013-1.79.007-2.685v.008Zm-2.037 2.778c-.956-.03-1.912-.01-2.869-.01h-2.917c-.102 0-.242.07-.3-.086-.07-.192.088-.259.179-.35.758-.75 1.522-1.496 2.276-2.255a.734.734 0 0 1 .562-.238c1.035.012 2.071.018 3.107 0 .297 0 .384.097.374.448a27.838 27.838 0 0 0 0 1.988c.017.375-.064.506-.412.495v.008Zm2.037-2.778c-.01-1.282-.682-2.088-1.763-2.098-1.152-.01-2.296 0-3.443 0-.53-.013-1.045.21-1.444.626-.8.809-1.617 1.597-2.424 2.398-.658.652-.886 1.511-.64 2.375.246.863.902 1.402 1.776 1.408h6.214c1.035 0 1.705-.817 1.717-2.032.016-.904.013-1.79.007-2.685v.008Zm-2.037 2.778c-.956-.03-1.912-.01-2.869-.01h-2.917c-.102 0-.242.07-.3-.086-.07-.192.088-.259.179-.35.758-.75 1.522-1.496 2.276-2.255a.734.734 0 0 1 .562-.238c1.035.012 2.071.018 3.107 0 .297 0 .384.097.374.448a27.838 27.838 0 0 0 0 1.988c.017.375-.064.506-.412.495v.008Zm.256 4.85c-.909-.01-1.817 0-2.725 0h-2.726c-.583 0-.924.363-.931.943-.008.608.345.99.948.995 1.817.01 3.633.01 5.45 0 .58 0 .922-.377.93-.956.008-.62-.332-.984-.946-.99v.008Zm-10.806-9.73H15.794c-.88 0-1.542.52-1.804 1.377-.263.857-.046 1.739.64 2.425.816.816 1.64 1.625 2.458 2.432.351.365.802.566 1.268.564h12.297c.418.016.826-.146 1.152-.456.912-.888 1.827-1.772 2.715-2.697.582-.608.743-1.396.491-2.271-.252-.876-.926-1.378-1.849-1.378v.003Zm.225 2.252c-.851.856-1.712 1.7-2.57 2.549-.11.11-.245.062-.37.062H18.583a.717.717 0 0 1-.562-.227c-.74-.75-1.494-1.479-2.238-2.224-.1-.099-.302-.175-.226-.374.075-.2.256-.103.395-.103h16.994c.112-.008.224-.008.336 0 .168.03.298.121.106.314v.003Zm-1.395 7.496a2.74 2.74 0 0 0-.524-.024h-13.93c-.176-.009-.352 0-.526.024a.7.7 0 0 0-.463.272.965.965 0 0 0-.197.567c-.026.21.01.422.101.604a.813.813 0 0 0 .4.39c.213.082.438.111.66.086h13.979c.223.026.448-.004.66-.088a.804.804 0 0 0 .401-.388c.091-.181.127-.395.1-.604a.963.963 0 0 0-.197-.569.698.698 0 0 0-.464-.273v.003Zm-19.596-6.67c-.85-.858-1.717-1.69-2.572-2.54-.342-.348-.778-.54-1.228-.54-1.227-.008-2.454-.023-3.681 0-.971.02-1.638.84-1.655 1.993-.012.927-.01 1.855 0 2.782.014 1.217.7 2.012 1.728 2.02 1.027.01 2.071 0 3.107 0h3.156c.812 0 1.436-.52 1.701-1.367.265-.849.058-1.728-.556-2.348Zm-1.008 1.672c-.06.186-.222.1-.338.102H8.134c-.973 0-1.92-.012-2.87.008-.282 0-.396-.062-.384-.432.027-.68.028-1.368 0-2.045-.017-.394.109-.47.408-.463a89.3 89.3 0 0 0 3.062 0 .79.79 0 0 1 .606.255c.742.746 1.492 1.48 2.237 2.223.093.102.253.175.193.359l.003-.006Zm-.749 4.977a366.725 366.725 0 0 0-5.783 0 .641.641 0 0 0-.295.061.747.747 0 0 0-.251.194.913.913 0 0 0-.167.296 1.03 1.03 0 0 0-.055.35 1.05 1.05 0 0 0 .176.66c.127.186.31.306.509.336.141.026.285.036.428.03h2.534c.94 0 1.88.014 2.814 0 .535-.015.864-.42.86-.983a1.068 1.068 0 0 0-.052-.358.943.943 0 0 0-.167-.306.776.776 0 0 0-.253-.204.664.664 0 0 0-.3-.07l.002-.006Zm38.384-9.697a3.697 3.697 0 0 0-.2-1.3 3.239 3.239 0 0 0-.63-1.09c-.684-.796-1.353-1.608-2.032-2.41-.275-.326-.555-.643-.919-1.065.555 0 .966.011 1.378 0 .592-.011 1.16-.277 1.6-.75.438-.471.718-1.116.787-1.815a3.333 3.333 0 0 0-.415-1.983c-.335-.579-.836-.994-1.41-1.167-.55-.178-1.112-.055-1.663-.097-.906-.069-1.746.103-2.414.99-.055-.166-.093-.266-.128-.371-.434-1.539-.87-3.079-1.303-4.62-.745-2.636-2.068-3.764-4.42-3.764-8.326 0-16.653.064-24.977-.033-3-.035-4.46 1.502-5.118 4.398-.335 1.47-.804 2.889-1.231 4.41-.65-.848-1.43-1.065-2.297-1.012-.413.026-.829 0-1.243.01-.41.002-.81.131-1.165.374A2.615 2.615 0 0 0 .37 9.193c-.138.29-.261.59-.37.897v1.247c.312 1.56 1.233 2.411 2.609 2.419.283-.019.566-.006.847.038-.903 1.084-1.748 2.11-2.62 3.104-.45.516-.781 1.079-.836 1.834v13.89c.064.946.5 1.606 1.152 2.08a.78.78 0 0 1 .273.342.958.958 0 0 1 .07.463c-.008.737-.006 1.475 0 2.212.01 1.62.743 2.725 2.048 3.096h6.702c1.378-.32 2.134-1.4 2.157-3.088v-1.534c0-1.004 0-1.004.842-1.005h22.525c.128 0 .256.009.384 0 .323-.016.458.167.456.547v1.932c.017 1.688.717 2.754 2.062 3.145h6.701c1.604-.76 2.008-1.487 2.008-3.602 0-.683.006-1.369 0-2.047-.014-.1 0-.202.042-.29a.403.403 0 0 1 .186-.195c.967-.571 1.407-1.52 1.407-2.799-.003-4.133-.002-8.266.003-12.397l.006-.006Zm-4.902-8.107c.017-.225 0-.456.008-.68.028-.558.316-.923.78-.943a21.08 21.08 0 0 1 1.67 0c.21 0 .41.098.56.27.15.174.238.41.245.658.003.128-.015.255-.054.374a1.01 1.01 0 0 1-.17.322.83.83 0 0 1-.262.218.708.708 0 0 1-.312.082c-.365.023-.732 0-1.097 0-.366 0-.732-.012-1.098 0-.21.027-.297-.04-.276-.295l.006-.006ZM8.042 7.446c.317-1.128.629-2.26.953-3.386.383-1.347 1.213-2.077 2.401-2.078a18827.6 18827.6 0 0 1 26.23 0c1.143 0 2.02.716 2.378 1.964.72 2.501 1.407 5.017 2.115 7.525a.812.812 0 0 1 0 .187H6.855l1.186-4.212ZM2.48 9.743a28.391 28.391 0 0 1 1.526 0c.576.011.871.367.89 1.051 0 .189-.011.379 0 .566.017.241-.048.336-.263.324-.365-.019-.73 0-1.097 0-.365 0-.7.01-1.05 0-.512-.022-.866-.443-.855-.989.012-.546.352-.93.84-.946l.009-.006Zm7.184 29.12H4.26c-.693 0-.99-.356-.996-1.177 0-.777.01-1.554-.007-2.33 0-.304.08-.377.325-.377 2.246.011 4.493.011 6.741 0 .271 0 .31.122.306.396-.013.795 0 1.592 0 2.387-.025.74-.338 1.094-.974 1.106l.008-.006Zm36.102-3.346c-.028.738 0 1.477-.01 2.216-.01.739-.313 1.128-.936 1.131-1.833.007-3.666.007-5.502 0-.601 0-.914-.377-.922-1.089-.01-.795.01-1.59-.008-2.385-.008-.322.073-.412.343-.41 1.132.02 2.263.008 3.395.008 1.068 0 2.136.023 3.2-.012.377-.009.448.137.433.545l.008-.004Zm1.624-3.8c0 1.01-.266 1.327-1.114 1.328H2.862c-1.016 0-1.237-.263-1.237-1.467 0-3.98 0-7.96-.008-11.941a1.954 1.954 0 0 1 .108-.712c.08-.225.2-.427.352-.591a385.374 385.374 0 0 0 3.69-4.382.872.872 0 0 1 .296-.26.731.731 0 0 1 .361-.085c12.06.009 24.12.009 36.18 0a.642.642 0 0 1 .318.061.756.756 0 0 1 .268.216 724.87 724.87 0 0 0 3.821 4.546c.13.152.23.335.295.537.065.203.093.419.082.635-.009 4.043-.01 8.083-.005 12.12l.007-.006Zm-3.403-12.275c-1.152-.01-2.296 0-3.443 0-.53-.013-1.045.21-1.444.627-.8.808-1.617 1.596-2.424 2.397-.658.652-.886 1.512-.64 2.375.246.864.902 1.402 1.776 1.408h6.214c1.035 0 1.705-.816 1.717-2.031.01-.891.008-1.78 0-2.672-.002-1.287-.675-2.093-1.756-2.104Zm-.274 4.876c-.956-.03-1.912-.01-2.869-.01h-2.917c-.102 0-.242.07-.3-.086-.07-.191.088-.258.179-.35.758-.75 1.522-1.495 2.276-2.254a.733.733 0 0 1 .562-.239c1.035.012 2.071.018 3.107 0 .297 0 .384.098.374.449a27.838 27.838 0 0 0 0 1.987c.017.383-.064.514-.412.503Zm.256 4.85c-.909-.009-1.817 0-2.725 0h-2.726c-.583 0-.924.364-.931.943-.008.608.345.991.948.996 1.817.009 3.633.009 5.45 0 .58 0 .922-.377.93-.957.008-.612-.332-.976-.946-.982Zm-10.806-9.73H15.794c-.88 0-1.542.52-1.804 1.377-.263.858-.046 1.74.64 2.425.816.817 1.64 1.626 2.458 2.433.351.365.802.565 1.268.564h12.297c.418.015.826-.146 1.152-.456.912-.888 1.827-1.773 2.715-2.697.582-.609.743-1.396.491-2.272-.252-.876-.926-1.37-1.849-1.37v-.004Zm.225 2.253c-.851.856-1.712 1.7-2.57 2.548-.11.11-.245.062-.37.062H18.583a.717.717 0 0 1-.562-.226c-.74-.75-1.494-1.48-2.238-2.224-.1-.1-.302-.175-.226-.374.075-.2.256-.104.395-.104h16.994c.112-.008.224-.008.336 0 .168.038.298.13.106.322v-.004Zm-1.395 7.495a2.74 2.74 0 0 0-.524-.024h-13.93c-.176-.008-.352 0-.526.024a.7.7 0 0 0-.463.273.965.965 0 0 0-.197.567c-.026.209.01.422.101.603a.813.813 0 0 0 .4.39c.213.082.438.112.66.086h13.979c.223.026.448-.004.66-.088a.804.804 0 0 0 .401-.388c.091-.181.127-.395.1-.603a.961.961 0 0 0-.2-.565.697.697 0 0 0-.461-.27v-.005Zm-19.596-6.662c-.85-.858-1.717-1.69-2.572-2.54-.342-.348-.778-.54-1.228-.54-1.227-.008-2.454-.023-3.681 0-.971.02-1.638.84-1.655 1.993-.012.927-.01 1.855 0 2.782.014 1.217.7 2.012 1.728 2.02 1.027.01 2.071 0 3.107 0h3.156c.812 0 1.436-.52 1.701-1.367.265-.849.058-1.728-.556-2.348Zm-1.008 1.672c-.06.186-.222.1-.338.102H8.134c-.973 0-1.92-.012-2.87.008-.282 0-.396-.062-.384-.432.027-.68.028-1.368 0-2.045-.017-.394.109-.47.408-.463a89.3 89.3 0 0 0 3.062 0 .79.79 0 0 1 .606.255c.742.746 1.492 1.48 2.237 2.223.093.102.253.175.193.359l.003-.006Zm-.749 4.977a366.725 366.725 0 0 0-5.783 0 .641.641 0 0 0-.295.061.747.747 0 0 0-.251.194.913.913 0 0 0-.167.296 1.03 1.03 0 0 0-.055.35 1.05 1.05 0 0 0 .176.66c.127.186.31.306.509.336.141.026.285.036.428.03h2.534c.94 0 1.88.014 2.814 0 .535-.015.864-.42.86-.983a1.068 1.068 0 0 0-.052-.358.943.943 0 0 0-.167-.306.776.776 0 0 0-.253-.204.664.664 0 0 0-.3-.07l.002-.006Zm0 0a366.725 366.725 0 0 0-5.783 0 .641.641 0 0 0-.295.061.747.747 0 0 0-.251.194.913.913 0 0 0-.167.296 1.03 1.03 0 0 0-.055.35 1.05 1.05 0 0 0 .176.66c.127.186.31.306.509.336.141.026.285.036.428.03h2.534c.94 0 1.88.014 2.814 0 .535-.015.864-.42.86-.983a1.068 1.068 0 0 0-.052-.358.943.943 0 0 0-.167-.306.776.776 0 0 0-.253-.204.664.664 0 0 0-.3-.07l.002-.006Zm1.757-6.649c-.85-.858-1.717-1.69-2.572-2.54-.342-.348-.778-.54-1.228-.54-1.227-.008-2.454-.023-3.681 0-.971.02-1.638.84-1.655 1.993-.012.927-.01 1.855 0 2.782.014 1.217.7 2.012 1.728 2.02 1.027.01 2.071 0 3.107 0h3.156c.812 0 1.436-.52 1.701-1.367.265-.849.058-1.728-.556-2.348Zm-1.008 1.672c-.06.186-.222.1-.338.102H8.134c-.973 0-1.92-.012-2.87.008-.282 0-.396-.062-.384-.432.027-.68.028-1.368 0-2.045-.017-.394.109-.47.408-.463a89.3 89.3 0 0 0 3.062 0 .79.79 0 0 1 .606.255c.742.746 1.492 1.48 2.237 2.223.093.102.253.175.193.359l.003-.006Zm21.264 5.842a.962.962 0 0 0-.197-.567.697.697 0 0 0-.463-.272 2.74 2.74 0 0 0-.524-.025h-13.93c-.176-.008-.352 0-.526.025a.7.7 0 0 0-.463.272.965.965 0 0 0-.197.567c-.026.209.01.422.101.603a.813.813 0 0 0 .4.39c.213.082.438.112.66.086h13.979c.223.026.448-.004.66-.088a.803.803 0 0 0 .401-.388c.091-.181.127-.394.1-.603Zm2.36-9.212c-.256-.88-.928-1.376-1.85-1.376H15.794c-.88 0-1.542.52-1.804 1.377-.263.858-.046 1.74.64 2.425.816.817 1.64 1.626 2.458 2.433.351.365.802.565 1.268.564h12.297c.418.015.826-.146 1.152-.456.912-.888 1.827-1.773 2.715-2.697.583-.611.745-1.402.493-2.278v.008Zm-1.625.877c-.851.856-1.712 1.7-2.57 2.548-.11.11-.245.063-.37.063H18.583a.717.717 0 0 1-.562-.227c-.74-.75-1.494-1.48-2.238-2.224-.1-.1-.302-.175-.226-.374.075-.2.256-.104.395-.104h16.994a2.69 2.69 0 0 1 .336 0c.168.026.298.117.106.31v.008Zm10.58 7.473c-.908-.01-1.816 0-2.724 0h-2.726c-.583 0-.924.363-.931.943-.008.608.345.99.948.995 1.817.01 3.633.01 5.45 0 .58 0 .922-.377.93-.956.008-.62-.332-.984-.946-.99v.008Zm1.782-7.628c-.01-1.282-.682-2.088-1.763-2.098-1.152-.01-2.296 0-3.443 0-.53-.013-1.045.21-1.444.626-.8.809-1.617 1.597-2.424 2.398-.658.652-.886 1.511-.64 2.375.246.863.902 1.402 1.776 1.408h6.214c1.035 0 1.705-.817 1.717-2.032.016-.904.013-1.79.007-2.685v.008Zm-2.037 2.778c-.956-.03-1.912-.01-2.869-.01h-2.917c-.102 0-.242.07-.3-.086-.07-.192.088-.259.179-.35.758-.75 1.522-1.496 2.276-2.255a.734.734 0 0 1 .562-.238c1.035.012 2.071.018 3.107 0 .297 0 .384.097.374.448a27.838 27.838 0 0 0 0 1.988c.017.375-.064.506-.412.495v.008Zm2.037-2.778c-.01-1.282-.682-2.088-1.763-2.098-1.152-.01-2.296 0-3.443 0-.53-.013-1.045.21-1.444.626-.8.809-1.617 1.597-2.424 2.398-.658.652-.886 1.511-.64 2.375.246.863.902 1.402 1.776 1.408h6.214c1.035 0 1.705-.817 1.717-2.032.016-.904.013-1.79.007-2.685v.008Zm-2.037 2.778c-.956-.03-1.912-.01-2.869-.01h-2.917c-.102 0-.242.07-.3-.086-.07-.192.088-.259.179-.35.758-.75 1.522-1.496 2.276-2.255a.734.734 0 0 1 .562-.238c1.035.012 2.071.018 3.107 0 .297 0 .384.097.374.448a27.838 27.838 0 0 0 0 1.988c.017.375-.064.506-.412.495v.008Zm.256 4.85c-.909-.01-1.817 0-2.725 0h-2.726c-.583 0-.924.363-.931.943-.008.608.345.99.948.995 1.817.01 3.633.01 5.45 0 .58 0 .922-.377.93-.956.008-.62-.332-.984-.946-.99v.008Zm-8.956-8.35c-.256-.88-.928-1.376-1.85-1.376H15.794c-.88 0-1.542.52-1.804 1.377-.263.858-.046 1.74.64 2.425.816.817 1.64 1.626 2.458 2.433.351.365.802.565 1.268.564h12.297c.418.015.826-.146 1.152-.456.912-.888 1.827-1.773 2.715-2.697.583-.611.745-1.402.493-2.278v.008Zm-1.625.877c-.851.856-1.712 1.7-2.57 2.548-.11.11-.245.063-.37.063H18.583a.717.717 0 0 1-.562-.227c-.74-.75-1.494-1.48-2.238-2.224-.1-.1-.302-.175-.226-.374.075-.2.256-.104.395-.104h16.994a2.69 2.69 0 0 1 .336 0c.168.026.298.117.106.31v.008Zm-.735 8.335a.962.962 0 0 0-.197-.567.697.697 0 0 0-.463-.272 2.74 2.74 0 0 0-.524-.025h-13.93c-.176-.008-.352 0-.526.025a.7.7 0 0 0-.463.272.965.965 0 0 0-.197.567c-.026.209.01.422.101.603a.813.813 0 0 0 .4.39c.213.082.438.112.66.086h13.979c.223.026.448-.004.66-.088a.803.803 0 0 0 .401-.388c.091-.181.127-.394.1-.603Zm-20.256-7.514c-.85-.858-1.717-1.69-2.572-2.54-.342-.348-.778-.54-1.228-.54-1.227-.008-2.454-.023-3.681 0-.971.02-1.638.84-1.655 1.993-.012.927-.01 1.855 0 2.782.014 1.217.7 2.012 1.728 2.02 1.027.01 2.071 0 3.107 0h3.156c.812 0 1.436-.52 1.701-1.367.265-.849.058-1.728-.556-2.348Zm-1.008 1.672c-.06.186-.222.1-.338.102H8.134c-.973 0-1.92-.012-2.87.008-.282 0-.396-.062-.384-.432.027-.68.028-1.368 0-2.045-.017-.394.109-.47.408-.463a89.3 89.3 0 0 0 3.062 0 .79.79 0 0 1 .606.255c.742.746 1.492 1.48 2.237 2.223.093.102.253.175.193.359l.003-.006Zm-.749 4.977a366.725 366.725 0 0 0-5.783 0 .641.641 0 0 0-.295.061.747.747 0 0 0-.251.194.913.913 0 0 0-.167.296 1.03 1.03 0 0 0-.055.35 1.05 1.05 0 0 0 .176.66c.127.186.31.306.509.336.141.026.285.036.428.03h2.534c.94 0 1.88.014 2.814 0 .535-.015.864-.42.86-.983a1.068 1.068 0 0 0-.052-.358.943.943 0 0 0-.167-.306.776.776 0 0 0-.253-.204.664.664 0 0 0-.3-.07l.002-.006Zm0 0a366.725 366.725 0 0 0-5.783 0 .641.641 0 0 0-.295.061.747.747 0 0 0-.251.194.913.913 0 0 0-.167.296 1.03 1.03 0 0 0-.055.35 1.05 1.05 0 0 0 .176.66c.127.186.31.306.509.336.141.026.285.036.428.03h2.534c.94 0 1.88.014 2.814 0 .535-.015.864-.42.86-.983a1.068 1.068 0 0 0-.052-.358.943.943 0 0 0-.167-.306.776.776 0 0 0-.253-.204.664.664 0 0 0-.3-.07l.002-.006Zm1.757-6.649c-.85-.858-1.717-1.69-2.572-2.54-.342-.348-.778-.54-1.228-.54-1.227-.008-2.454-.023-3.681 0-.971.02-1.638.84-1.655 1.993-.012.927-.01 1.855 0 2.782.014 1.217.7 2.012 1.728 2.02 1.027.01 2.071 0 3.107 0h3.156c.812 0 1.436-.52 1.701-1.367.265-.849.058-1.728-.556-2.348Zm-1.008 1.672c-.06.186-.222.1-.338.102H8.134c-.973 0-1.92-.012-2.87.008-.282 0-.396-.062-.384-.432.027-.68.028-1.368 0-2.045-.017-.394.109-.47.408-.463a89.3 89.3 0 0 0 3.062 0 .79.79 0 0 1 .606.255c.742.746 1.492 1.48 2.237 2.223.093.102.253.175.193.359l.003-.006Zm21.264 5.842a.962.962 0 0 0-.197-.567.697.697 0 0 0-.463-.272 2.74 2.74 0 0 0-.524-.025h-13.93c-.176-.008-.352 0-.526.025a.7.7 0 0 0-.463.272.965.965 0 0 0-.197.567c-.026.209.01.422.101.603a.813.813 0 0 0 .4.39c.213.082.438.112.66.086h13.979c.223.026.448-.004.66-.088a.803.803 0 0 0 .401-.388c.091-.181.127-.394.1-.603Zm2.36-9.212c-.256-.88-.928-1.376-1.85-1.376H15.794c-.88 0-1.542.52-1.804 1.377-.263.858-.046 1.74.64 2.425.816.817 1.64 1.626 2.458 2.433.351.365.802.565 1.268.564h12.297c.418.015.826-.146 1.152-.456.912-.888 1.827-1.773 2.715-2.697.583-.611.745-1.402.493-2.278v.008Zm-1.625.877c-.851.856-1.712 1.7-2.57 2.548-.11.11-.245.063-.37.063H18.583a.717.717 0 0 1-.562-.227c-.74-.75-1.494-1.48-2.238-2.224-.1-.1-.302-.175-.226-.374.075-.2.256-.104.395-.104h16.994a2.69 2.69 0 0 1 .336 0c.168.026.298.117.106.31v.008Zm10.58 7.473c-.908-.01-1.816 0-2.724 0h-2.726c-.583 0-.924.363-.931.943-.008.608.345.99.948.995 1.817.01 3.633.01 5.45 0 .58 0 .922-.377.93-.956.008-.62-.332-.984-.946-.99v.008Zm1.782-7.628c-.01-1.282-.682-2.088-1.763-2.098-1.152-.01-2.296 0-3.443 0-.53-.013-1.045.21-1.444.626-.8.809-1.617 1.597-2.424 2.398-.658.652-.886 1.511-.64 2.375.246.863.902 1.402 1.776 1.408h6.214c1.035 0 1.705-.817 1.717-2.032.016-.904.013-1.79.007-2.685v.008Zm-2.037 2.778c-.956-.03-1.912-.01-2.869-.01h-2.917c-.102 0-.242.07-.3-.086-.07-.192.088-.259.179-.35.758-.75 1.522-1.496 2.276-2.255a.734.734 0 0 1 .562-.238c1.035.012 2.071.018 3.107 0 .297 0 .384.097.374.448a27.838 27.838 0 0 0 0 1.988c.017.375-.064.506-.412.495v.008Zm2.037-2.778c-.01-1.282-.682-2.088-1.763-2.098-1.152-.01-2.296 0-3.443 0-.53-.013-1.045.21-1.444.626-.8.809-1.617 1.597-2.424 2.398-.658.652-.886 1.511-.64 2.375.246.863.902 1.402 1.776 1.408h6.214c1.035 0 1.705-.817 1.717-2.032.016-.904.013-1.79.007-2.685v.008Zm-2.037 2.778c-.956-.03-1.912-.01-2.869-.01h-2.917c-.102 0-.242.07-.3-.086-.07-.192.088-.259.179-.35.758-.75 1.522-1.496 2.276-2.255a.734.734 0 0 1 .562-.238c1.035.012 2.071.018 3.107 0 .297 0 .384.097.374.448a27.838 27.838 0 0 0 0 1.988c.017.375-.064.506-.412.495v.008Zm.256 4.85c-.909-.01-1.817 0-2.725 0h-2.726c-.583 0-.924.363-.931.943-.008.608.345.99.948.995 1.817.01 3.633.01 5.45 0 .58 0 .922-.377.93-.956.008-.62-.332-.984-.946-.99v.008Zm-8.956-8.35c-.256-.88-.928-1.376-1.85-1.376H15.794c-.88 0-1.542.52-1.804 1.377-.263.858-.046 1.74.64 2.425.816.817 1.64 1.626 2.458 2.433.351.365.802.565 1.268.564h12.297c.418.015.826-.146 1.152-.456.912-.888 1.827-1.773 2.715-2.697.583-.611.745-1.402.493-2.278v.008Zm-1.625.877c-.851.856-1.712 1.7-2.57 2.548-.11.11-.245.063-.37.063H18.583a.717.717 0 0 1-.562-.227c-.74-.75-1.494-1.48-2.238-2.224-.1-.1-.302-.175-.226-.374.075-.2.256-.104.395-.104h16.994a2.69 2.69 0 0 1 .336 0c.168.026.298.117.106.31v.008Zm-.735 8.335a.962.962 0 0 0-.197-.567.697.697 0 0 0-.463-.272 2.74 2.74 0 0 0-.524-.025h-13.93c-.176-.008-.352 0-.526.025a.7.7 0 0 0-.463.272.965.965 0 0 0-.197.567c-.026.209.01.422.101.603a.813.813 0 0 0 .4.39c.213.082.438.112.66.086h13.979c.223.026.448-.004.66-.088a.803.803 0 0 0 .401-.388c.091-.181.127-.394.1-.603Zm-20.256-7.514c-.85-.858-1.717-1.69-2.572-2.54-.342-.348-.778-.54-1.228-.54-1.227-.008-2.454-.023-3.681 0-.971.02-1.638.84-1.655 1.993-.012.927-.01 1.855 0 2.782.014 1.217.7 2.012 1.728 2.02 1.027.01 2.071 0 3.107 0h3.156c.812 0 1.436-.52 1.701-1.367.265-.849.058-1.728-.556-2.348Zm-1.008 1.672c-.06.186-.222.1-.338.102H8.134c-.973 0-1.92-.012-2.87.008-.282 0-.396-.062-.384-.432.027-.68.028-1.368 0-2.045-.017-.394.109-.47.408-.463a89.3 89.3 0 0 0 3.062 0 .79.79 0 0 1 .606.255c.742.746 1.492 1.48 2.237 2.223.093.102.253.175.193.359l.003-.006Zm-.749 4.977a366.725 366.725 0 0 0-5.783 0 .641.641 0 0 0-.295.061.747.747 0 0 0-.251.194.913.913 0 0 0-.167.296 1.03 1.03 0 0 0-.055.35 1.05 1.05 0 0 0 .176.66c.127.186.31.306.509.336.141.026.285.036.428.03h2.534c.94 0 1.88.014 2.814 0 .535-.015.864-.42.86-.983a1.068 1.068 0 0 0-.052-.358.943.943 0 0 0-.167-.306.776.776 0 0 0-.253-.204.664.664 0 0 0-.3-.07l.002-.006Z"/>
    <path d="M11.422 30.089c0 .55-.322.946-.852.96-.93.02-1.863 0-2.79 0H5.27a1.934 1.934 0 0 1-.425-.03.759.759 0 0 1-.505-.327 1.021 1.021 0 0 1-.174-.645.997.997 0 0 1 .055-.341.887.887 0 0 1 .165-.29.739.739 0 0 1 .248-.19.643.643 0 0 1 .293-.06c1.91-.017 3.821-.017 5.732 0 .102 0 .204.024.298.07a.78.78 0 0 1 .251.202.921.921 0 0 1 .164.3c.037.112.054.231.05.35Zm.993-7.56c-.854-.869-1.727-1.713-2.588-2.573-.344-.353-.782-.548-1.236-.548-1.235-.008-2.47-.023-3.704 0-.978.02-1.649.852-1.665 2.02-.013.94-.01 1.879 0 2.818.014 1.233.704 2.038 1.738 2.047 1.034.01 2.085 0 3.128 0h3.175c.818 0 1.446-.526 1.713-1.386.266-.86.058-1.75-.56-2.378Zm-1.014 1.694c-.06.188-.223.102-.34.103H8.125c-.979 0-1.931-.012-2.888.008-.283 0-.398-.063-.386-.437a26.03 26.03 0 0 0 0-2.072c-.017-.4.109-.476.41-.47 1.03.02 2.06.015 3.082 0a.792.792 0 0 1 .61.259c.747.756 1.501 1.5 2.25 2.252.095.103.256.177.195.363l.003-.006Zm21.314 5.827a1.11 1.11 0 0 1-.1.624.82.82 0 0 1-.404.402 1.33 1.33 0 0 1-.664.091H17.48a1.354 1.354 0 0 1-.664-.09.829.829 0 0 1-.403-.403 1.12 1.12 0 0 1-.102-.624c.006-.218.077-.427.199-.586a.7.7 0 0 1 .465-.282c.176-.026.353-.034.53-.025h14.017c.177-.009.353 0 .528.025a.698.698 0 0 1 .466.282c.123.16.193.368.199.586Zm2.273-9.258c-.255-.893-.925-1.396-1.844-1.396H15.829c-.879 0-1.538.528-1.8 1.398-.26.87-.045 1.765.638 2.461.814.829 1.636 1.65 2.452 2.469.35.37.8.574 1.264.573h12.26c.415.015.822-.149 1.147-.463.91-.902 1.822-1.8 2.707-2.738.581-.613.742-1.415.491-2.304Zm-1.62.89c-.848.87-1.707 1.726-2.561 2.587-.111.111-.245.063-.369.063h-11.83a.708.708 0 0 1-.56-.23c-.738-.76-1.49-1.501-2.231-2.257-.1-.1-.301-.178-.226-.38.075-.202.255-.105.394-.105h16.943a2.42 2.42 0 0 1 .334 0c.169.034.297.127.106.323Zm11.492 8.434c-.009.565-.347.93-.922.933-1.798.011-3.597.011-5.397 0-.597 0-.947-.383-.94-.972.008-.565.345-.914.923-.92.9-.008 1.8 0 2.7 0h2.698c.609.008.946.363.938.959Zm.947-8.589c-.01-1.3-.686-2.116-1.774-2.126-1.159-.011-2.31 0-3.465 0-.533-.013-1.051.213-1.452.634-.805.82-1.627 1.618-2.44 2.43-.662.66-.89 1.531-.644 2.406.248.875.908 1.42 1.788 1.427h6.253c1.041 0 1.715-.828 1.727-2.059.016-.909.013-1.805.007-2.712Zm-2.05 2.814c-.961-.03-1.923-.01-2.886-.01h-2.936c-.103 0-.243.072-.3-.087-.072-.194.087-.262.178-.354.764-.761 1.532-1.516 2.29-2.285a.735.735 0 0 1 .566-.242c1.041.013 2.084.019 3.127 0 .299 0 .386.099.376.455a28.15 28.15 0 0 0 0 2.013c.017.388-.064.52-.415.51Z"/>
    <path d="M34.988 20.792c-.255-.893-.925-1.396-1.844-1.396H15.829c-.879 0-1.538.528-1.8 1.398-.26.87-.045 1.765.638 2.461.814.829 1.636 1.65 2.452 2.469.35.37.8.574 1.264.573h12.26c.415.015.822-.149 1.147-.463.91-.902 1.822-1.8 2.707-2.738.581-.613.742-1.415.491-2.304Zm-1.62.89c-.848.87-1.707 1.726-2.561 2.587-.111.111-.245.063-.369.063h-11.83a.708.708 0 0 1-.56-.23c-.738-.76-1.49-1.501-2.231-2.257-.1-.1-.301-.178-.226-.38.075-.202.255-.105.394-.105h16.943a2.42 2.42 0 0 1 .334 0c.169.034.297.127.106.323Zm12.439-.155c-.01-1.3-.686-2.116-1.774-2.126-1.159-.011-2.31 0-3.465 0-.533-.013-1.051.213-1.452.634-.805.82-1.627 1.618-2.44 2.43-.662.66-.89 1.531-.644 2.406.248.875.908 1.42 1.788 1.427h6.253c1.041 0 1.715-.828 1.727-2.059.016-.909.013-1.805.007-2.712Zm-2.05 2.814c-.961-.03-1.923-.01-2.886-.01h-2.936c-.103 0-.243.072-.3-.087-.072-.194.087-.262.178-.354.764-.761 1.532-1.516 2.29-2.285a.735.735 0 0 1 .566-.242c1.041.013 2.084.019 3.127 0 .299 0 .386.099.376.455a28.15 28.15 0 0 0 0 2.013c.017.388-.064.52-.415.51Zm-31.342-1.812c-.854-.869-1.727-1.713-2.588-2.573-.344-.353-.782-.548-1.236-.548-1.235-.008-2.47-.023-3.704 0-.978.02-1.649.852-1.665 2.02-.013.94-.01 1.879 0 2.818.014 1.233.704 2.038 1.738 2.047 1.034.01 2.085 0 3.128 0h3.175c.818 0 1.446-.526 1.713-1.386.266-.86.058-1.75-.56-2.378Zm-1.014 1.694c-.06.188-.223.102-.34.103H8.125c-.979 0-1.931-.012-2.888.008-.283 0-.398-.063-.386-.437a26.03 26.03 0 0 0 0-2.072c-.017-.4.109-.476.41-.47 1.03.02 2.06.015 3.082 0a.792.792 0 0 1 .61.259c.747.756 1.501 1.5 2.25 2.252.095.103.256.177.195.363l.003-.006Zm20.81 6.853a1.33 1.33 0 0 1-.664.091H17.48a1.354 1.354 0 0 1-.664-.09.829.829 0 0 1-.403-.403 1.12 1.12 0 0 1-.102-.624c.006-.218.077-.427.199-.586a.7.7 0 0 1 .465-.282c.176-.026.353-.034.53-.025h14.017c.177-.009.353 0 .528.025a.698.698 0 0 1 .466.282c.123.16.193.368.199.586a1.11 1.11 0 0 1-.1.624.82.82 0 0 1-.404.402Zm-20.789-.987c0 .55-.322.946-.852.96-.93.02-1.863 0-2.79 0H5.27a1.934 1.934 0 0 1-.425-.03.759.759 0 0 1-.505-.327 1.021 1.021 0 0 1-.174-.645.997.997 0 0 1 .055-.341.887.887 0 0 1 .165-.29.739.739 0 0 1 .248-.19.643.643 0 0 1 .293-.06c1.91-.017 3.821-.017 5.732 0 .102 0 .204.024.298.07a.78.78 0 0 1 .251.202.921.921 0 0 1 .164.3c.037.112.054.231.05.35Zm33.438.027c-.009.565-.347.93-.922.933-1.798.011-3.597.011-5.397 0-.597 0-.947-.383-.94-.972.008-.565.345-.914.923-.92.9-.008 1.8 0 2.7 0h2.698c.609.008.946.363.938.959ZM11.458 48.747c.052-.2.138-.39.256-.567.654-1.008 1.997-1.38 3.23-1.43 1.233-.047 2.483.145 3.693-.088.318-.062.713-.338.534-.6a.47.47 0 0 0-.227-.15c-.5-.185-1.088-.143-1.534-.424a.446.446 0 0 1-.195-.207.262.262 0 0 1-.017-.102.425.425 0 0 1 .128-.254c.08-.08.173-.149.277-.203 2.12-1.119 4.664-1.088 7.08-1.028 4.124.22 5.494.592 7.686.834.884.096 1.839.238 2.46.851.684.676.756 1.759.483 2.663-.3 1.027-1.01 1.93-2.008 2.55-1.007.603-2.21.811-3.385.962-3.606.463-7.257.499-10.892.403-2.052-.054-4.168-.165-6.019-1.024-.766-.356-1.546-.955-1.584-1.775v-.104c.005-.102.017-.205.034-.307Zm13.888-8.292c0 .253-.088.496-.244.675a.783.783 0 0 1-.59.28.783.783 0 0 1-.588-.28 1.029 1.029 0 0 1-.244-.675c0-.527.703-2.158.833-2.615.203.57.833 2.088.833 2.615Z"/>
  </g>
  <defs>
    <clipPath id="a">
      <path d="M0 0h50v53H0z"/>
    </clipPath>
  </defs>
</svg>
