<svg xmlns="http://www.w3.org/2000/svg" width="53" height="52" fill="currentColor" viewBox="0 0 53 52">
  <g clip-path="url(#a)">
    <path d="M42.596 42.255c-.315-.947-.639-1.892-.96-2.838-1.059-3.107-2.109-6.223-3.18-9.32-.62-1.793-2.205-2.922-4.169-2.92-.722.065-1.438.185-2.141.36-2.14.51-3.474 2.41-3.189 4.56.222 1.663.488 3.318.74 4.977.435 2.847.856 5.697 1.318 8.54.224 1.37 1.497 2.06 2.775 1.515 2.76-1.18 5.51-2.39 8.26-3.595.606-.258.757-.637.546-1.279Zm-2.156.094c-.31.12-.619.245-.928.382l-.047.02-.76.338-2.001.894c-.045.026-.093.05-.141.069-1.1.459-2.196.935-3.286 1.428-.389.177-.527.047-.584-.323-.584-3.852-1.17-7.704-1.76-11.556-.087-.57-.166-1.141-.252-1.71-.27-1.28.32-1.958.928-2.312h.006a21.36 21.36 0 0 1 1.092-.37c.825-.243 1.615-.366 2.449-.154.813.204 1.354.782 1.623 1.568 1.285 3.76 2.556 7.524 3.844 11.284.087.237.08.349-.183.45v-.008Zm2.156-.093c-.315-.948-.639-1.893-.96-2.839-1.059-3.107-2.109-6.223-3.18-9.32-.62-1.793-2.205-2.922-4.169-2.92-.722.065-1.438.185-2.141.36-2.14.51-3.474 2.41-3.189 4.56.222 1.663.488 3.318.74 4.977.435 2.847.856 5.697 1.318 8.54.224 1.37 1.497 2.06 2.775 1.515 2.76-1.18 5.51-2.39 8.26-3.595.606-.258.757-.637.546-1.279Zm-2.156.093c-.31.12-.619.245-.928.382l-.047.02-.76.338-2.001.894c-.045.026-.093.05-.141.069-1.1.459-2.196.935-3.286 1.428-.389.177-.527.047-.584-.323-.584-3.852-1.17-7.704-1.76-11.556-.087-.57-.166-1.141-.252-1.71-.27-1.28.32-1.958.928-2.312h.006a21.36 21.36 0 0 1 1.092-.37c.825-.243 1.615-.366 2.449-.154.813.204 1.354.782 1.623 1.568 1.285 3.76 2.556 7.524 3.844 11.284.087.237.08.349-.183.45v-.008Zm11.862.43c-2.535-6.124-5.063-12.255-7.628-18.376-.26-.622-.247-1.015.225-1.539 1.182-1.309 1.053-3.162-.273-4.316a1095.29 1095.29 0 0 0-9.29-7.957c-1.34-1.137-3.191-.968-4.373.335-.4.442-.802.885-1.171 1.351-.22.279-.35.327-.663.07-3.01-2.465-6.037-4.907-9.058-7.358a3.668 3.668 0 0 0-1.285-.72C14.048 2.888 9.314 1.49 4.57.129 2.9-.35 1.293.543.754 2.185c-.213.642-.4 1.292-.588 1.938-.561 1.938.326 3.52 2.284 4.09a8418 8418 0 0 0 12.592 3.664 2.7 2.7 0 0 1 .987.516c1.618 1.337 3.238 2.67 4.86 4 .19.145.32.354.362.587.338 1.762.679 3.524 1.024 5.285l4.952 25.426c.43 2.178 1.807 3.545 3.97 4.143.151.041.354-.018.455.166h.31c.267-.086.556-.086.824 0h.207c.602-.092 1.212-.121 1.781-.393.694-.33 1.41-.612 2.112-.927 1.877-.83 3.768-1.632 5.636-2.473a.723.723 0 0 1 .844.111c.935.76 1.995.857 3.095.44a98.187 98.187 0 0 0 4.28-1.734c1.014-.433 1.746-1.11 1.909-2.254v-1.122c-.118-.282-.226-.576-.346-.864l-.002-.004ZM21.175 13.896c-.213.233-.33.226-.562.03-1.12-.948-2.27-1.866-3.387-2.809a4.774 4.774 0 0 0-1.793-.944c-4.18-1.21-8.36-2.428-12.542-3.655-.741-.216-1.146-.676-1.162-1.428.251-.862.412-1.877.898-2.777.3-.553.928-.68 1.686-.46l7.724 2.244c2.016.59 4.03 1.186 6.048 1.768.312.09.602.241.853.445a748.906 748.906 0 0 0 4.992 4.016c.271.215.315.33.05.6a114.12 114.12 0 0 0-2.805 2.97Zm28.59 31.513c-1.294.53-2.59 1.06-3.888 1.58-.761.306-1.265.13-1.686-.57-.33-.548-.716-.666-1.349-.391-2.892 1.263-5.784 2.527-8.676 3.793-2.516 1.095-4.786-.138-5.301-2.812-1.23-6.42-2.477-12.838-3.739-19.252-.74-3.79-1.478-7.581-2.213-11.37-.073-.374-.139-.74-.483-.97-.222-.15-.063-.25.037-.356.981-1.043 1.97-2.08 2.94-3.133.19-.204.3-.158.483-.006.955.799 1.92 1.586 2.88 2.38.68.56 1.085.539 1.657-.108.588-.663 1.167-1.334 1.754-2 .657-.748 1.393-.822 2.15-.176 3.011 2.57 6.02 5.145 9.023 7.725.338.288.579.623.567 1.096.018.322-.093.638-.31.88-.266.306-.521.631-.806.924-.383.394-.412.804-.206 1.3 1.353 3.233 2.698 6.47 4.033 9.71 1.336 3.24 2.677 6.477 4.023 9.711.457 1.118.261 1.575-.89 2.045Zm-8.13-5.986c-1.058-3.108-2.108-6.223-3.18-9.32-.618-1.794-2.204-2.922-4.168-2.92a13.94 13.94 0 0 0-2.141.36c-2.14.51-3.474 2.41-3.189 4.559.222 1.663.488 3.318.74 4.977.435 2.847.856 5.697 1.318 8.54.224 1.371 1.497 2.06 2.775 1.515 2.76-1.18 5.51-2.39 8.26-3.595.606-.266.757-.64.546-1.278-.315-.948-.639-1.893-.96-2.838Zm-1.195 2.936a19.7 19.7 0 0 0-.928.381l-.047.02-.76.338-2.001.886c-.045.026-.093.05-.141.069-1.1.459-2.196.935-3.286 1.428-.389.177-.527.047-.584-.323-.584-3.852-1.17-7.704-1.76-11.556-.087-.57-.166-1.141-.252-1.71-.27-1.28.32-1.958.928-2.312h.006a21.36 21.36 0 0 1 1.092-.37c.825-.243 1.615-.366 2.449-.154.813.204 1.354.782 1.623 1.568 1.285 3.76 2.556 7.524 3.844 11.284.087.237.08.349-.183.45Z"/>
    <path d="M11.333 21.757c-.89-2.66-2.331-5.001-3.98-7.205-.902-1.204-2.086-1.201-2.996 0a28.742 28.742 0 0 0-3.539 6.013c-.417.968-.786 1.966-.815 3.044-.105 3.515 2.452 6.255 5.828 6.291.374-.035.753-.035 1.12-.111 3.635-.754 5.615-4.363 4.382-8.032Zm-5.455 6.36c-2.92.008-4.882-2.695-3.982-5.592.799-2.568 2.224-4.785 3.784-6.91.144-.194.23-.169.36.009 1.557 2.125 2.987 4.336 3.773 6.909.885 2.897-1.035 5.577-3.931 5.584h-.004Z"/>
  </g>
  <defs>
    <clipPath id="a">
      <path d="M0 0h53v52H0z"/>
    </clipPath>
  </defs>
</svg>
