<svg xmlns="http://www.w3.org/2000/svg" width="70" height="50" fill="currentColor" viewBox="0 0 70 50">
  <g clip-path="url(#a)">
    <path d="M15.157 38.106a3.441 3.441 0 0 0-1.933.604 3.547 3.547 0 0 0-1.281 1.598 3.63 3.63 0 0 0-.197 2.053 3.58 3.58 0 0 0 .951 1.821 3.47 3.47 0 0 0 1.782.976c.676.14 1.376.071 2.013-.196a3.506 3.506 0 0 0 1.569-1.302 3.613 3.613 0 0 0 .597-1.972c0-.948-.37-1.858-1.025-2.529a3.477 3.477 0 0 0-2.476-1.053Zm.02 4.74a1.174 1.174 0 0 1-.822-.36 1.223 1.223 0 0 1-.341-.845 1.21 1.21 0 0 1 .346-.808c.213-.214.497-.338.795-.346a1.134 1.134 0 0 1 .825.352 1.18 1.18 0 0 1 .332.847c-.01.304-.132.593-.343.809-.21.215-.494.34-.792.35Zm-.02-4.74a3.441 3.441 0 0 0-1.933.604 3.547 3.547 0 0 0-1.281 1.598 3.63 3.63 0 0 0-.197 2.053 3.58 3.58 0 0 0 .951 1.821 3.47 3.47 0 0 0 1.782.976c.676.14 1.376.071 2.013-.196a3.506 3.506 0 0 0 1.569-1.302 3.613 3.613 0 0 0 .597-1.972c0-.948-.37-1.858-1.025-2.529a3.477 3.477 0 0 0-2.476-1.053Zm.02 4.74a1.174 1.174 0 0 1-.822-.36 1.223 1.223 0 0 1-.341-.845 1.21 1.21 0 0 1 .346-.808c.213-.214.497-.338.795-.346a1.134 1.134 0 0 1 .825.352 1.18 1.18 0 0 1 .332.847c-.01.304-.132.593-.343.809-.21.215-.494.34-.792.35Zm-.02-4.74a3.441 3.441 0 0 0-1.933.604 3.547 3.547 0 0 0-1.281 1.598 3.63 3.63 0 0 0-.197 2.053 3.58 3.58 0 0 0 .951 1.821 3.47 3.47 0 0 0 1.782.976c.676.14 1.376.071 2.013-.196a3.506 3.506 0 0 0 1.569-1.302 3.613 3.613 0 0 0 .597-1.972c0-.948-.37-1.858-1.025-2.529a3.477 3.477 0 0 0-2.476-1.053Zm.02 4.74a1.174 1.174 0 0 1-.822-.36 1.223 1.223 0 0 1-.341-.845 1.21 1.21 0 0 1 .346-.808c.213-.214.497-.338.795-.346a1.134 1.134 0 0 1 .825.352 1.18 1.18 0 0 1 .332.847c-.01.304-.132.593-.343.809-.21.215-.494.34-.792.35Zm-.02-4.74a3.441 3.441 0 0 0-1.933.604 3.547 3.547 0 0 0-1.281 1.598 3.63 3.63 0 0 0-.197 2.053 3.58 3.58 0 0 0 .951 1.821 3.47 3.47 0 0 0 1.782.976c.676.14 1.376.071 2.013-.196a3.506 3.506 0 0 0 1.569-1.302 3.613 3.613 0 0 0 .597-1.972c0-.948-.37-1.858-1.025-2.529a3.477 3.477 0 0 0-2.476-1.053Zm.02 4.74a1.174 1.174 0 0 1-.822-.36 1.223 1.223 0 0 1-.341-.845 1.21 1.21 0 0 1 .346-.808c.213-.214.497-.338.795-.346a1.134 1.134 0 0 1 .825.352 1.18 1.18 0 0 1 .332.847c-.01.304-.132.593-.343.809-.21.215-.494.34-.792.35Zm-.02-4.74a3.441 3.441 0 0 0-1.933.604 3.547 3.547 0 0 0-1.281 1.598 3.63 3.63 0 0 0-.197 2.053 3.58 3.58 0 0 0 .951 1.821 3.47 3.47 0 0 0 1.782.976c.676.14 1.376.071 2.013-.196a3.506 3.506 0 0 0 1.569-1.302 3.613 3.613 0 0 0 .597-1.972c0-.948-.37-1.858-1.025-2.529a3.477 3.477 0 0 0-2.476-1.053Zm.02 4.74a1.174 1.174 0 0 1-.822-.36 1.223 1.223 0 0 1-.341-.845 1.21 1.21 0 0 1 .346-.808c.213-.214.497-.338.795-.346a1.134 1.134 0 0 1 .825.352 1.18 1.18 0 0 1 .332.847c-.01.304-.132.593-.343.809-.21.215-.494.34-.792.35Zm39.648-4.74a3.427 3.427 0 0 0-1.36.251 3.483 3.483 0 0 0-1.157.77 3.579 3.579 0 0 0-.774 1.167 3.624 3.624 0 0 0 .007 2.763 3.506 3.506 0 0 0 1.942 1.926c.433.173.895.256 1.36.244.465.01.927-.076 1.359-.251a3.484 3.484 0 0 0 1.157-.77c.331-.332.595-.73.774-1.167a3.626 3.626 0 0 0-.007-2.763 3.566 3.566 0 0 0-.78-1.163 3.483 3.483 0 0 0-1.161-.763 3.428 3.428 0 0 0-1.36-.244Zm0 4.74a1.145 1.145 0 0 1-.817-.372 1.19 1.19 0 0 1-.316-.853c.01-.305.135-.594.35-.806.215-.211.502-.329.8-.328.3.014.58.146.786.368a1.193 1.193 0 0 1-.012 1.636 1.146 1.146 0 0 1-.791.355Zm0-4.74a3.427 3.427 0 0 0-1.36.251 3.483 3.483 0 0 0-1.157.77 3.579 3.579 0 0 0-.774 1.167 3.624 3.624 0 0 0 .007 2.763 3.506 3.506 0 0 0 1.942 1.926c.433.173.895.256 1.36.244.465.01.927-.076 1.359-.251a3.484 3.484 0 0 0 1.157-.77c.331-.332.595-.73.774-1.167a3.626 3.626 0 0 0-.007-2.763 3.566 3.566 0 0 0-.78-1.163 3.483 3.483 0 0 0-1.161-.763 3.428 3.428 0 0 0-1.36-.244Zm0 4.74a1.145 1.145 0 0 1-.817-.372 1.19 1.19 0 0 1-.316-.853c.01-.305.135-.594.35-.806.215-.211.502-.329.8-.328.3.014.58.146.786.368a1.193 1.193 0 0 1-.012 1.636 1.146 1.146 0 0 1-.791.355Zm-39.668-4.74a3.441 3.441 0 0 0-1.933.604 3.547 3.547 0 0 0-1.281 1.598 3.63 3.63 0 0 0-.197 2.053 3.58 3.58 0 0 0 .951 1.821 3.47 3.47 0 0 0 1.782.976c.676.14 1.376.071 2.013-.196a3.506 3.506 0 0 0 1.569-1.302 3.613 3.613 0 0 0 .597-1.972c0-.948-.37-1.858-1.025-2.529a3.477 3.477 0 0 0-2.476-1.053Zm.02 4.74a1.174 1.174 0 0 1-.822-.36 1.223 1.223 0 0 1-.341-.845 1.21 1.21 0 0 1 .346-.808c.213-.214.497-.338.795-.346a1.134 1.134 0 0 1 .825.352 1.18 1.18 0 0 1 .332.847c-.01.304-.132.593-.343.809-.21.215-.494.34-.792.35ZM63.243 17.61a8.42 8.42 0 0 0-1.445 1.051c-1.18 1.119-1.604 2.683-1.096 4.052.565 1.521 1.81 2.414 3.472 2.472.707.024 1.414.01 2.119 0 2.01-.01 3.237-.994 3.703-2.983v-1.947c-.478 0-.957-.01-1.434-.01-.884 0-.884 0-.895.901-.013 1.065-.406 1.464-1.462 1.473H64.36c-.616 0-1.096-.186-1.294-.801-.197-.616.117-1.076.612-1.415.642-.44 1.27-.903 1.935-1.306.638-.386.888-.9.883-1.66-.022-4.489-.01-8.975-.013-13.463a4.675 4.675 0 0 0-.128-1.305c-.4-1.396-1.308-2.293-2.684-2.584-1.462-.311-2.673.248-3.621 1.423-4.564 5.647-9.132 11.292-13.703 16.935-1.082 1.335-2.162 2.67-3.289 4.05l-.256.317-.018-.038s-2.17 2.44-.437 4.49c.011.013-.012.043-.034.114-1.28 0-2.558-.013-3.852.01a.476.476 0 0 1-.182-.025l-.02.02h-2.94c-1.33.04-1.462-.018-1.484-1.21V13.12h-7.427c-1.713 0-3.427.022-5.141-.013-2.282-.049-3.837.984-4.836 3.056-1.347 2.811-2.74 5.593-4.095 8.407a1.149 1.149 0 0 1-.353.478 1.117 1.117 0 0 1-.542.232 751.58 751.58 0 0 0-6.426 1.288C1.91 27.204 0 29.593 0 32.838v8.512c0 1.095.417 1.512 1.496 1.516 1.645 0 3.29.032 4.92-.015.549-.015.717.16.826.685a8.268 8.268 0 0 0 2.825 4.638 7.977 7.977 0 0 0 5.046 1.818c3.82 0 7.18-2.686 7.96-6.432.12-.576.33-.709.883-.707 6.265.023 12.532 0 18.799.028.817 0 1.308-.306 1.657-1.048.886-1.88 1.814-3.738 2.74-5.603.094-.186.101-.484.408-.488h1.542c-3.325 3.59-3.042 8.621-.16 11.707a8.117 8.117 0 0 0 5.31 2.53 8.072 8.072 0 0 0 5.606-1.741 8.074 8.074 0 0 0 3-5.072c.477-2.807-.32-5.26-2.287-7.437.262.017.526.017.789 0 .67-.108 1.04.145 1.337.802.828 1.829 1.76 3.61 2.626 5.422.307.637.749.954 1.461.919a12.296 12.296 0 0 1 1.572 0c.73.058 1.279-.187 1.644-.843V28.207c-.332-.848-.614-1.025-1.703-1.027H52.371c-.218 0-.448.07-.7-.084 4.074-5.966 8.165-11.9 12.267-17.9a579.57 579.57 0 0 0 0 7.101 1.38 1.38 0 0 1-.155.762 1.344 1.344 0 0 1-.54.55Zm-18.818 6.919A6589.001 6589.001 0 0 0 61.756 3.147c.313-.385.633-.746 1.168-.746.99-.024 1.578 1.15 1.076 2.17a6.683 6.683 0 0 1-.482.757c-4.84 7.058-9.676 14.119-14.505 21.183l-.6.86h-4.436c-1.211-1.188.45-2.842.45-2.842h-.002ZM15.183 47.606a5.82 5.82 0 0 1-4.11-1.742 6.06 6.06 0 0 1-1.737-4.182c-.033-3.224 2.62-5.94 5.818-5.953 1.542 0 3.021.621 4.116 1.73A6.027 6.027 0 0 1 21 41.645c.026 3.222-2.633 5.948-5.817 5.96Zm16.32-7.773c0 .5-.087.667-.622.66a291.168 291.168 0 0 0-7.105 0c-.384 0-.549-.088-.63-.49a8.382 8.382 0 0 0-1.682-3.614 8.157 8.157 0 0 0-3.14-2.393 7.994 7.994 0 0 0-7.58.681 6.075 6.075 0 0 0-1.143.912 10.317 10.317 0 0 0-2.024 3.017 8.145 8.145 0 0 0-.437 1.562c-.044.284-.183.32-.405.317-1.342 0-2.683-.01-4.02 0-.294 0-.43-.08-.385-.39v-.068c.023-.457-.123-1.007-.059-1.423h-.016v-4.712c.069-2.13.462-2.929.462-2.929.548-1.225 1.487-1.8 2.647-2.041 2.337-.487 4.676-.976 7.022-1.41.39-.05.762-.203 1.078-.445a2.3 2.3 0 0 0 .718-.933c1.425-3 2.923-5.966 4.359-8.96.564-1.18 1.407-1.714 2.7-1.7 3.21.04 6.42.029 9.63 0 .538 0 .622.165.62.66-.007 7.899-.003 15.798.011 23.699Zm29.166 1.85a6.061 6.061 0 0 1-1.736 4.18 5.82 5.82 0 0 1-4.11 1.743c-3.189-.013-5.847-2.728-5.814-5.957a6.028 6.028 0 0 1 1.728-4.19 5.787 5.787 0 0 1 4.118-1.73c3.185.017 5.838 2.726 5.814 5.953Zm6.839-1.216c-.344.095-.4-.232-.504-.446a359.499 359.499 0 0 1-2.761-5.663c-.336-.708-.793-1.032-1.593-1.029-5.216.026-10.433.026-15.65 0-.76 0-1.225.285-1.552.98-.899 1.897-1.847 3.773-2.753 5.665-.167.349-.337.519-.753.515a406.406 406.406 0 0 0-7.586 0c-.42 0-.537-.112-.535-.543.018-3.184.018-6.369 0-9.553 0-.52.122-.655.64-.653 5.444.02 10.888.013 16.333.013 5.399 0 10.798.01 16.197-.015.579 0 .701.155.696.726-.03 3.138-.011 6.275-.022 9.413-.004.196.168.498-.157.59Zm-12.683-2.36a3.427 3.427 0 0 0-1.36.25 3.483 3.483 0 0 0-1.157.77 3.579 3.579 0 0 0-.774 1.167 3.624 3.624 0 0 0 .007 2.763 3.506 3.506 0 0 0 1.942 1.926c.433.173.895.256 1.36.244.465.01.927-.076 1.359-.251a3.484 3.484 0 0 0 1.157-.77c.331-.332.595-.73.774-1.167a3.626 3.626 0 0 0-.007-2.763 3.566 3.566 0 0 0-.78-1.163 3.483 3.483 0 0 0-1.161-.763 3.428 3.428 0 0 0-1.36-.244Zm0 4.739a1.145 1.145 0 0 1-.817-.372 1.19 1.19 0 0 1-.316-.853c.01-.305.135-.594.35-.806.215-.211.502-.329.8-.328.3.014.58.146.786.368a1.193 1.193 0 0 1-.012 1.636 1.146 1.146 0 0 1-.791.355Zm-39.668-4.74a3.441 3.441 0 0 0-1.933.604 3.547 3.547 0 0 0-1.281 1.598 3.63 3.63 0 0 0-.197 2.053 3.58 3.58 0 0 0 .951 1.821 3.47 3.47 0 0 0 1.782.976c.676.14 1.376.071 2.013-.196a3.506 3.506 0 0 0 1.569-1.302 3.613 3.613 0 0 0 .597-1.972c0-.948-.37-1.858-1.025-2.529a3.477 3.477 0 0 0-2.476-1.053Zm.02 4.74a1.174 1.174 0 0 1-.822-.36 1.223 1.223 0 0 1-.341-.845 1.21 1.21 0 0 1 .346-.808c.213-.214.497-.338.795-.346a1.134 1.134 0 0 1 .825.352 1.18 1.18 0 0 1 .332.847c-.01.304-.132.593-.343.809-.21.215-.494.34-.792.35Zm-.02-4.74a3.441 3.441 0 0 0-1.933.604 3.547 3.547 0 0 0-1.281 1.598 3.63 3.63 0 0 0-.197 2.053 3.58 3.58 0 0 0 .951 1.821 3.47 3.47 0 0 0 1.782.976c.676.14 1.376.071 2.013-.196a3.506 3.506 0 0 0 1.569-1.302 3.613 3.613 0 0 0 .597-1.972c0-.948-.37-1.858-1.025-2.529a3.477 3.477 0 0 0-2.476-1.053Zm.02 4.74a1.174 1.174 0 0 1-.822-.36 1.223 1.223 0 0 1-.341-.845 1.21 1.21 0 0 1 .346-.808c.213-.214.497-.338.795-.346a1.134 1.134 0 0 1 .825.352 1.18 1.18 0 0 1 .332.847c-.01.304-.132.593-.343.809-.21.215-.494.34-.792.35Zm39.648-4.74a3.427 3.427 0 0 0-1.36.251 3.483 3.483 0 0 0-1.157.77 3.579 3.579 0 0 0-.774 1.167 3.624 3.624 0 0 0 .007 2.763 3.506 3.506 0 0 0 1.942 1.926c.433.173.895.256 1.36.244.465.01.927-.076 1.359-.251a3.484 3.484 0 0 0 1.157-.77c.331-.332.595-.73.774-1.167a3.626 3.626 0 0 0-.007-2.763 3.566 3.566 0 0 0-.78-1.163 3.483 3.483 0 0 0-1.161-.763 3.428 3.428 0 0 0-1.36-.244Zm0 4.74a1.145 1.145 0 0 1-.817-.372 1.19 1.19 0 0 1-.316-.853c.01-.305.135-.594.35-.806.215-.211.502-.329.8-.328.3.014.58.146.786.368a1.193 1.193 0 0 1-.012 1.636 1.146 1.146 0 0 1-.791.355Zm0-4.74a3.427 3.427 0 0 0-1.36.251 3.483 3.483 0 0 0-1.157.77 3.579 3.579 0 0 0-.774 1.167 3.624 3.624 0 0 0 .007 2.763 3.506 3.506 0 0 0 1.942 1.926c.433.173.895.256 1.36.244.465.01.927-.076 1.359-.251a3.484 3.484 0 0 0 1.157-.77c.331-.332.595-.73.774-1.167a3.626 3.626 0 0 0-.007-2.763 3.566 3.566 0 0 0-.78-1.163 3.483 3.483 0 0 0-1.161-.763 3.428 3.428 0 0 0-1.36-.244Zm0 4.74a1.145 1.145 0 0 1-.817-.372 1.19 1.19 0 0 1-.316-.853c.01-.305.135-.594.35-.806.215-.211.502-.329.8-.328.3.014.58.146.786.368a1.193 1.193 0 0 1-.012 1.636 1.146 1.146 0 0 1-.791.355Zm-39.668-4.74a3.441 3.441 0 0 0-1.933.604 3.547 3.547 0 0 0-1.281 1.598 3.63 3.63 0 0 0-.197 2.053 3.58 3.58 0 0 0 .951 1.821 3.47 3.47 0 0 0 1.782.976c.676.14 1.376.071 2.013-.196a3.506 3.506 0 0 0 1.569-1.302 3.613 3.613 0 0 0 .597-1.972c0-.948-.37-1.858-1.025-2.529a3.477 3.477 0 0 0-2.476-1.053Zm.02 4.74a1.174 1.174 0 0 1-.822-.36 1.223 1.223 0 0 1-.341-.845 1.21 1.21 0 0 1 .346-.808c.213-.214.497-.338.795-.346a1.134 1.134 0 0 1 .825.352 1.18 1.18 0 0 1 .332.847c-.01.304-.132.593-.343.809-.21.215-.494.34-.792.35Zm-.02-4.74a3.441 3.441 0 0 0-1.933.604 3.547 3.547 0 0 0-1.281 1.598 3.63 3.63 0 0 0-.197 2.053 3.58 3.58 0 0 0 .951 1.821 3.47 3.47 0 0 0 1.782.976c.676.14 1.376.071 2.013-.196a3.506 3.506 0 0 0 1.569-1.302 3.613 3.613 0 0 0 .597-1.972c0-.948-.37-1.858-1.025-2.529a3.477 3.477 0 0 0-2.476-1.053Zm.02 4.74a1.174 1.174 0 0 1-.822-.36 1.223 1.223 0 0 1-.341-.845 1.21 1.21 0 0 1 .346-.808c.213-.214.497-.338.795-.346a1.134 1.134 0 0 1 .825.352 1.18 1.18 0 0 1 .332.847c-.01.304-.132.593-.343.809-.21.215-.494.34-.792.35Zm-.02-4.74a3.441 3.441 0 0 0-1.933.604 3.547 3.547 0 0 0-1.281 1.598 3.63 3.63 0 0 0-.197 2.053 3.58 3.58 0 0 0 .951 1.821 3.47 3.47 0 0 0 1.782.976c.676.14 1.376.071 2.013-.196a3.506 3.506 0 0 0 1.569-1.302 3.613 3.613 0 0 0 .597-1.972c0-.948-.37-1.858-1.025-2.529a3.477 3.477 0 0 0-2.476-1.053Zm.02 4.74a1.174 1.174 0 0 1-.822-.36 1.223 1.223 0 0 1-.341-.845 1.21 1.21 0 0 1 .346-.808c.213-.214.497-.338.795-.346a1.134 1.134 0 0 1 .825.352 1.18 1.18 0 0 1 .332.847c-.01.304-.132.593-.343.809-.21.215-.494.34-.792.35Z"/>
  </g>
  <defs>
    <clipPath id="a">
      <path d="M0 0h70v50H0z"/>
    </clipPath>
  </defs>
</svg>
